<mxfile host="app.diagrams.net" agent="Mozilla/5.0 (Windows NT 10.0; Win64; x64) AppleWebKit/537.36 (KHTML, like Gecko) Chrome/128.0.0.0 Safari/537.36" version="24.7.7">
  <diagram name="Page-1" id="9Awhk0VGK9olmo1_ihQ6">
    <mxGraphModel dx="1434" dy="739" grid="1" gridSize="10" guides="1" tooltips="1" connect="1" arrows="1" fold="1" page="1" pageScale="1" pageWidth="850" pageHeight="1100" math="0" shadow="0">
      <root>
        <mxCell id="0" />
        <mxCell id="1" parent="0" />
        <mxCell id="JeFQ-GH76ggwbm4yUNz4-17" value="" style="rounded=0;whiteSpace=wrap;html=1;fillColor=none;strokeColor=none;" parent="1" vertex="1">
          <mxGeometry x="500" y="290" width="920" height="159.5" as="geometry" />
        </mxCell>
        <mxCell id="JeFQ-GH76ggwbm4yUNz4-2" value="" style="shape=image;verticalLabelPosition=bottom;labelBackgroundColor=default;verticalAlign=top;aspect=fixed;imageAspect=0;image=data:image/png,iVBORw0KGgoAAAANSUhEUgAABbcAAAfQCAYAAADxb2KxAAAAAXNSR0IArs4c6QAAAARnQU1BAACxjwv8YQUAAAAJcEhZcwAAEnQAABJ0Ad5mH3gAAP+lSURBVHhe7P0JmFz5Xd/7M8Y4kEAgiRMnIblkuSSEhJF6tIz2bTRaR2q1NKNlNJLG1r7vGmm2mlGfamlwJsH8szkQ9kAwBAgm4AQMYUtIzA1h+WM222AcDF6wHV+bOMZz7vkWVZ6e9k9S61Sd7lNVr9fzvB9jPNMqdVVXn/Pp6lOfBwAAAAAAAAAAAAAAAAAAAAAAAAAAAAAAAAAAAAAAAAAAAAAAAAAAAAAAAAAAAAAAAAAAAAAAAAAAAAAAAAAAAAAAAAAAAAAAAAAAAAAAAAAAAAAAAAAAAAAAAAAAAAAAAAAAAAAAAAAAAAAAAAAAAAAAAAAAAAAAAAAAAAAAAAAAAAAAAAAAAAAAAAAAAAAAAAAAAAAAAAAAAAAAAAAAAAAAAAAAAAAAAAAAAAAAAAAAAAAAAAAAAAAAAAAAAAAAAAAAAAAAAAAAAAAAAAAAAAAAAAAAAAAAAAAAAAAAAAAAAAAAAAAAAAAAAAAAAAAAAAAAAAAAAAAAAAAAAAAAAAAAAAAAAAAAAAAAAAAAAAAAAAAAAAAAAAAAAAAAAAAAAAAAAAAAAAAAAAAAAAAAAAAAAAAAAAAAAAAAAAAAAAAAAAAAAAAAAAAAAAAAAAAAAAAAAAAAAAAAAAAAAAAAAAAAAAAAAAAAAAAAAAAAAAAAAAAAAAAAAAAAAAAAAAAAAAAAAAAAAAAAAAAAAAAAAAAAAAAAAAAAAAAAAAAAAAAAAAAAAAAAAAAAAAAAAAAAAAAAAAAAAAAAAAAAAAAAAAAAAAAAAAAAAAAAAAAAAAAAAAAAAAAAAAAAAAAAAAAAAAAAAAAAAAAAAAAAAAAAAAAAAAAAAAAAAAAAAAAAAAAAAAAAAAAAAAAAAAAAAAAAAAAAAAAAAAAAAAAAAAAAAAAAAAAAAAAAAAAAAAAAAAAAAAAAAAAAAAAAAAAAAAAAAAAAAAAAAAAAAAAAAAAAAAAAAAAAAAAAAAAAAAAAAAAAAAAAAAAAAAAAAAAAAAAAAAAAAAAAAAAAAAAAAAAAAAAAAAAAAAAAAAAAAAAAAAAAAAAAAAAAAAAAAAAAAAAAAAAAAAAAAAAAAAAAAAAAAAAAAAAAAAAAAAAAAAAAAAAAAAAAAAAAAAAAAAAAAAAAAAAAAAAAAAAAAAAAAAAAAAAAAAAAAAAAAAAAAAAAAAAAAAAAAAAAAAAAAAAAAAAAAAAAAAAAAAAAAAAAAAAAAAAAAAAAAAAAAAAAAAAAAAAAAAAAAAAAAAAAAAAAAAAAAAAAAAAAAAAAAAAAAAAAAAAAAAAAAAAAAAAAAAAAAAAAAAAAAAAAAAAAAAAAAAAAAAAAAAAAAAAAAAAAAAAAAAAAAAAAAAAAAAAAAAAAAAAAAAAAAAAAAAAAAAAAAAAAAAAAAAAAAAAAAAAAAAAAAAAAAAAAAAAAAAAAAAAAAAAAAAAAAAAAAAAAAAAAAAAAAAAAAAAAAAAAAAAAAAAAAAAAAAAAAAAAAAAAAAAAAAAAAAAAAAAAAAAAAAAAAAAAAAAAAAAAAAAAAAAAAAAAAAAAAAAAAAAAAAAAAAAAAAAAAAAAAAAAAAAAAAAAAAAAAAAAAAAAAAAAAAAAAAAAAAAAAAAAAAAAAAAAAAAAAAAAAAAAAAAAAAAAAAAAAAAAAAAAAAAAAAAAAAAAAAAAAAAAAAAAAAAAAAAAAAAAAAAAAAAAAAAAAAAAAAAAAAAAAAAAAAAAAAAAzLybN29+adT+rwAAAAAAUF+NRuOLsyy71mw2P9zuyfj/tf9nAAAAAACojxdffPGLJiYmLmVZ9oFms5lPLv5/8b/FP9P+xwEAAAAAYPa86U1v+lNZlp0pev/UUXtq8c/EP9toNL6w/a8DAAAAAMDMaTQar8my7FjR76aG7NsV/078u/Ex2h8OAAAAAACq02g0Xp1l2RuK3pMaru+m9sc4GB+z/eEBAAAAAKB3Go3GqyYmJvZlWfabU0fqbouPGR87/oz2HwcAAAAAAOXF4NxsNndmWfbOqaN0r4s/Y3x8fJeRGwAAAACAUvI8vyfLsrFms/lLU0foGeiX4s+O29C+OQAAAAAAcHsTExMPZVn284nReUaL2xC3pX2zAAAAAADgczWbzQeL/svkgbkOZVn2c8V/Pti+mQAAAAAA0Bq1Vxb9dGdMrnE/PT4+vqp9swEAAAAAGEbNZnNplmU/NmVArn3t27y0/dcAAAAAAGAYTExMLGg2mz88eTDu0344/i7tvxYAAAAAAIPoxo0bc7Is+3dFLyWG4r6s/Xf5wfi7tf+aAAAAAAAMguvXr//9LMu+Z5BG7anF3y3+jvF3bf+1AQAAAADoRxMTE38ny7J/3Ww2PzN1DB7gPhN/5+vXr//d9qcBAAAAAIB+cOPGjb+VZdm3NJvNT08ZfoepT8fnID4X7U8LAAAAAAB1dPPmzf+r2Wy+Ocuy/zNl6B3a4nNR9C/jc9P+NAEAAAAAUAcvvPDCX82y7J80m81PTR139dk+FZ+j+Fy1P20AAAAAAMyGRqPxl5rN5j/OsuyTU4Zc3aL25+ofF72u/WkEAAAAAGAmNBqN1zabzZtZlv2/ndFWd1f7c3czPpftTysAAAAAAFVoNBpf1mw2r2dZ9r8mD7UqX/tzeT0+t+1PMwAAAAAAvfDCCy98SbPZfLboI51RVj0vPrfPxue6/WkHAAAAAKCMN77xjX8my7Inij40ZYhVRcXnOj7njUbji9t3AwAAAAAA0/Hiiy9+UbPZPF/0B5OHV81o8bk/H/dF+24BAAAAACCl0Wi8JsuyU0X/c8rQqlkq7ou4T+K+ad9NAAAAAACEN7/5zV+QZdmRot9JDayqRe+N+yjuq/bdBgAAAAAwnBqNxqsnJiYONJvNd08ZUlXf3h33Wdx37bsRAAAAAGA4NBqNV42Pj+/NsuzXE+Op+qC47+I+jPuyfbcCAAAAAAymPM/vybLskWaz+StTx1L1bb8S92nct+27GQAAAABgMMTwOTExsTXLsv+RGEc1ABX37S/GfWzkBgAAAAAGQpZlG5vN5jumjqEa2N4R93n77gcAAAAA6C/NZvOBop+dNHpquPrZ8fHxte2HAwAAAABAvTWbzeVZlv2nKUOnhrT2Y2F5++EBAAAAAFAvWZYtKvqPU8dNKYrHRjxG2g8XAAAAAIDZdePGjXnNZvOHpo6Z0i36oXjMtB8+AAAAAAAz6/r161+TZdn3F72UGDClWxaPmXjsFP/3ve2HEwAAAABAta5fv/73siz77maz+ZnJg6VUos/EYykeU+2HFwAAAABAb12/fv0rsyz7thgkpwyUUrfFyP1t8RhrP9wAAAAAALpz48aNv9FsNv9V0acnjZFSFX06y7Jvisdc++EHAAAAAHB3bt68+deyLPsXzWbzU1MGSKnqPhWPvXgMth+OAAAAAAC3l2XZX2k2m28q/vN/TxkcpRmt/RiMx+JfaT88AQAAAABeqdls/sUsy/5h0ScnD4zSbBePyXhsFv/3X2w/XAEAAACAYddoNP58s9mcKPp4Z0yUatrHsyy7EY/Z9sMXAAAAABg2N2/e/NJms/lc0ccmjYdSPxSP2efiMdx+OAMAAAAAg67RaHxxlmVPFf3hlMFQ6qviMRyP5XhMtx/eAAAAAMCgaTQafzrLssvNZvODU0dCqc/7YDy24zHefrgDAAAAAP2u0Wh8YbPZPJtl2funDILSQFU8xn+/+M+z8ZhvP/wBAAAAgH7TaDRe02w2jxe9rzP+SUNSPOaPx9dA+8sBAAAAAKi7RqPx6mazebDot9tDnzSs/XaWZYfia6L95QEAAAAA1M1b3vKWz8+ybH+z2fytKQOfNOz9VnxtxNdI+8sFAAAAAJhtjUbjVc1mc3eWZe+cMuhJmlT7a2R3fM20v3wAAAAAgJmW5/k9zWZze5Zlvzx5wJN0+9pfM9vja6j95QQAAAAAzISJiYmHsiz771NHO0nTL76Gira0v6wAAAAAgKpkWba+2Wz+16kjnaSu+q/xtdX+MgMAAAAAeqXZbK4u+ulJY5yk3hdfY6vbX3YAAAAAQFnNZnNp0dvbw5ukGSjLsh8v/nNp+8sQAAAAAJiuiYmJBc1m822TBzdJM97b4mux/WUJAAAAANzKjRs3RprN5g9OGdgkzW4/GF+b7S9TAAAAAKCj2Wz+g6LvzbLspUmDmqSa1P7a/N6if9D+sgUAAACA4XX9+vW/22w2v7PoMzGgSap9n8my7Lvia7f9ZQwAAAAAw+PGjRt/q9lsfmuWZX88ZTiT1Ae1v3a/Nb6W21/WAAAAADC4xsfHvyLLsn/ZbDY/PXkok9S3xdfyN8TXdvvLHAAAAAAGR5ZlX95sNv9p0afag5ikwSq+tv9pfK23v+wBAAAAoH81m83XZVn2dUWfnDSCSRrQ4ms9vuaL//t17acBAAAAAOgfjUbjtVmWvdBsNj8xefiSNDR9Ip4D4rmg/bQAAAAAAPV148aNP5dl2Xiz2fz4lKFL0nAWzwVZPDe0nyYAAAAAoD4ajcafzbKs0Ww2PzJp1JKkTh+J54h4rmg/bQAAAADA7Gk0Gl/cbDavZln2oSlDliR9Tu3niqvx3NF+GgEAAACAmfPiiy9+0fj4+IUsyz4wdbySpDsVzx3xHBLPJe2nFQAAAACozpve9KY/1Ww2Txf93uShSpJKFs8lp+O5pf00AwAAAAC902g0XtNsNo8Wvbc9SElSL4vnlqPxXNN+2gEAAACA8hqNxqsnJiZe32w23z1phJKkqnp3POfEc0/7aQgAAAAApq/RaLyq2Ww+lmXZr08ZniRpJvqNosfiuaj9tAQAAAAAtxZDUpZljzSbzV+dNDJJ0mz1q/GcZOQGAAAAICnP83uazea2LMt+ccqwJEmzXvu5aVs8V7WftgAAAAAYdlmWbW42m++YPCRJUk17RzxntZ++AAAAABhG4+Pja7Ms+8+J8UiSal08d8VzWPvpDAAAAIBhMD4+viLLsp9KDUaS1E/Fc1k8p7Wf3gAAAAAYRBMTE4ubzeaPTh2HJGkA+tHx8fEl7ac7AAAAAAZBlmXzi/59YgySpIEqnuviOa/99AcAAABAP2o2m/cW/UCWZS9NHn8kaZBrP+f9QNG97adDAAAAAPpBs9n86qK3GLUlDXPt58C3FH11++kRAAAAgDqamJj4O1mWfXuz2fxMZ9yRJDU/E8+N8RzZfroEAAAAoA7Gx8f/ZrPZ/OaiT08acyRJryyeI785njPbT58AAAAAzIbx8fG/3mw231z0qfZwI0m6c/Gc+eZ4Dm0/nQIAAAAwE1544YW/mmXZ1xf97ymDjSRp+n0qnkvjObX99AoAAABAFRqNxl9qNpsvZln2ySkDjSSpZO3n1BfjObb9dAsAAABAL0xMTPyFZrN5s+jjnTFGktTz4jn2Zjzntp9+AQAAACij0Wh8WZZlzzebzY9NGl8kSdX2sXjujefg9tMxAAAAANPxwgsvfEmz2Xw6y7I/nDK4SJJmqPZz8NPxnNx+egYAAAAg5Y1vfOOfaTabV4o+2BlXJEmzXjwnX4nn6PbTNQAAAADhxRdf/KIsy84V/f6UQUWSVJPiOTqeq+M5u/30DQAAADCcGo3Ga5rN5smi900eUCRJtS6es0/Gc3j76RwAAABgOLz5zW/+gmazebjot9tDiSSp/4rn8MPxnN5+egcAAAAYTI1G49VZlu0veteUgUSS1KfFc3o8t8dzfPvpHgAAAGAwNBqNV42Pj+9pNpu/NnUUkSQNTL8Wz/XxnN9++gcAAADoT3me39NsNh/OsuyXpwwgkqQBrf2c/3B8D2h/OwAAAADoDzFoZFm2pdls/sLkwUOSNFT9QnwvMHIDAAAAfWFiYmJDlmX/LTFySJKGsPieEN8b2t8mAAAAAOplfHx8TZZlP5MaNiRJiu8R8b2i/W0DAAAAYHaNj48vazabPzF1xJAk6Rb9RHzvaH8bAQAAAJhZWZYtLPoPidFCkqQ7Ft9DJiYm7m9/WwEAAACoVpZl9xW9NTVUSJJ0t8X3lPje0v42AwAAANBb169f/5osy/5t0UupcUKSpLLF95b4HhPfa9rfdgAAAAC602w2v6ro3xR9pjNCSJJUUfG9Jr7nfFX72xAAAADA3RkfH//bWZZ9W9EfTxodJEmqvPjeE9+D4ntR+9sSAAAAwO3duHHjb2RZ9o3NZvPTU8cGSZJmuE/H96T43tT+NgUAAADwSjdv3vxrWZb9s2az+akpw4IkSbPdp+J7VHyvan/bAgAAAIbd137t1/7lLMu+rtls/tGUIUGSpLoV36veFN+72t/GAAAAgGHTaDRem2XZG5vN5icmjQaSJPVDn4jvYfG9rP1tDQAAABh0jUbjz2dZ1ix8fNJIIElSP/bx+J4W39va3+YAAACAQXPz5s0vzbKsUfTRxDggSVLfFt/b4ntcfK9rf9sDAAAA+l2j0fji4oT/WnHy/+GpY4AkSQPWh+N7Xnzva38bBAAAAPrNiy+++EUTExOXipP8DyRO/iVJGtjie198D4zvhe1viwAAAEDdNRqNLyxO6s8UvT91wi9J0rAU3wvje2J8b2x/mwQAAADqpjhxf01xAn+s6HdTJ/iSJA1r8b0xvkfG98r2t00AAABgthUn6q8uTtjfUPSe1Am9JEn6k+J7ZXzPjO+d7W+jAAAAwEwrTsxfNTExsa84Sf/N1Am8JElKF98743tofC9tf1sFAAAAqhYn4sWJ+c7ixPydU0/WJUnS9Gt/L91p5AYAAIAK5Xl+T3ESPlachP/S5BNzSZLUdb8U32Pje2372y4AAADQCxMTEw8VJ90/nzgZlyRJPSq+18b33Pa3XwAAAKCs4kT7weJE++emnnxLkqTqan/vfbD97RgAAACYruKEemXRT3dOsiVJ0qwU34tXtr89AwAAALdSnEAvzbLsxyadVEuSpFmu/b15afvbNQAAANAxMTGxoDhp/uHJJ9KSJKl2/XB8z25/+wYAAIDhdePGjTlZlv27opcSJ9CSJKlmxffs+N4d38Pb384BAABgeFy/fv3vFyfG32PUliSpP2uP3N8T39Pb394BAABgcBUnwH+3OBH+18VJ8WemniRLkqS+7DPxvT2+x7e/3QMAAMDguHHjxt8qTny/pTgB/vSUE2JJkjQYfTq+18f3/Pa3fwAAAOhfN2/e/L+Kk903Fye7/2fKCbAkSRrA2t/z3xzHAO3DAQAAAOgfL7zwwl8tTm7/SXFy+6nJJ7ySJGlo+lQcC8QxQfvwAAAAAOqrOJF9XdE/Lk5mPznp5FaSJA1p7WOCf9xoNP5S+3ABAAAA6qM4YX1tceJ6sziB/X8nn9BKkiRF7WOEm3HM0D58AAAAgNlTnKB+WXGier04Yf1fk09gJUmSUrWPGa7HMUT7cAIAAABmzgsvvPAlxYnps0Uf6ZysSpIk3UVxDPFsHFO0Dy8AAACgOm984xv/TJZlTxR9aMoJqiRJ0l0XxxRxbBHHGO3DDQAAAOidF1988YuKE9DzRX8w+YRUkiSpR8Uxxvk45mgffgAAAEB5jUbjNVmWnSr6n1NOQCVJknpeHHPEsUccg7QPRwAAAGD63vzmN39BcWJ5pDjJfO/Uk05JkqSqK45DfieOReKYpH14AgAAALfWaDRePTExcaA4qXz31JNMSZKkWejdcWwSxyjtwxUAAAB4WXHC+Krx8fG9WZb9euKkUpIkaVaLY5Q4VoljlvbhCwAAAMMsz/N7ipPFR4qTxl+ZehIpSZJUw34ljl3iGKZ9OAMAAMAwiRPCiYmJrcXJ4f9InDRKkiTVujiGiWMZIzcAAMAQKU4GNxYnhe+YepIoSZLUh70jjm3ahzkAAAAMovHx8bXFCeDPTjkhlCRJGoTiGOeB9mEPAAAAg6A40VueZdl/mnTyJ0mSNJC1j3mWtw+DAAAA6EfFyd2iov849aRPkiRp0ItjoDgWah8WAQAA0A9u3Lgxrzip+6GpJ3mSJElD2A/FsVH7MAkAAIA6un79+tdkWfb9RS8lTuwkSZKGsjg2imOkOFZqHzYBAABQB8WJ2t8rTti+uzh5+8zUkzlJkiR9ts/EMVMcO7UPowAAAJgNxYnZVxYnaN8WJ2pTTtwkSZJ062Lk/rY4lmofVgEAADATbty48TeKE7JvKk7MPj3lRE2SJEnT79NxTBXHVu3DLAAAAKpw8+bNv1acgP2L4kTsU1NOzCRJklS+T8UxVhxrtQ+7AAAA6IXiZOuvFCddbyr+839PORGTJElSj2ofa8Ux119pH4YBAABQRnFy9ReLk6t/WPTJySdekiRJqq449opjsOL//ovtwzIAAACmo9Fo/PnihOpGcUL18cknWpIkSZrR4lhsIo7N2odpAAAApNy8efNLixOo54o+1j6hkiRJ0uwXx2bPxbFa+7ANAACA0Gg0vjjLsqeK/nDKiZQkSZJqUhyrxTFbHLu1D+MAAACGU3Fi9KeLE6TLxcnSB6eePEmSJKm2fTCO4eJYrn1YBwAAMByKE6EvLE6KzhYnRe+fcqIkSZKkPql9LHc2ju3ah3kAAACDqTjxeU1xAnS86H2dkyJJkiT1fXFsdzyO9dqHfQAAAIOhONF5dZZlh4qTnt+edBIkSZKkwSqO9Q7GsV/7MBAAAKA/veUtb/n8LMv2Fyc5vzXppEeSJEmD3W/FMWAcC7YPCwEAAPpDo9F4VXFSs7s4qXnnlBMdSZIkDUntY8HdcWzYPkwEAACopzzP7ylOYLYXJzK/PPnERpIkScNb+9hwexwrtg8bAQAA6mNiYuKh4sTlv089mZEkSZKiOFaMY8b24SMAAMDsKk5S1hcnK/916smLJEmSdIv+axxDtg8nAQAAZlZxUrK66KcnnaRIkiRJd1McS65uH14CAABUqzgBWZpl2Y9POimRJEmSuuntRUvbh5sAAAC9NTExsaA46XjbpJMQSZIkqZe9LY4524efAAAA3blx48ZIcaLxg1NOPCRJkqSq+sE4Bm0fjgIAANyd4qTiHxR9b5ZlL0060ZAkSZIqr30M+r1F/6B9eAoAAHB7169f/7vFScR3Fn0mTiwkSZKkWSyOSb8zjlHbh6sAAACvdOPGjb9VnDh8a5ZlfzzpZEKSJEma9drHqN8ax6ztw1cAAGDYjY+Pf0VxovANRZ/unDxIkiRJNe3TWZb9yziGbR/OAgAAw6Y4Kfjy4uTgnxZ9atLJgiRJktQPxTHsP41j2vbhLQAAMOiKk4DXFScBX1f0yUknB5IkSVLfFce0cWxb/N+vax/uAgAAg6bRaLy2OPB/oTjw/8TkEwJJkiRpAPpEHOvGMW/78BcAAOh3N27c+HPFwX5W9PFJB/+SJEnSIPbxLMvG4xi4fTgMAAD0m0aj8WeLA/tGcYD/kSkH/JIkSdKg95E4Fo5j4vbhMQAAUHfFAfwXFwfzV4uD+Q9NOcCXJEmShqr2MfHVOEZuHy4DAAB18+KLL37R+Pj4heIA/gNTD+olSZKkIe8P4lg5jpnbh88AAMBse9Ob3vSnioP100W/N+ngXZIkSdLnFsfMp+MYun04DQAAzLRGo/Ga4sD8aNF72wfqkiRJkqZXHEMfjWPq9uE1AABQteIA/NUTExOvLw7G3z3p4FySJEnS3ffuOLaOY+z24TYAANBrxQH3q4qD78eKfmPSwbgkSZKkLsuy7NeL/3wsjrnbh98AAEC34gC7ONh+pDjY/tXJB+CSJEmSet6vxrG3kRsAALqQ5/k9xcH1tuLg+henHHBLkiRJqrA4Bi8ajWPy9uE5AAAwHcWB9ObioPodUw+yJUmSJM1o74hj8/ZhOgAAcCvj4+Nri4Pn/5w4qJYkSZI0S8Uxehyrtw/bAQCAjuJAeUVxwPxTqQNpSZIkSfUojtnj2L19GA8AAMOrODBeUhwk/+jUg2ZJkiRJte5HJyYmFrcP6wEAYHhkWTa/6N8nDpIlSZIk9UlxTB/H9u3DfAAAGFzFAfC9RT9QHAC/NPmgWJIkSVJ/1j62/4Gie9uH/QAAMDiKA92vLnqLUVuSJEka2D5T9Jair26fBgAAQP+amJj4O1mWfXv7QDd1ACxJkiRpsPpMnAPEuUD7tAAAAPrH+Pj43ywOar+56NOTDnIlSZIkDU9xLvDNcW7QPk0AAID6Kg5c/3pxAPvmok+1D2glSZIkDXdxbvDmOFdonzYAAEB9vPDCC381y7Kvbx+4pg5oJUmSJA1xxfnC/45zhjh3aJ9GAADA7Gk0Gn+pOFB9sThI/eTUg1dJkiRJmlr73OHFOJdon1YAAMDMmZiY+AvFAenNoo93DlIlSZIk6S6Kc4mbcW7RPs0AAIDqNBqNL8uy7PniIPRjkw5KJUmSJKlsH4tzjDjXaJ92AABA77zwwgtfUhx0Pl30kUkHoZIkSZLUk7Is+8PiP5+Oc4/2aQgAAJT3xje+8c8UB5hXij7YOeiUJEmSpAqLc48rcS7SPi0BAIDpe/HFF78oy7JzRb8/5UBTkiRJkiqvfS5yNs5N2qcpAABwa41G4zXFAeTJovd1DiolSZIkaRaLc5OTca7SPm0BAICXvfnNb/6C4oDxcNFvtw8gJUmSJKlOxbnK4Th3aZ/GAAAwzBqNxquzLNtf9K4pB46SJEmSVLvi3CXOYeJcpn1aAwDAMCkOBF9VHBg+WvRrkw8UJUmSJKlP+rXx8fE9cW7TPs0BAGCQ5Xl+T3EQ+HCWZb885cBQkiRJkvqu9rnNw3Gu0z7tAQBgkMSBXnHQt6U46PuFyQeCkiRJkjQg/UKc87RPgQAAGAQTExMbioO8/5Y4+JMkSZKkgSrOfeIcqH06BABAPxofH19THNj9TOqAT5IkSZIGuTgXinOi9ukRAAD9oDiAW1YczP3E1IM7SZIkSRrCfiLOkdqnSwAA1NHExMT9WZb9h8TBnCRJkiQNdXGuVLSwffoEAEAdFAdo9xW9NXUAJ0mSJEl6uTh3inOo9ukUAACz4fr1619THJT926KXUgdtkiRJkqTPLc6h4lwqzqnap1cAAMyE4mDsq4r+TdFnOgdnkiRJkqS77jNZln1X8Z9f1T7dAgCgCuPj43+7OPD6tqI/nnJAJkmSJEkqWZxjxblWnHO1T78AAOiFGzdu/I3iQOsbi4OuT089CJMkSZIk9axPx7lXnIO1T8cAACjj5s2bf604sPpnxQHWp6YccEmSJEmSqutTcS4W52Tt0zMAAKbja7/2a/9ycTD1pqI/mnRwJUmSJEma2f4oy7Kvi3O09ukaAAApjUbjtcWB0xuLA6hPTDmgkiRJkiTNXp+Ic7U4Z2ufvgEAEIoDpD9fHCgVx0vNj086eJIkSZIk1auPx7nbjRs3/lz7dA4AYDjdvHnzS4sDo0bRRxMHTZIkSZKkGhbncHEuF+d07dM7AIDh0Gg0vrg4IHqy6MOTD5AkSZIkSX3Vh7MsuxbneO3TPQCAwfTiiy9+0cTExKXi4OcDiYMiSZIkSVIfFud4ca4X53zt0z8AgMHQaDS+sDjYOVP0/tSBkCRJkiSp/4tzvjj3e9Ob3vSn2qeDAAD9qdFovKY4sDlW9LupAx9JkiRJ0uAV54BxLhjnhO3TQwCA/lAcwLy6OJB5Q9F7Ugc6kiRJkqTBL84J49wwzhHbp4sAAPVUHLC8amJiYl9x8PKbqQMbSZIkSdJQ9htxrhjnjO3TRwCAeogDlPHx8V1Zlr0zcRAjSZIkSVK8kjvOGXcauQGAWZfn+T3FwclYcXDyS5MPWCRJkiRJuk2/FOeScU7ZPr38vIceeui1Rc+2/ysAQHUmJiYeKg5Gfj5xkCJJkiRJ0h2Lc8pr167tfuihh5qbN2/+ePGfH22fcgIA9F5xAPJgcQDyc1MPSiRJkiRJmm7Xr1/Pjx8/no+OjuYPPfRQJ+M2ANB7xcHHyqKfnnwwIkmSJEnS3RSj9okTJ/Jt27ZNHrVbbd269dPtU1AAgO4VBx9Lsyz7sakHJJIkSZIkTbfx8fH85MmT+djY2OeM2p3iVdztU1EAgPImJiYWFAcgPzz1gESSJEmSpOkWo/apU6duO2p3Mm4DAF05duzYP3/uuefelmXZS6kDE0mSJEmS7lRxTpmfOXMm3759e3LITmXcBgBKKw5ADh46dCiPLl682PoJ+9QDFEmSJEmSblWM2mfPns137NiRHLBvl3EbAOjK61//+o+/4Q1vyKMYuS9dumTkliRJkiTdsXPnzuUPP/xwcrieTsZtAKArr3/96z/aGbeN3JIkSZKkO3XhwoX8kUceSQ7Wd5NxGwDoSmrc7nT48OH88uXLrV8zSx3QSJIkSZKGp7ic5c6dO5NDdZmM2wBAV243bneKkfvKlStGbkmSJEkawuI3e3ft2pUcqLtp69atf9w+NQUAuHvTGbc7HTlyJH/iiSeM3JIkSZI0BMWLnPbs2ZMcpnvUR9unpgAAd+9uxu1OMXJfvXrVyC1JkiRJA1i8qKniUbuTcRsAKK/MuN3p6NGjrZE7dTAkSZIkSeqv4vxu7969qRG6qozbAEB53YzbnWLkvnbtWvLgSJIkSZJU7+J87rHHHkuNz1Vn3AYAyuvFuN3p2LFj+ZNPPpk8WJIkSZIk1as4f9u3b19qdJ6pjNsAQHm9HLc7HT9+PH/qqaeSB0+SJEmSpNktztcOHDiQGptnOuM2AFBeFeN2pxMnTuRPP/108mBKkiRJkjSzPfPMM/njjz+eGplnK+M2AFBeleN2JyO3JEmSJM1eMWoX5375li1bUgPzbGbcBgDKm4lxu9PJkydbB1Wpgy1JkiRJUm979tln84MHD9Zx1O5k3AYAypvJcbvTqVOnWgdZqYMvSZIkSVJ3NRqN/NChQ3UetTsZtwGA8mZj3O50+vTp1kFX6mBMkiRJknR3Pffcc/nhw4fzrVu3pobkOmbcBgDKm81xu9OZM2eM3JIkSZJUsueffz4/evRoP43anYzbAEB5dRi3O8XIHa80SB2sSZIkSZJeWYzax44dy0dHR1PDcT9k3AYAyqvTuB3Fm52cPXvWyC1JkiRJt+j69ev58ePH823btqUG437KuA0AlFe3cbtTjNznzp1rvRIhdTAnSZIkScPW+Ph4fuLEiUEYtTsZtwGA8uo6bneKkfv8+fNGbkmSJElDW4zap06dysfGxlIDcT9n3AYAyqv7uN2pM3LHr9+lDvYkSZIkadDKsiw/ffp0vn379tQwPAgZtwGA8vpl3O506NCh/MKFC0ZuSZIkSQNbjNrxhvs7duxIDcKDlHEbACiv38btTjFyX7x4sfXreamDQUmSJEnqt2LUjvceGoJRu5NxGwAor1/H7U4xcl+6dMnILUmSJKmvi8swPvzww6kBeJAzbgMA5fX7uN3p8OHD+eXLl43ckiRJkvqquOzizp07U8PvMGTcBgDKG5Rxu1Nn5I5f50sdOEqSJElSHYrfQN21a1dq8B2mjNsAQHmDNm53OnLkSH7lyhUjtyRJkqRaFS/G2b17d2roHcaM2wBAeYM6bneKkfuJJ54wckuSJEma1eLFN3v27EkNvMOccRsAKG/Qx+1OR48eza9evWrkliRJkjSjxYttHn300dSwK+M2ANCNYRm3O8XIfe3ateRBpyRJkiT1qnhxzd69e1ODrl7OuA0AlDds43anY8eOGbklSZIk9bwnn3wy37dvX2rI1edm3AYAyhvWcbtTjNxx8Jk6KJUkSZKk6fbUU0/l+/fvTw24unXGbQCgvGEftzsdP368dTCaOkiVJEmSpFv19NNP5wcOHEgNt7pzxm0AoDzj9is7ceJE6+A0ddAqSZIkSZ2eeeaZvDifSg22mn7GbQCgPON2upMnT7YOVlMHsZIkSZKGt2effbZ1zrBly5bUWKu7y7gNAJRn3L59Rm5JkiRJUaPRyA8ePGjU7m3GbQCgPOP29Dp16lTrFRqpg1xJkiRJg9tzzz2XHz58ON+6dWtqnFV3GbcBgPKM23fX6dOnW6/YSB30SpIkSRqcYtQ+cuSIUbvajNsAQHnG7XKdOXPGyC1JkiQNYM8//3x+9OjRfHR0NDXGqrcZtwGA8ozb3XX27NnWKzpSB8WSJEmS+qfr16/nx44dM2rPbMZtAKA843b3xZvKxMgdr/BIHSRLkiRJqm8xap84cSLftm1banxVtRm3AYDyjNu9K0buc+fOGbklSZKkPmh8fDw/efKkUXt2M24DAOUZt3tfjNznz59vvQIkdRAtSZIkafaKUfvUqVP52NhYamzVzGbcBgDKM25XV4zcFy5cMHJLkiRJNSjLstYbw2/fvj01smp2Mm4DAOUZt6vv0KFD+cWLF1uvEEkdZEuSJEmqrhi14z1yduzYkRpXNbsZtwGA8ozbM5eRW5IkSZq5YtSO98R5+OGHU6Oq6pFxGwAoz7g988XIfenSJSO3JEmSVFHxHjiPPPJIakxVvTJuAwDlGbdnr8OHD+eXL19uvaIkdUAuSZIk6e6K35TcuXNnakRVPTNuAwDlGbdnvxi5r1y5YuSWJEmSSha/Gblr167UeKp6Z9wGAMozbtenI0eO5E888YSRW5IkSZpm8ZuQu3fvTo2m6o+M2wBAecbt+mXkliRJkm5f/Objnj17UmOp+ivjNgBQnnG7vh09ejS/evVq8mBekiRJGsbi+Hjv3r2pkVT9mXEbACjPuF3/YuS+du1a8uBekiRJGobiePixxx5LjaPq74zbAEB5xu3+6dixY/mTTz6ZPNiXJEmSBrE4/t23b19qFNVgZNwGAMozbvdfx48fz5966qnkwb8kSZI0CMXx7oEDB1JjqAYr4zYAUJ5xu38zckuSJGnQevrpp/PHH388NYJqMDNuAwDlGbf7vxMnTrROAlInB5IkSVI/9Mwzz+TFuUm+ZcuW1ACqwc24DQCUZ9wenE6ePNk6KUidLEiSJEl17Nlnn80PHjxo1B7ejNsAQHnG7cHr1KlTrZOE1MmDJEmSVIcajUZ+6NAho7aM2wBAecbtwe306dNGbkmSJNWq5557Lj98+HC+devW1NCp4cu4DQCUZ9we/GLkjlfGpE4uJEmSpJno+eefz48cOWLU1tSM2wBAecbt4enMmTOtV8qkTjYkSZKkKopR+9ixY/no6Ghq2JSM2wBAecbt4evs2bNGbkmSJFXa9evX8+PHj+fbtm1LDZpSJ+M2AFCecXs4i3ekP3fuXOuVNKmTEUmSJKlMMWqfOHHCqK3pZtwGAMozbg93MXKfP3/eyC1JkqSuGh8fz0+dOpWPjY2lBkzpVhm3AYDyjNuKOiN3vNImdbIiSZIkpYpRO97AfPv27anhUrpTxm0AoDzjtiYXI/eFCxeM3JIkSbptWZa13rDcqK0uM24DAOUZt5Xq0KFD+cWLF1uvxEmdzEiSJGk4i1E73qB8x44dqaFSutuM2wBAecZt3a4YuS9dumTkliRJUusNyR9++OHUQCmVzbgNAJRn3NZ0Onz4cH758mUjtyRJ0hAWl6175JFHUsOk1G3GbQCgPOO27qbOyB2/jpo68ZEkSdLgFJep27lzZ2qQlHqVcRsAKM+4rTLFyH3lyhUjtyRJ0gAWl6XbvXt3aoiUep1xGwAoz7itbjpy5Ej+xBNPGLklSZIGoHjxwp49e1IDpFRVxm0AoDzjtnrR0aNH86tXrxq5JUmS+rB4scKjjz6aGh6lqjNuAwDlGbfVyzojd+qkSZIkSfUqjtv27t2bGhylmcq4DQCUZ9xWFR07diy/du1a8iRKkiRJs1scp+3bty81NEoznXEbACjPuK0qi5H7ySefTJ5USZIkaWZ76qmn8v3796cGRmm2Mm4DAOUZtzUTHT9+vHUylTrJkiRJUrU9/fTT+YEDB1LDojTbGbcBgPKM25rJTpw40Tq5Sp10SZIkqbc988wzeXG8nxoUpbpk3AYAyjNuazYyckuSJFXXs88+2zrm2rJlS2pMlOqUcRsAKM+4rdns5MmTrVcUpU7KJEmSdHc1Go384MGDRm31U8ZtAKA847bq0KlTp1qvMEqdpEmSJOn2xah96NChfOvWranxUKpzxm0AoDzjturU6dOnWydnqZM2SZIkvbLnnnsuP3z4sFFb/ZxxGwAoz7itOnbmzBkjtyRJ0i16/vnn86NHj+ajo6OpsVDqp4zbAEB5xm3VubNnz7ZekZQ6qZMkSRq2YtQ+duyYUVuDlHEbACjPuK26F2+KZOSWJEnD3PXr1/Pjx4/n27ZtS42DUj9n3AYAyjNuq1+KkfvcuXOtVyylTvokSZIGrfHx8fzkyZNGbQ1yxm0AoDzjtvqtGLnPnz9v5JYkSQNbjNqnTp3Kx8bGUmOgNEgZtwGA8ozb6tdi5L5w4ULr13RTJ4WSJEn9VpZl+enTp/Pt27enRkBpEDNuAwDlGbfV7x06dMjILUmS+roYtc+cOZPv2LEjNf5Jg5xxGwAoz7itQSlG7osXL7Z+jTd10ihJklS3YtSO9xR5+OGHU6OfNAwZtwGA8gZ13N69e3e+a9euvPj7Jf93DW4xcl+6dMnILUmSal28h8gjjzySGvukYcq4DQCUN6jjdrz65cEHH8w3btxo5B7SDh8+nF++fNnILUmSalVcTm3nzp2pkU8axozbAEB5gz5udzJyD28xcl+5cqX1a7+pE0xJkqSZKH6zLI5HE+OeNMwZtwGA8oZl3J48cscrZYzcw9eRI0eM3JIkacaL3ySLS+YlRj1Jxm0AoBvDNm53MnIPbzFyP/HEE0ZuSZJUafFD9T179qTGPEkvZ9wGAMob1nG704YNG4zcQ9rRo0fzq1evGrklSVJPi+OLvXv3pkY8SZ+bcRsAKG/Yx+1ORu7hLUbua9euJU9OJUmSplscTzz22GOp8U7SrTNuAwDlGbdfWWfkjv989NFHkx9bg9mxY8eM3JIk6a578skn83379qVGO0l3zrgNAJRn3E43Z86cfNGiRUbuIez48eOtk9TUyaskSVKnp556Kt+/f39qrJM0/YzbAEB5xu10X/M1X9OqNXLff7+RewiLkTtOWlMns5IkaXh7+umn88cffzw10km6+4zbAEB5xu10nXHbyK0TJ060TmJTJ7eSJGl4euaZZ1rvz7Jly5bUQCepXMZtAKA843a6qeN2JyP38Hby5MnWSW3qZFeSJA1uzz77bOtYwKgtVZJxGwAoz7idLjVsT87IPbydOnWqdZKbOvmVJEmDU6PRyA8ePGjUlqrNuA0AlGfcTpcatFN1Ru6NGzcauYcsI7ckSYPZc889lx8+fDjfunVraoiT1NuM2wBAecbtdKkh+3YZuYe306dPt17ZlTo5liRJ/dPzzz+fHzlyxKgtzWzGbQCgPON2utSAPZ2M3MPbmTNnWq/0Sp0sS5Kk+haj9tGjR/PR0dHU8Cap2ozbAEB5xu10qeH6bpo8cu/duzd5GzWYnT171sgtSVIfdP369fz48eNGbWl2M24DAOUZt9OlBusy3XvvvUbuISzefOrcuXOtV4KlTqYlSdLsFaP2iRMn8m3btqWGNkkzm3EbACjPuJ0uNVR3U4zc9xu5hy4jtyRJ9Wl8fDw/efJkPjY2lhrYJM1Oxm0AoDzjdrrUQN2LjNzDWYzc58+fb71SLHWyLUmSqitG7VOnThm1pXpm3AYAyjNup0sN073MyD2cxch94cIFI7ckSTNQlmWtN3zevn17alCTVI+M2wBAecbtdKlBuoqM3MPZoUOH8osXL7ZeSZY6GZckSeWLUTve4HnHjh2pIU1SvTJuAwDlGbfTpYboKjNyD2cxcl+6dMnILUlSj4r3uojjwMSAJqmeGbcBgPKM2+lSA/RMZOQezozckiR1V1z265FHHkkNZ5LqnXEbACjPuJ0uNTzPZEbu4ezw4cP55cuXW79OnTpxlyRJrywu87Vz587UYCapPzJuAwDlGbfTpQbn2cjIPZzFyH3lyhUjtyRJtyh+42nXrl2poUxSf2XcBgDKM26nSw3Ns5mRezg7cuRI/sQTTxi5JUlqFz/83bNnT2ogk9SfGbcBgPKM2+lSA3MdmjxyP/bYY8m/uwavGLmvXr1q5JYkDW3xw16jtjSQGbcBgPKM2+lSw3KdMnIPZ0ePHm2N3KmTfkmSBrH4vhe/tZYYxCQNRsZtAKA843a61KBcx+4tMnIPXzFyX7t2LTkCSJI0CMX3uTi2SQxhkgYr4zYAUJ5xO11qSK5zRu7h7NixY/mTTz6ZHAUkSerH4vvavn37UgOYpMHMuA0AlGfcTjdnzpzkiFz3jNzD2fHjx/OnnnoqORJIktQPxfexAwcOpIYvSYOdcRsAKM+4nW79unWt7rvvvuSIXPeM3MPZiRMn8qeffjo5GkiSVMeeeeaZ/PHHH08NXpKGI+M2AFCecTvdhvXr852PPJI/UnycdcV/7+eRe+HChfmmTZuM3EOUkVuSVPdi1C6OQ/MtW7akxi5Jw5NxGwAoz7idrjNud4qRe+3atfnIyEhyRK57nZHbK7mHq5MnT7bGg9SoIEnSbPTss8/mBw8eNGpL6mTcBgDKM26nmzpud3p4x478gTVr8rlz5yZH5Lpn5B7OTp061RoTUiODJEkzUaPRyA8dOmTUljQ14zYAUJ5xO92txu1OMXKvWb3ayK2+6vTp061xITU6SJJURc8991x++PDhfOvWralRS5KM2wBAecbtdHcatzvt2L49X71qVT5nzpzkiFz3jNzD2ZkzZ4zckqRKe/755/OjR48atSXdKeM2AFCecTvddMftTjFyr1y5Mr/33nuTI3Ld88aTw1mM3PGKutQoIUlSmWLUPnbsWD46OpoasSRpasZtAKA843a6ux23O20fG8tXrFgxECP3vn37kp9bDVbxpl5nz541ckuSuur69ev58ePH823btqXGK0m6VcZtAKA843a6suN2p7HixG75smVGbvVNMXKfO3eu9Yq71GghSVKq8fHx/MSJE0ZtSWUzbgMA5Rm303U7bnfaNjqaL126NDkg90Mxci9YsMDIPUTFyH3+/HkjtyTptsWoferUqXxsbCw1VknSdDNuAwDlGbfT9Wrc7jS6dWu+ZMmS5IDcDxm5h6/OyB2/Zp4aNSRJw1mWZfnp06fz7du3p0YqSbrbjNsAQHnG7XS9Hrc7bd2yJV+8eHFyQO6HjNzD16FDh/ILFy4YuSVpyItRO96IeMeOHalxSpLKZtwGAMozbqeratzutKU4kFu0aFFyQO6HjNzDV4zcFy9ebP0aemr0kCQNZjFqx3syGLUlVZRxGwAoz7idrupxu9NDmze33rgxNSD3Q0bu4StG7kuXLhm5JWkIistTxTFVYoySpF5l3AYAyjNup5upcbtTjMMxEqcG5H7osyP3xo1G7iHp8OHD+eXLl43ckjSAxeWodu7cmRqhJKnXGbcBgPKM2+nuNG7v2L49+f/vto0bNuTz589PDsj9kJF7+IqR+8qVK61fW08NJJKk/il+M2fXrl2p8UmSqsq4DQCUZ9xOd6dxO0bo9evW5WPbtiX/926LP3/evHnJAbkfMnIPX0eOHDFyS1KfFr+Js3v37tToJElVZ9wGAMozbqebzrj9wJo1reKf3T42lvznuumR4u8QA/p9992XHJD7ISP38BUj9xNPPGHklqQ+KH4ouWfPntTYJEkzlXEbACjPuJ3ubsbtTvH/q2rkjts0MjKSHJD7IW88OXwdPXo0v3r1qpFbkmpY/BDy0UcfTY1MkjTTGbcBgPKM2+nKjNud4n+r4prcMXKvfeCBfGTu3OSA3C91Ru79+/cn7zsNVjFyX7t2LTmuSJJmtvih4969e1PjkiTNVsZtAKA843a6bsbtTnEpjipG7od37Gh9/LlGbvVRx44dM3JL0iz15JNPtn5zKjEqSdJsZ9wGAMozbqfrxbjdafOmTa1BOvVxuik+5urVq/M5c+Ykx+N+ycg9XMXIHSNLanyRJPW2p556qvX9NTEmSVJdMm4DAOUZt9P1ctyO4nIiVY3c8erwVatWGbnVVx0/frw1uqTGGElSdz399NP5gQMHUiOSJNUt4zYAUJ5xO12vx+1OMXI/tHlz6/rZqY/bTfFmlitXrMjvvffe5HjcL8XIHT8IMHIPRydOnGiNMKlxRpJ0dz3zzDN5cWyXGo8kqa4ZtwGA8ozb6aoatzvFyL2lOJirYuQeGxvLVyxf3vcj9/z5843cQ9TJkydbo0xqrJEk3b5nn3229Vy6ZcuW1HAkSXXOuA0AlGfcTlf1uN2p0pF727Z82bJlAzFyu1zJ8GTklqTp12g08oMHDxq1JfVzxm0AoDzjdrqZGrc7Pbh2bb61ODFN/Vndtm10NF+6dGlyOO6njNzD1alTp1qvREyNOZI07D333HP54cOH861bt6aGIknqp4zbAEB5xu10Mz1ud4qRe7Q4UU39md0WH3fJ4sXJ4bifMnIPV6dPn269MjE17kjSsBWj9pEjR4zakgYp4zYAUJ5xO91sjdud1hW3oaqRO351edGiRcnhuJ8ycg9XZ86caY06qbFHkga9559/Pj969Gg+OjqaGoYkqZ8zbgMA5Rm30832uN0pRu64rEjqNnRbHEzef//9yeG4nzJyD1dnz541cksamq5fv54fO3bMqC1pkDNuAwDlGbfT1WXc7rR+3brWG0Smbku3bd60KV+4cGFyOO6nFhi5h6Z487QYueOVjKkxSJL6vRi1T5w4kW8rvvcnhiBJGqSM2wBAecbtdHUbtztVOXJv2rgxX7BgQXI47qe8knt4ipH73LlzRm5JA9P4+Hh+8uRJo7akYcq4DQCUZ9xOV9dxu1Pcvu1jY8nb1m0bir9bDMSp4bifMnIPTzFynz9/vvVKx9RYJEl1L0btU6dO5WPF9/bE8CNJg5xxGwAoz7idru7jdqe4HVWN3OuLz8G8efOSw3E/FSP35s2bjdxDUIzcFy5cMHJL6puyLGu9Ye727dtTg48kDUPGbQCgPON2un4ZtzvF7dlRnBinbms3PVJ8HuNNLe+7777kcNxPeSX38HTo0KH84sWLrVdCpsYkSZrtYtSO9w7YsWNHauiRpGHKuA0AlGfcTtdv43anuG72w8WJcuo2d1OM3A+uXZuPjIwkh+N+ysg9PBm5JdWtGLXjvQLiOCUx8EjSMGbcBgDKM26n69dxu9PmTZsqG7nXPvBAPnfu3ORw3E91Ru4DBw4kH0ManGLkvnTpkpFb0qwW7w3wSPG9NDHsSNIwZ9wGAMozbqfr93E7ihG6qpE7Puaa4s8wcqufOnz4cH758uXWKydTw5MkVVH8BsnOnTtTg44kybgNAHTDuJ1uEMbtTjFyP7R5c+tV16m/SzfFdb5Xr1qVz5kzJzkc91NG7uEpRu4rV64YuSVVWvzGyK5du1JDjiTp5YzbAEB5xu10gzRud4qRe0txAFnVyL1q5cr83nvvTQ7H/dS8efOM3EPSkSNH8ieeeMLILamnxW+I7N69OzXgSJI+N+M2AFCecTvdII7bnaocubePjeUrV6wwcquvMnJL6kXxGyF79uxJDTeSpFtn3AYAyjNupxvkcbvTg2vX5lu3bEn+/bptbNu2fPny5QMzcm/evNnIPQQdPXo0v3r1anK0kqRbFc8be/fuTQ02kqQ7Z9wGAMozbqcbhnG7U4zco1u3Jv+e3bZt27Z82bJlydG43/JK7uEpRu5r164lRyxJ6hTPE4899lhqqJEkTT/jNgBQnnE73TCN253WFX/vqkbu0dHRfOmSJcnRuN/yxpPD07Fjx/Inn3wyOWpJGt7ieWHfvn2pgUaSdPcZtwGA8ozb6YZx3O4UI/e20dHk37vbtm7dmi9evDg5GvdbRu7h6fjx4/lTTz2VHLkkDU/xPBDP+YlhRpJUPuM2AFCecTvdMI/bndavW9e6dnbq799tW7ZsyRctWpQcjfstI/fwZOSWhrOnn346f/zxx1ODjCSp+4zbAEB5xu10xu2Xq3Lkfmjz5vz+++9Pjsb9lmtyD08nTpxojV2pEUzS4PTMM8/kxXFS6weyiTFGktSbjNsAQHnG7XTG7c8tPifbx8aSn49u27xpU75wwYLkaNxvGbmHp5MnT7bGr9QoJql/e/bZZ/ODBw8atSVpZjJuAwDlGbfTGbdvXfzdqxq5N27c2LrMR2o07rdi5I7R3sg9+J06dao1hqVGMkn9U6PRyA8dOmTUlqSZzbgNAJRn3E5n3L5z8TnYsX178vPTbRuKjx3jcGo07re8knt4On36tJFb6sOee+65/PDhw603PU6MLpKkajNuAwDlGbfTGben36aNG/OHd+xIfp66La73fd999yVH437LyD08xcgdrwBNjWiS6tPzzz+fHzlyxKgtSbObcRsAKM+4nc64fffFJTiqGLkfKe7LdcV9Mmgj9+OPP5587GpwOnPmTOsVoalRTdLsFaP2sWPH8tHR0dTIIkma2YzbAEB5xu10xu1yrX3ggUpH7rVr1+YjIyPJ0bjfMnIPR/GmdGfPnjVySzXo+vXr+fHjx/Nt27alxhVJ0uxk3AYAyjNupzNud1eM3A9t3twapFOfv26K4Tz+jLlz5yZH437LyD0cxch97ty51itGU6ObpOqKUfvEiRNGbUmqZ8ZtAKA843a62Ry3O9ew3rplS2skTv0z/VLc/i3FQWtVI/ea1asHZuSOy64YuQe/GLnPnz9v5JZmoPHx8fzUqVP52NhYakyRJNUj4zYAUJ5xO91sjtv79+3Lf/HnFub//J9czA8fOpSPbt2aP7h2bfKf7ZeqHLl3bN+er161Kp8zZ05yNO63jNzDUWfkjleUpkY5SeWLUTve2HV78f0hMaJIkuqVcRsAKM+4nW42x+1zZ8/m+cc+L3/po5+fv+dXl+Xf8OYL+ZEjR/Jto6N9P3LH7Y9XpKc+p90WI/fKlSvze++9Nzka91tG7uHo0KFD+YULF4zcUg/Ksqz1Rq5GbUnqq4zbAEB5xu10szluX7p0qTVud3rpo/fk7/21+/Nv+Vfn82NHj+Zj27bl64rbmPp3+6UYueMV6anPbbdtHxvLV6xYMVAj98aNG43cA16M3BcvXmy94jQ12km6dTFqxxu37tixIzWaSJLqnXEbACjPuJ2uTuP2y92Tv+835uX/+tvO5ieOH2+9Mq3fR+64/VWN3PFDgOXLlnklt/qqGLnjOcDILU2veKPW+J6fGEskSf2RcRsAKM+4na6e4/bL/f67/kH+Pd91qvVGWXE5jvXr1iU/Vr8UI3dcdiX1ue62+LhLly5NDsb9mJF7ODp8+HB++fJlI7d0i+JyPo8Uz/GJkUSS1F8ZtwGA8ozb6eo+bnf6wHu+Kv9333s8P3P6dOvNGvt95I7bH6+4Tn3Ouy1eIb5kyZLkYNyPzZs3z8g9BHVG7rjsQmrgk4atuHzPzp07U+OIJKk/M24DAOUZt9P1y7jd6UO/87fzf/8DR/NzZ88Yue9QvKHl4sWLk4NxP2bkHo5i5L5y5YqRW0NbfG/cvXt3ahSRJPV3xm0AoDzjdrp+G7c7feR3vyL/t/9mX2vgTn3sfivuh3iDyNR90G1bioPpRYsWJQfjfszlSoajI0eO5E888YSRW0NT/FBnz549qTFEkjQYGbcBgPKM2+n6ddyOPvK+v54fOXw4+bH7tfh8x7XFU/dFtz20eXO+cOHC5GDcjxm5h6OjR4/mV69eNXJrYIsf4jz66KOpEUSSNFgZtwGA8ozb6fp93I43mkx97H6vypE7BuEFCxYkB+N+zMg9HHVG7tQ4KPVj8Xjeu3dvavyQJA1mxm0AoDzjdjrjdr3btHFj/vCOHcn7ptvivp0/f35yMO7HYuTeWHy+jNyD3bFjx/Jr164lx0KpH4rH7759+1KjhyRpsDNuAwDlGbfTGbf7o82bNlU2csdjIN6sMTUY92OtV3IbuQe+GLmffPLJ5Hgo1bGnnnoq379/f2rskCQNR8ZtAKA843Y643b/tPaBByobueONOdevW9cahlODcT9m5B6Ojh8/3hoNU2OiVIeefvrp/MCBA6mRQ5I0XBm3AYDyjNvpjNv9V4zc8eaQMUin7rNuio8Zj4uRkZHkYNyPuSb3cHTixInWiJgaF6XZ6JlnnsmLY4/UuCFJGs6M2wBAecbtdMbt/i1G7i3FgXJVI3d8/JG5c5ODcT9m5B6OTp48aeTWrPbss8+2Ru0tW7akhg1J0vBm3AYAyjNup5vNcfvM6dPJ0Xq6Dfu43anKkTsugRJ/xtwBGrnj+uJG7sEvRu545WxqfJSqqNFo5AcPHjRqS5JulXEbACjPuJ3uTuP22LZt+brin5s6qPaivY8+mv/Mj2/PP/mBL0uO13fKuP3KHly7Nt+6ZUvyfuy2GLlXr16dz5kzJzkY92NeyT0cxXNEvJI2NUZKvShG7UOHDuVbt25NDRmSJHUybgMA5Rm3091p3O40Wpy093rkjj/70T178qeeupj/l598LP/E7782OWLfKuN2uhi54/5K3Y/dtmP79nzVqlUDN3Jv9MaTA9/p06dbI2RqnJTK9Nxzz+WHDx82akuSpptxGwAoz7idbrrjdqd4ZXCMp6lRtWxx6ZM9u3fnV584n//U2x/P/9fv/eXkmD014/btix9GVDVybx8by1euWJHfe++9ycG4H+uM3HGt3NTXmgajM2fOGLnVVc8//3x+9OjRfHR0NDVcSJJ0q4zbAEB5xu10dztuR3Ft5ypG7rgtu3ftyi9fPJ+//W0H84++768lR+1Oxu3pFSP3ttHR5H3ZbWNjY/mK5cuN3Oq7zp4923rlbWq8lFLFqH3s2DGjtiSpbMZtAKA843a6MuN2pxi5440M4w0NU6Nq2davW9f6+BfOn83f9tYj+R/+7t8wbveg+LzGNdSn3o+9KD7usmXLBm7kjmtyG7kHt3jzPyO37tT169fz48eP59uK57nEUCFJ0nQzbgMA5Rm303UzbneKkfuhzZsrGbkfKT7+2bNn8rd+/7H8g7/9d4zbPajKkTteIb506dLkWNyvGbkHvxi5z50713plbmrc1HA2Pj6enzx50qgtSepVxm0AoDzjdrpejNudqhy5H96xozVkf+93n8z/4N1f/dlx+/ixY8l/R3cu7vu4dnbqvuy2uNb3kiVLkmNxv9YZub3x5OAWI/f58+dbr9RNjZ0ajmLUju83cdmlxDAhSVLZjNsAQHnG7XS9HLc7xRC9edOm5KDaTXHt6O3bt+cnT5zIv/1bjuc/95+W5nsffTT5z2r6xRt67ig+r6n7stvi2uyLFi1KjsX9mpF78IuR+8KFC0buISvLsvz06dOt7zOJQUKSpG4zbgMA5Rm301UxbneqcuSOy1/EILtp48bkP6O7r8qROw7o77///uRY3K8ZuQe/Q4cOGbmHoBi1z5w5k+8ovmdNGSEkSeplxm0AoDzjdroqx+1ORuj+Ku6r+MFE6r7stvhhx8KFC5Njcb8277778o3F58zIPbjFyH3x4sXW5SpS46j6sxi141rr8X00MUBIktTrjNsAQHnG7XTrZ2Dc7hQjd7w6ODWoqn7FEF3VyB0D+oIFC5Jjcb9m5B78YuS+dOmSkXsAimurxxsWJ4YHSZKqyrgNAJRn3E43d+7cfNWqVZVdjiJVvImhkbs/ijcHrXLk3lA8DubPn58ci/u1uFyJkXuwO3z4cH758mUjdx8Wl5nZuXNnanCQJKnqjNsAQHnG7XT33ntva5CbM2dOvnr16spGzFQxcsdlUVKjqupVjNwPbd6cP1I83lL3ZbfFbxDMmzfvc4bifs7IPfjFyH3lypXW5S1SQ6rqU7zifteuXamhQZKkmcq4DQCUZ9xO1xm3O8UruWPMnMmRe2zbtnz9unWfM6iqfsXIvaU4OK9i5I6PGW8WGqPw5Mdkv2fkHvyOHDli5K5p8Qr73bt3pwYGSZJmOuM2AFCecTvd1HG708jISL527drKXqmbatvoqJG7T4qRe+uWLZWN3A8Wj714DKYem/1ajNybNm0ycg9wMXI/8cQTRu4aFD9s2LNnT2pYkCRptjJuAwDlGbfT3Wrc7nTfyEjrn5vpkTtewZsaVVWvYoSOkTt1P3ZbPOZiRI/fJkg9Nvs1I/fgd/To0fzq1atG7lkoPu+PPvpoalCQJGm2M24DAOUZt9PdadzuFINcvKp6Jkfu0a1bjdx9UozccX+l7sdui0vkrCn+jEEcuV2uZLCLkfvatWvJEVa9LT7Pjz32WGpIkCSpLhm3AYDyjNvppjtud4o3/Ys3gUyNkFUVrwyO8TQ1qqpexQ8jqhq5d2zf3nrT03jz09Rjs18zcg9+x44dy5988snkKKvuis/rvn37UgOCJEl1y7gNAJRn3E53t+N2p/nz5+cbN2xIjpBVFK8YN3L3TzFyx+VlUvdlt8XIvWrlytKP3bpm5B78jh8/buTuUU899VS+f//+1HAgSVJdM24DAOUZt9N1OxAuWLCgdf3g1AhZRTFybykODuNazKlRVfUqLmUztm1b8r7stu1jY/nKFSuM3Oq7YuSOcTY12ur2Pf30062vjcRgIElS3TNuAwDlGbfT9WoYXLhwYf7Q5s3JEbKKYuSOP8/I3R/FpWyqGrnj4y5fvtzIrb7rxIkTrbE2NeLqlT3zzDN58X0837JlS2oskCSpHzJuAwDlGbfT9XoQXLRoUeuV1akRsoqM3P1VjNzxiuvUfdlt27Zty5ctW5Z8XPZzRu7B7+TJk63xNjXqDnvPPvts63Nk1JYkDUDGbQCgPON2uqpe7bp48eLWNbJTI2QVPbxjR75506bkoKr6Fddrj2tnp+7LbhsdHc2XLlmSfFz2czFybzJyD3SnTp1qjbmpkXfYajQa+cGDB43akqRByrgNAJRn3E5X9aUclixZko9u3ZocIasoRu4YAFODqupX3FdVjdxbi8dd/JAl9bjs54zcg98wj9zPPfdcfvjw4dbXb2IUkCSpnzNuAwDlGbfTzdR1ipctXZpvGx1NjpBVFIOpkbt/ivsqfjCRui+7LV75GZfLST0u+zmXKxn8Tp8+3XoFc2oEHrSef/75/MiRI0ZtSdIgZ9wGAMozbqebyTfhiz8r3vivqjcWTBUjd1wCIzWoqn7FpWWqGrnj2uz3339/8rHZzxm5B78zZ860XtGcGoX7vRi1jx492rqcUGIEkCRpkDJuAwDlGbfTzeS43Sn+zBUrVlT2xoKp4s8ycvdH8eagVY7c8bEXLliQfGz2c0buwe/s2bMDM3Jfv349P378uFFbkjRMGbcBgPKM2+lmY9zuFH/2ypUrK7vmcqoYuTesX58cVVWvYuSOV1s/UjzGU/dlt8WlUObPn598bPZznZH7wIEDyecM9XfxJovnzp1rveI5NRrXvRi1T5w4kW/bti110i9J0iBn3AYAyjNup5vNcbvTnDlz8tWrVs3oyB2XRlm/bl1yVFW9ipF7S3FCUNXIvWHDhnzevHnJx2Y/Z+Qe7Ppt5B4fH89PnjyZj42NpU72JUkahozbAEB5xu10dRi3O82dOzdfs3p1ZZejSBVvcmnk7o8eXLs237plS2UjdzwOYhBOPTb7OSP3YBcj9/nz51uviE6NyrNdjNqnTp0yakuSZNwGALph3E5Xp3G7U4zcMWbO9Mi9rvh8TB1UVb86I3fqfuy2GM7jcWDkVr8VI/eFCxdqM3JnWdZ6I8zt27enTu4lSRrGjNsAQHnG7XR1vhzDyMhIvnbt2speqZtqdOtWI3efFCN33F+p+7Hb4jEXj714DKYem/2ckXuwO3ToUH7x4sXWK6ZTo3PVxagdb3y5Y8eO1Em9JEnDnHEbACjPuJ0u3lwxDrbuv//+5BBWh2KMi8F5JkfueGVwjKepUVX1Kh4bVY3c8dsD8WfEbxOkHpv9XHxdxfXGjdyDWYzcly5dmtGRO64BHt+TppzIS5KkP8m4DQCUZ9xOF+N2Z8jbvGlTvnDhwuQQVodijIvrIk8eH6ssxnQjd/8UI3dcXiZ1X3ZbjNxxPXgjt/qtmRi543IojxRfJ4mTeEmS9HLGbQCgPON2usnjdqdNGzfmCxYsSA5hdWj+vHmtMW7q7a6qGLm3FAekax94IDmqql7FD0DGtm1L3pfdtmP79nz1qlX5nDlzko/Nfq5zuZLHH388+Vyj/u7w4cP55cuXW5cNSQ3UZYrLn+zcuTN18i5Jkj434zYAUJ5xO11q3O4UA/L8+fOTQ1gdWlDcthjiU7e9imLkfmjzZiN3nxSP7SpH7pUrV9byDVm7zcg92MXIfeXKla5G7ngl+K5du1In7ZIk6dYZtwGA8ozb6W43bndaX/wzdX7jyYULFrQuqZK67VVk5O6v4jG+fWwseV92W3zcFStWDObIPTJi5B7gjhw5kj/xxBN3NXLHKL5nz57UybokSbpzxm0AoDzjdrrpjNtRDLpxTeN4VWdqCKtD8aaYMTqnbn8VxXWYY1RPDaqqXxs3bGi94jp1X3ZbvEJ8+bJlRm71XTFyX7169bYjd4zgRm1JkrrOuA0AlGfcTjfdcbtTjNzxBosjIyPJIawOLVq0KN+yZUvy9ldRjNxxeZTUoKr6FfdVVSN3vKHl0qVLk4/Lfs/lSga7o0ePtkbuyaN2/Pe9e/emTs4lSdLdZ9wGAMozbqe723G7U4zccVmOuXPnJoewOrR48eJ869atydtfRTGYGrn7p7iv4gcTqfuy20aLx92SJUuSj8t+L0buuB6/kXswi5H72rVrrXF7dHQ0dWIuSZLKZdwGAMozbqcrO253inFwzZo1tR65ly5Z0hppUre/imLkjktgpAZV1a+4tExVI/fWLVtaP2RJPS77vc7IfeDAgeRzk/q7Y8eOGbclSeptxm0AoDzjdrpux+1OMeiuXrUqnzNnTnIIq0PLli3Lt23blrz9VRRvNhif39SgqnoVv4UQI3f8RkLqvuy2LcUJTVwuJ/W47PeM3INbXN4pcWIuSZLKZdwGAMozbqfr1bjdKUbuVStX1vaN9eJ2LV++vPUGgKnbX0VG7v4pRu54U9KqRu742AsXLkw+Nvu9zjW5jdyDk3FbkqSeZtwGAMozbqfr9bjdKQbdlStW1HrkjtsXtzN1+6soBvX169YlR1XVqxi549XWVY3cmzZtyhcsWJB8bPZ7Ru7BybgtSVJPM24DAOUZt9NVNW53ikE3Xild15E7LqOyatWq1ivOU7e/iraNjhq5+6QH165tXTe7qpE7rs0+f/785GOz3zNy93/GbUmSeppxGwAoz7idrupxu1Nc6zqueZ0awepQjNyrV6+e8ZF7XXEfpEZV1avOyJ26H3tRfB3Omzcv+djs94zc/ZtxW5KknmbcBgDKM26nm6lxu9Po6Gi+dMmS5AhWh+bOnZuvWbMmf3jHjuTtr6LRrVuN3D0sPpebNm5svTo+Li+S+mfKFiN33F+p+7Hb4tXhcZtjDE49Nvs9I3f/ZdyWJKmnGbcBgPKM2+nuNG7vqGjk3bp1a7548eLkCFaHYuSOYbSqy1GkilcGx3iaGlU1/eI66l//j7bl166ezPfv25dv3rSp5yN3DOjxyvvU/dht8ZiLr82RkZHkY7Pfi5F7w4YNRu4+yLgtSVJPM24DAOUZt9PdadyOEToOxqp648UYTxYtWpQcwepQDIwxOM/UyB1/jpG7u2LQftcv359/6kN/Jv+Vn9+e35y4lB/Yvz9/aPPmvhu54/aOzJ2bfGz2e/OM3LXPuC1JUk8zbgMA5Rm3001n3N68eXOrLcVBWVUjdwyP9y9cmBzB6lC82jSGzJkcuePz3esxdhg6WHxd/PY7l+b5xz6v1ac//IX5O3/hofyNX3spf/zxxyv5vMblROLNU1P3ZbfFJXLiz4jfJkg9Nvs9I3d9M25LktTTjNsAQHnG7XR3M25/duTesqWyN16MS0gsXLAgOYLVoXjTv/UzeJ3yGLmreMXxIDd13O70x3/4mvzXf3F9/nX/6FL+hte/vpKRO76eqvoBUIzc8aan8eanqcdmv2fkrl/GbUmSeppxGwAoz7idrsy43anKkTveeG7+/PnJEawOxW2LIS5126vIyD39bjVud/rMR16d/9Yvr8n/6ddfzA8dPNh6g8heXwamypE7vuZWrVpl5FblGbclSeppxm0AoDzjdrpuxu1OcY3oqt54MkaueLV0agSrQwsWLMg3bdyYvO1VFK/ejVe3pwZV/Ul3Grc7vfTRz8/f86vL829484X8yJEjrWtn93rk3lg8fqv6AVCM5ytXrMjvvffe5GOz34uRO37ItX///uRzn6rPuC1JUk8zbgMA5Rm30/Vi3O4U/2yMr6mP021xTeO47nVqBKtDCxcubI3OqdteRfF5jlE9NagOe9Mdtzu99NF78vf+2v35t/yr8/mxo0db186O66unPnbZ4r6qauQeGxvLVyxfbuRWzzNuS5LU04zbAEB5xu10vRy3O1U1cselOWJ0rPPIff/997eu5Zy6/VUUg6mR+5Xd7bj9cvfk7/uNefm3fOPxfPeuXT1/FXcU91VVPwCKUX7ZsmUDPXLHb3IYuWcu47YkST3NuA0AlGfcTlfFuN0prmVc1ci9du3afGRkJDmC1aHFixa1LteSuv1VFCN3XAIjNagOW+XH7Zd78Y2HKvt8xnXTU/dhr4rLqyxdujT5uByE4jJFRu6ZybgtSVJPM24DAOUZt9NVOW53Gh0dbQ3SqY/fTTGcx1g4d+7c5AhWh5YsWdIa+VO3v4riOsxxn04dVIepXozb3/AvzrTewDP18but6nG7Uzzu4vGXelwOQkbu6jNuS5LU04zbAEB5xu10MzFud6py5F6zenWtR+54JW28ojZ1+6tomEdu4/Yri98giN8kSD0uB6G4TJGRu5qM25Ik9TTjNgBQnnE73UyO251i5K1i5I5Lc6xetSqfM2dOcgSb7eJayHFN5Lg2cur2V1H8WfFmnKmRdVAzbqeLk6q4JnzqsTkIGbl7n3FbkqSeZtwGAMozbqebjXE7iuFw27ZtlY3cK1eurO0b68XtWrF8eT42Npa8/VUUP1AYlpHbuH37Nm/alC9cuDD52ByEjNy9y7gtSVJPM24DAOUZt9PN1rjdKQ704tXFjyT+7G6LS3PEiFznkXvlihWt25m6/VUUI/e64n5Pja6DknF7em3auDFfsGBB8rE5CBm5u8+4LUlSTzNuAwDlGbfTzfa43SkO+Kq6XEd83OXLltV25I7LqKxatar1ivPU7a+ieLPBB9euTY6v/Z5x++6KAXj+/PnJx+YgZOQun3FbkqSeZtwGAMozbqery7jdKQ78qrpcR7xqOd7YMTWA1aEYuVevXt16g8zU7a+ieLPBQRu5H3/8ceN2idYXzwXz5s1LPjYHoRi54+9o5J5+xm1JknqacRsAKM+4na5u43anOACs6nId8arlJUuWJAewOjR37tzWCDpTI3dc93yQRu64xM2Pv20s/+M/fE1yuJ5OdR6343FR1ddGPBbisjUxBKcem4NQDPgxcu/bty/5nKqXM25LktTTjNsAQHnG7XR1Hbc7bSkOBLdXdLmOGHQXL16cHMDq0MjcufnatWsredPNVPHnxOc7xtfUKNsvxWP6sb178zfevJi/8xceyj/94S9MDti3q87j9o4dO17+2qhw5I4fdoyMjCQfm4NQjNxxuRIj960zbkuS1NOM2wBAecbtdHUftzvFyFLVNaljJFy0aFFyAKtD942MtO6rmRy5Y9jt55E7bnv8HQ7s35/fnLiU/8r/M5b/nw//6eSQnaofxu1OcbJU1aV84rEQtzd+myD12ByEjNy3zrgtSVJPM24DAOUZt9P1y7jdqcqRO8bMhQsXJgewOtS6ZvC6dUbuuyhu++ZNm/L9+/bl2fVL+f/4rzvz//3BP5sctCfXT+N2pzhpijdPjcuypP69bopLoawpbruRe7gybkuS1NOM2wBAecbtdP02bneKS4rEyJe6zd22adOmfMGCBckBrA61Rrg73G+9LIbNGIhTQ22/FIPypo0bW5cree7ZS/k7fnZP/skPfFly2I76cdzuFCdPrZG7gh+CxA+W4k1P481PU4/NQcjI/XLGbUmSeppxGwAoz7idrl/H7U5x+6p648WNGzbk8+fPTw5gdShuW9zG1G2vovg8x0CcGmz7pc7IvffRR/OnnrqY/5effCz/xO+/dqDG7U5xErWtwpF71cqV+b333pt8bA5CRm7jtiRJPc64DQCUZ9xO1+/jdqcqR+74HMXQlRrA6lC8yjxebZ667VUUw2a/j9xR/GBgz+7d+dUnzuc/9fYD+cff/7rPjtv/8p+d6vtxu1P8PaoaueMNLVeuWDHwI/f64jlgGEdu47YkST3NuA0AlGfcTjco43an0YpG7hgG161b17rudWoAq0NxvfAYMlO3v4pi5I6BODXg9lPxNbB71678yuXz+Y+/7Q35R9735fkbb+6rbMCf6XF7cttGRysZueMyKMuXLx/4kTtOTFPPw4OacVuSpJ5m3AYAyjNupxu0cbvTaEUjXnzM+LyNjIwkB7A6tGjRonxLcQCduv1VFK/ejcdRasjtp+LNOuPv8/iBfcV/bsvXFfdz6p/rttkct6MYuFMftxfFK8SXLVuWfFwOQjFwp56HBzXjtiRJPc24DQCUZ9xON6jjdqeqXqkaHzNGypG5c5MjWB1avHhx6403U7e/igZl5I77NUr9b71okMftTvHDpaVLliQfl/2ccVuSJHWRcRsAKM+4nW7Qx+1OVY3ccQmUGCzn1njkXrJkSetyLanbX0VxiYp4FfTUUVd/0jCM253i+SN+yJJ6XPZjxm1JktRFxm0AoDzjdrphGbejKt9YL0bu1atX53PmzEmOYnVo2dKlMzpsxp9V1aU9+rlhGrc7xUgal8tJPS77KeO2JEnqIuM2AFCecTvdMI3bneLgMl5d/Eji79tt8SaLq1atqu3IHW/4F2/8F3//1O2vIiP3KxvGcbtT/IDp/vvvTz42+yHjtiRJ6iLjNgBQnnE73TCO253iIHNsbCz59+62uP70yhUrWmNyaiSb7eJ2rShuX9zO1O2vorg0yoNr1yYH32FqmMftTps3bcoXLliQfGzWOeO2JEnqIuM2AFCecTvdMI/bneJgs6qROz7uiuXLaz1yr1y5svWK89Ttr6J4k8thHrmN2y+3aePGfMH8+cnHZh0zbkuSpC4ybgMA5Rm301U5bm/fvj3fu3dvvmvXrr4YyeOgs6pXMsdlQJYtW1bbkTsuo7J61aoZG7njuufDOnJ3M27vLr6W9u3b1/q6ipE7HrOpx/LtqtO43WnDhg2t4Tj12KxTxm1JktRFxm0AoDzjdroqx+2DBw/mv/Bflub/+tvO5efOncv37NnTFyN3DDoxzKc+H90Ww+LSpUuTw1kdmjt3br5m9erWG2Smbn+vi5F7S3GwH4NvaggexLoZt/c99lj+/3vT6/Of/5m1+df9oyfzo0ePtp4D4oQp9VhOdadxO37AM5OXq5nc+nXr8vvuuy/52Jzt4gdTixctSj4PD2rGbUmSeppxGwAoz7idrspx+/z58/kn/uC1ef6xz8vf/645+fe95Xx+4cKF1qtO+2XkruqVzHH96SWLFydHtDoUI3cMsTM5csebDQ7DyN3NuP34gQP5d3/n6dbX1B//4Z/Kf+OXNuf/5Ouv5cePH2+9QWqcOKUey5O707gdv2UQ/1x8rKou13O74rEQb0Bap5E7vh7i8kLLly1LPg8PasZtSZJ6mnEbACjPuJ2uynH78uXLnx23O33gPV+dv/X7z+YXL15sjdyjo6PJf7dOVTlyx8detGhRclCrQyMjI/natWtbg2Pq9ve6YRi5uxm3X//44/n3f8/FV3xNfeYjX5D/1q+sy//FP7uanzhxIt+5c2frcZV6LEfTHbc7xclY/P9m6jHQKf68eOzFYzD12JypYmRftXJl67I9xm1JktRFxm0AoDzjdrqZHrc7feh3vjL/kbeeyq8U/0xcQ7gfRu64RnRc5zj1eeq2OOC9//77k+NaHYqBL15NO1MDZ7xifPOmTclxuN/r9bjd6aWPfn7+nneuzL/pG5/IT5061brWfWrkvttxu1M8Rmdj5I7HQnze4tXTqcdmlS1csKA1ancybkuSpC4ybgMA5Rm3083WuN3pI+/7ivztbzuWX716Jd+/f39/jNzF56Sqy3XEoLtw4cLk0FaHYuSO6yKnbnsVxed508aNnzMQ93NVjdudXvroPfl7f21p/u3fciU/c+ZMvnv37leM3GXH7U5xcrZtlkbuuB78TIzccX3tuGzQ5GHbuC1JkrrMuA0AlGfcTjfb43anj/3el+c/+WOH86efvpofOHCgNZ6lPmadqnLkjkF3wYIFyeGtDs2bNy/fsGFD8rZXUVwWZlBG7qrH7Ze7J3/fby7Iv+s7Lr3iDV27HbcnFx9rpkfueCzE0DxnzpzkY7Pb4uPGiD112I6M25IkqYuM2wBAecbtdHUZtzt9/P2vy3/2J96QP/vs1fzxxx/vi5E73hyyqpE7BuT58+cnR7g6tKC4bTE6p257FcWwubH4nKRG435p5sbtl3v/u+a23tA13uR1/759+Z7du5MfP7qbcbvTbI3cK1eubL3KOvXYLNN9IyP5yhUrksN2ZNyWJEldZNwGAMozbqer27jdKf69n/qx3a2BO/Wx61hcUqWqgW99cT/Fq6VTg1wdimsTxyVVUre9iraPjbUeu6nxuO7Nxrjd6QPv+er8m7/haOvjpD5+VGbc7lTl18CtisfCihUruh654zclUoP25IzbkiSpi4zbAEB5xu10dR23o//z4T+dX7hwIfmx61xVr2KNjxlv6hjXvU6Nc3Uo3hTzoeJzkLr9VdSPI/dsjtvRb/3yuvzUyZPJjx91M25HcZ+kPm6nGMDv9M+UKW738uXLS43cixctSo7ZUzNuS5KkLjJuAwDlGbfT1X3cvnr1avJj90NVjtwPrl2bj4yMJIe6OrRo0aLWMJa6/VUUw2a80WVqTK5bsz1uv+v/vz4/f+5c8uNHVY/bW4vHRfxzcZJXxcgdX3dLly5NPi6nFtfXXlb8s6khO5VxW5IkdZFxGwAoz7idzrhdbfEq5rhueFUjdwylc+fOTQ53dWjx4sWtx1Dq9ldRDJvx6vbUqFyXjNt/Mm53ipO9sQpG7rgW/pIlS5KPyyh+OHS762unMm5LkqQuMm4DAOUZt9MZt2emOKCN0fCRxOe42+LNLNesWVPrkXvpkiWty1Gkbn8V1XnkNm6/ctzu9NmvkR7/ICj+vPghy+THY7xJ66qVK5MD9u0ybkuSpC4ybgMA5Rm30xm3Z7Y4sK3iVarRju3bWwNcXGph8pBXp5YtW9Z6JXvq9ldRvHo3LuGSGplnK+N2etzu1PoaqWDk3lJ83EX3399q6mg93YzbkiSpi4zbAEB5xu10xu3ZKQ5wqxy541WpZd5YbyaK2xVv/BcDZur2V1EMqnUZuY3btx+3O8XXSK8v6RM/7EiN1tPNuC1JkrrIuA0AlGfcTmfcnt3iQLeKN9WL4uPGNYXrPHLH7avq7z+1GEnrMHIbt6c3bk+uV2/Oaty+u4zbkiT1NOM2AFCecTtdleP2mTNnjNvTLEak7du3J++DbouxMl4pXeeRO15pHq84T93+XhcjaVyiIkbm1Phcdd2M2wf278+/6ztOJr9epls/jtudYuROfczpZty+u4zbkiT1NOM2AFCecTtdleP2vn378h/+d/vzj/3elydHtjs1TON2pxiTqhp54xIPcc3r1MBch+Ja4atXr57Rkfuh4nM+0yN3N+P2o3v25E9eO5X/8jtGW18fqa+bO9XP43bUzSu4jdt3l3FbkqSeZtwGAMozbqerctweHR1tDdxXr17Jf+xtR/OP/O7fTI5tt2oYx+1OVY7ccb8sXbIkOTDXoblz5+Zr1qzJH96xI3n7e91Mj9zdjNu7du7MH3300fzQoUP5zZvX8l/++V35pz70Jcmvn1tl3E4P19PJuC1JkrrIuA0AlGfcTlfluN2pM3JfuXw5/5G3nso/9DtfmRzdpjbM43anGAJ3VDTyxn27ePHi5MBch2LkjiG4mzHzbooxffOmTclBupd1M25H8XiIE6S4jM3BgwfzieaT+X//uUfzP/rglya/jqZm3E4P19PJuC1JkrrIuA0AlGfcTjcT43anGLn37t2bX7x4MX/r95/NP/Cer06Ob52M2y8X90NVr2SOAWvRokXJgbkOjYyMtN4EciZH7k0bNyaH6V7Ui3G787iIE6WxsbHWc8H49Sfzd/zs/vwTf/AXkl9PnYzb6eF6Ohm3JUlSFxm3AYDyjNvpZnLc7hQfM0buCxcu5N/3lvP5+981JznCGbc/typH7rg0x/33358cmOvQfffdl68rHrMzNXLHZWGqGLl7OW53ihOmGLmL57n82Wev5j/7E2/IP/7+1yW/rozb6eF6Ohm3JUlSFxm3AYDyjNvpZmPc7hQfe8+ePfm5c+fy7/qOS/n7fnNBnn/sns+OcMbtWxcjXdz3qfus2+LSHAsXLEgOzHVo3rx5+fo7PG57WYzcGzdsSA7VZapi3J5cvHHogQMH8qefvpr/5I8d/pw3dDVup4fr6WTcliRJXWTcBgDKM26nm81xu1MMKLt3787PnDmTf/u3XMnf+2tL85c+ek9r3I5LmKT+Hf1JcamXql7JvHHjxnz+/PnJgbkOxW3bsGFD8rZXUYy28fWSGqzvpqrH7U7x2Ni/f38eb+j69rcdyz/yvq9ojdu/+csP5meLr7XUx46M27fOuC1JkrrIuA0AlGfcTleHcbtTDCm7du3KT506lf+rb7iS//f/vDQ/dOhQ8p/VK9tW4cgdA3K8Wjo1MNehBQsWtC4fkrrtVRTjbzcj90yN250mv6Hr9333G/J//31b88PF11XqY0fG7Vtn3JYkSV1k3AYAyjNup7vTuB3Xd57JgTuKQWXnzp2t63Jv3749+c8oXVySoqqRe/26da3rXqcG5jq0cOHC1iVVUre9imIEjs9JasC+XTM9bneKkTt+eLTvscfyvY8+mvzYkXH71hm3JUlSFxm3AYDyjNvp7jRud4pBbaZHbpUr3hiyqpE7Pma8qWOdR+54U8wtxQlE6vZXUbxqPj4nqSE71WyN253i9qY+bifj9q0zbkuSpC4ybgMA5Rm300133O4Ub64Xg0dqdFK9ioPoGCofSdyP3RYD49q1a/ORkZHkwFyHFi9a1BpSU7e/iqY7chu3jdv9knFbkqSeZtwGAMozbqe723G7k5G7f4qD6bE7DI5li8vWxGA7d+7c5MBch5YsWdIaNVO3v4riz3pw7drPGbU7GbeN2/2ScVuSpJ5m3AYAyjNupys7bneKa2IbufujOKi+0/BYthi516xeXeuRe+nSpXccdntZjLipkdu4bdzul4zbkiT1NOM2AFCecTtdt+N2pxi04qAtNUapXsX9VNXIHa/ojxFwzpw5yYF5trv33nvzZcuWtQbc1O3vdTHETh25jdvG7X7JuC1JUk8zbgMA5Rm30/Vq3O5k5O6fYriKV96n7sdui5F75cqVrTE5NTLPdnG7VixfXtnlWqYWg2y8yWUM23Uet3ft3Nn11/Dtxu34+DEwd/Pxjdszl3FbkqSeZtwGAMozbqfr9bjdKUbDOIhLjVOqVzFgxRiduh+7LYbOGJHrPHKvXLHijq827lWdkTv1v023KsftfY89lp89/fr86NGj+d69e/OtW7cmP8btut3n8vEDB/KL5w/mR44cyXfu3Nl67KU+xu0ybs9cxm1JknqacRsAKM+4na6qcTt6pCgucRAHc6mRSvWqypE7HgcxDNZ15I7LqKxataqyv38vq3LcPnL4cP4zb9+cf+A9X52/9fvP5hcvXmyN3KPFv5P6WKluN26fO3s2f/9vfVX+nneuzL/pG5/IT506le/ateuuRm7j9sxl3JYkqacZtwGA8ozb6aoctzvFGLXNyN03xTWRY0BN3ZfdFsNqvLFjamCuQzFyr169uvUGmanbX4eqHLdPnjiR/+J/253nH/u8Vh9+71fmb/uhE/mVy5fzffv2TWvkvt24ffWJJ/IP/s5XtT72Sx+9J3/vry/Jv+NbL+dnzpzJd+/ePa1Xihu3Zy7jtiRJPc24DQCUZ9y+dakRqIo6I3dqsFL9iqGxqpE3RsYlS5YkB+Y6NHfu3NabP9Zx5K563P6ldzz62XG700fe9xX52992LL969Uq+f//+247c0x23X+6e/H/+5vz8u7/zYn7u3Ll8z549tx25jdszl3FbkqSeZtwGAMozbqeLy0QsXbKkNValxqAqao3c03gFqOpRlSN3vEp88eLFyYG5Do3Mndt6A8huBtVeNxvjdqeP/d6X5z/5Y4fzp5++mh84cCD5w6q7H7df7v3vmpN/31vO5xcuXLjlNb+N2zOXcVuSpJ5m3AYAyjNup5t8DeRly5a1xqrUKFRFMVLdzbV8NbvFfRWPt9R92W3xJouLFi16xbBcp+4bGWl9vdRh5J7NcbvTx9//uvw//+Tr80bjWl48t77iDWS7Gbc7fWDSNb8fe+yxVzxPGLdnLuO2JEk9zbgNAJRn3E439Q3+4r8vX7689QaAqXGoiuLvYOTun+K+qmrkfaj4+AsXLnzFY7JO3Xffffn6detmdeSuw7jd6ZN/8Bfyd/zs/nz8+pOt56MYuW/3ppzTHbc7ffi9//fnXPPbuD1zGbclSeppxm0AoDzjdrqp43an+P+vXLHitq/C7HVx6YvpvKGc6lGMpFWNvJs2bcoXLFiQfGzWoXnz5s3Im7GmqtO43emPPvil+X//uUfz69ev5AeL56U9u3cnP/7djtudOtf8vnTpQn5g//58186dyY9/p4zbd5dxW5KknmbcBgDKM26nu9W43WnOnDn5qlWrbvtqzF5n5O6v4lI2VY3cGzdsyOfPn598bNahuG1xG1O3varqOG53+tSHviT/tm862hqgUx+/7LjdKa75/dSTF4zbM5RxW5KknmbcBgDKM26nu9O43SlG7tWrV8/oyB0jXrzhYGqgU72Ky4lUOXLHq6Tj1dKpx2YdileZx6vNU7e9iuLrsOwPgKoct6Of+A+H8sOHDiU/frfjdvTGr306v9Urw++UcfvuMm5LktTTjNsAQHnG7XTTHbc7zZ07N1+zZk3r1dWp8aiKYsiLkSU11KlexYF7XK/9kcT92G0xnMf1ruO616nHZh2K64XH0J+6/VXU+gHQXY7cVY/bP/VjR/Mjhw8nP34vxu1/9A+fzY3bM5NxW5KknmbcBgDKM26nu9txu1OM3GsfeKCyV+qmMnL3T3EAH28umLofuy0ec/HYHRkZST4269CiRYvyLcXnIHX7qyh+2BTDbeq+mJpxOz1cTyfjtiRJ6iLjNgBQnnE7Xdlxu1MMjA+uXTujI/d2I3ffFAfyVb0paTzm4gcsI3PnJh+bdWjx4sWtS+ukbn8VtUbu0dHkfdHJuJ0erqeTcVuSJHWRcRsAKM+4na7bcbtTXCpiXfHxZnTkHhtrHSimBjzVq7ifqhq5Y9B9YM2a1m8TpB6bdWjJkiWtYTV1+6sonhduNXIbt9PD9XQybkuSpC4ybgMA5Rm30/Vq3O4Ub/q3fv365LBUVUbu/inGsnjlfep+7LYYueNNT+PNT1OPzTq0dOnS247LvS5+2BR/3uT7wLidHq6nk3FbkiR1kXEbACjPuJ2u1+N2p/nz5+cbNmxIDkxVFdd4jgPHyUOe6lmMZnEN9dT92G3xcVetWlXbkTu+5pYvX956483U7a+iySP3ncftPclReboZtwcn47YkST3NuA0AlGfcTlfVuN1pwYIF+aaNG5NDUxU9UhSjYRxATh1UVb+qHLnjFf0rV6yo/DFetrhdK4rbV9XlWlLFyL1jx47k/xYdPnQo/5m3P5wclafb7cbts2fO5L//7jnJf2+6GbdnLuO2JEk9zbgNAJRn3E43U8PfwoUL882bNiUHpypqvVI1Ru7EoKr6FW+6eLvRtZviFf0rli+v9ci9cuXKykb+u2nvo4/mZ8+czt/6/cfyD/3OVybH5Tt1u3H7wP79+ZPXzuc/99P78k/8wWuT//6dMm7PXMZtSZJ6mnEbACjPuJ1upge/+++/P99SHNylhqcq6ozcqUFV9Wvr1q2ta2en7stui1f0L1u2rLYjd1xGJQbU2R654/O/d+/e/OLFi/lbv/9s/oH3fHVyZL5Vtxu3o/j4jz/+eP7ss1fzn/2JN+Qff//rkh/nVhm3Zy7jtiRJPc24DQCUZ9xON1tD3+JFi1qv1k0NUFWUemM91bcqR+54HMQbO6Yel3Vo7ty5+ZrVqyv7+9+p+CFA5z6IkfvChQv5973lfP7+d40kx+ap3Wncjq/7+PjxQ6cDBw7kTz99Nf/JHzucf+z3vjz58aZm3J65jNuSJPU04zYAUJ5xO91sv4p1yZIlrcEpNURVUYzco0buvinuq3iMp+7LbovH3ZLFi5OPyzoUI/cDa9bM+MjdGbc7xci9Z8+e/OzZs/l3fcel/H2/uSDPP3bP54zOnaY7bneK+3j//v351atX8h/9keP5R373byY/bifj9sxl3JYkqacZtwGA8ozb6epyiYZ4JW28ojY1SFVRfN6M3P1T3Ffxg4nUfdltMeAtWrQo+bisQyMjI/natWsr+/tPbeq43Sk+T7t3787PnDmTf/u3XMnf+2tL85c++rkj992O253iPt63b19+5fLl/EfeeuqW1/w2bs9cxm1JknqacRsAKM+4na5O1x+O2xLXRI5xLTVMVVG8KjZemZoa21S/4gcgVY28cdIR14RPPTbr0H333ZevK75mqx65bzVud4rBc9euXfmpU6fyb/rGJ/L3vHNl/tJHP/+z4/NPlhy3O8XIfbtrfhu3Zy7jtiRJPc24DQCUZ9xOV6dxu1PcphXLl+djY2PJgaqKjNz9VVyvuaqRd/OmTfnChQuTj806FCP3+nXrkre9F91p3O4Uw+fOnTvzEydO5G/+51fzd/3Kg/lnPvIF+Y/84L78YPHclPrY0Z3G7U6fe83vOa1xeyK7ku/etSv5se+UcfvuMm5LktTTjNsAQHnG7XQx4tVx4I7idq1csSLfPoMj944Yuac5vml2i5OEKkfuTRs35gsWLEg+NuvQvHnz8g0bNiRvezfF11vq832r4n54pPj3jh8/nmfXj+fXn9uf73vsseTHju7266tzze9z587lX/+P9+enTh7Kd+3cmfzYd8q4fXcZtyVJ6mnGbQCgPON2uo0bNrReqRmjTV1H7jlz5uSrVq3Kd2zfnhysqij+rBh2UmOb6lWcLMRjOAbW1H3ZbTEgz58/P/nYrEMLitsWQ3zqtpetzG8yxP0QlxSJf/9243PZHx7F12P8MKPsq7Yj4/bdZdyWJKmnGbcBgPKM2+li3O4MP3E943hjx9SAVodi5F69enVreJs8WFWZkbt/ipOGKi9ls379+tarpVOPzTq0cMGC1iVVUre9bPG1FoNw6vN9q+70mxbd/mZEN6/UN27fXcZtSZJ6mnEbACjPuJ1u8rg9eQBasmRJckCrQ3Pnzs0fWLNmRkfu7UbuvilOHqq6lE0Mq/GmjnHd69Rjsw7Fm2I+VHweUre/bK2Re3Q0+fmemnF7cDJuS5LU04zbAEB5xu10qXG7U4xQixcvTg5odWhkZCRfu3ZtZddcThXDXRycpkY31au4n6ocuR8sHnvxGEw9NuvQokWLWuNk6vaXLf7edxq5jduDk3FbkqSeZtwGAMozbqe73bjdaUtxMBZDWWpAq0P3jYy0/i5GbqWKgS5eeZ+6H7stHnNrH3ig9dsEqcdmHYofUMX1s1O3v2zx947LGKU+38btwcm4LUlSTzNuAwDlGbfTTWfc7hSXOli4cGFyQKtDcamI9evWzejIHdd4joPV1AinehVDXVVvShqX7VizZk2tR+6lS5Z89g0fe1Vr5N627RVfA8btwcm4LUlSTzNuAwDlGbfT3c243WnTpk35ggULkgNaHYo3/duwfn3ytlfRI0VjUwY+lS9eZRyvtK7qBwdVjtzxcWMEjTc/TT0269CyZctag3Tq9pdt8sht3B6cjNuSJPU04zYAUJ5xO12ZcbtT/Lvz589PDmh1KG5bN3+/u+2zA19ikNP027lzZ/6mF3fl/+gfnsxPnjzZ+u8xsqX+2W6KEX1HRW9KGiP3qpUr83vvvTf52Jzt4nYtX7689UOZ1O0vW3wN3Gl8nu4bU94q4/bMZdyWJKmnGbcBgPKM2+l6Mf7Gq6Tj1dKpEa0OxavM49XmqdteRZ2ROzXM6c4dOHAg/7mf3Ja/9NHPz3/7ncvzb/5XV/LTp0/nu3btqmzkjsuKpO7LbotXMa9csaLWI3fcvju92rrXxQ8V4vOeuj/ulHF75jJuS5LU04zbAEB5xu10vXplcwxO69ata133OjWi1aG4Xni8qjp1+6uoNXJ3+SrVYSwe1//jv+3O8499XquXPnpP/ru/vjj/jm+9nJ85cybfvXt36WH0dsXwWdXIHa+QjldK13nkjleaV3W5llsVn++7vS+N2zOXcVuSpJ5m3AYAyjNup+v1ZTtieIqPOzIykhzR6tCiRYvyLcUBZur2V1F8Trq9FMMwFY/ryeP2y92T/8/fnJ+/5bsu5OfOncsfffTRakbu4r6Kr6vUfdlt8Yr+uOZ16nFZh+Ja4atXr56VkTuG59T9MTXj9sxl3JYkqacZtwGA8ozb6aq6JnUMUGsfeCAfmTs3OaLVocWLF7fe3C51+6so7qvpDnjDXDyu0+P2y/3+u78m/77vOZtfvHgx37t3byU/PIiP2c2QerviYy9dsiT5uKxDc4uv2zVr1lT2SvZb1Rq573BfGrdnLuO2JEk9zbgNAJRn3E5X9Rsuxlj1wJo1rbEsNaLVoRgZY/RK3f4qKnMphmEqHtd3Grc7ffC3/17+Qz9wOr906VL+2GOPVTJyx6Vlqhq543EQP2RJPS7rUHzdxg+pqvr736rWD4JucV8at2cu47YkST3NuA0AlGfcTlf1uN0pBt243EFc9iA1otWhZUuXtobM1O2vIiN3unhcT3fc7vTh9/7f+dt+6ER+5fLlfN++fdWM3Nu2VTbyxogYl8tJPS7rUFxm6MG1a2d85I4/b+p1643bM5dxW5KknmbcBgDKM26nm6lxu1Ncy3fVqlW1HbnjjfXijf/iDQBTt7+KdsTIvWXLKwa8YS4e13c7bnf6yPu+Iv+P//5QfuzYkUoG7jgxqXLkjjc8vf/++5OPzToUbxi7rnjemJWRu/i8x+fHuD1zGbclSeppxm0AoDzjdro7jdvxqsl4hXHqf+um7WNj+coVK1pjcmpEm+3idq0obl/cztTtr6IY/mNMSo2qw1Q8rsuO251+6Pv35rt3705+/F4UJyjxA5BHEvdjL9q8aVO+cMGC5GOzDs2bNy9fv3598rZXWbejunH77jJuS5LU04zbAEB5xu10dxq343+Pa+52+4rJWzU2NpavWL681iP3ypUrW8Nz6vZX0bCP3PG47nbc/vH/cKh1De7Ux+9lcaISj+HU/diLNm7cmM+fPz/52KxDcds2zPBvf3STcfvuMm5LktTTjNsAQHnG7XTTGbfjDSGjGLm3FAdmlYzc27bly5YtSw5odSguoxLj1kyO3NuHdOSOx3W34/ZP/MfDMzJud4oTlipf5R8DcrxaOvXYrEMLFizIN23cmLztdcq4fXcZtyVJ6mnGbQCgPON2ursZtzvFG8vFNaKrGLnjMihLlyxJDmh1aO7cufma1asruVTLrYrRNA6IU6PqIBaP634btzvF/VTlyL1+3brWda9Tj806tHDhwtYlVVK3vQ4Zt+8u47YkST3NuA0AlGfcTldm3O7UGblT/163xQi1ZPHi5IBWh2Lkjs/BTI7ccfmLODBOjaqDVDyu+3Xc7hSjYLzyPnU/dlv8UCne1LHOI3e8KWY8VlO3fzYzbt9dxm1JknqacRsAKM+4na6bcbtTjNwxGqX+/W6LcWXRokXJAa0OjYyM5GuLv38Vr2K/VYM+csfjut/H7U7x+K3qUjbxmIvHXjwGU4/NOrS4+Nqt6gdgZTJu313GbUmSeppxGwAoz7idrhfjdqd4NWlVI3ccEMarQVMDWh2KV9HG33+mRu5HiuI65fF5SY2q/Vw8rgdl3O5U5cgdvz0QX3/x2wSpx2YdWrJkSWXPDXeTcfvuMm5LktTTjNsAQHnG7XS9HLc7xcgb185Ofbxui+v5xnV9UwNaHZp3332t6yKnbnsVxZi+LUbuxKDarx04cCD/f/7LI8nRerrVbdzutHXr1nxHRZeyiZE7rgdf55F76dKllT03TCfj9t1l3JYkqacZtwGA8ozb6aoYtzvFyBuvLk593G7btHFjvmDBguSAVofmz5uXb7jD57aXtUbu0dHkoNpv7dq1K//Ob3t9/kcf+HPJ4Xo61XXcjuLkJnUf9qp4hXgMsXPmzEk+Nme7e++9N1+2bFllzw23y7h9dxm3JUnqacZtAKA843a6KsftThvWr69syIoBef78+ckRrQ4tKG5bDPGp215FgzByjxa3f9++fXmj8UT+337mQP6JP3htcsC+XcM8bneKkXvlypWtMTn12Jzt4natWL68dQ351O2vIuP23WXcliSppxm3AYDyjNvpZmLc7hQj9/aKhqz1xceeN29eckSrQwsXLGhdUiV126soRu4YiVPjar8Uo+fjjz+eP/vMtfxnfuJg/vH3/5XkkJ3KuP1y8TW3YsWKWo/cK4vbV9Vzw+SM23eXcVuSpJ5m3AYAyjNup5vJcbtTfMwq3lwvBt243ne8uWNqRKtD8aaYcX3s1O2vorgOcwx6qZG1X4prisd1uJ968mr+n370SP6x//nXk4P25Izbn1v89kSMs3UdueMyKqtWrarsjTejbsftRYsWJZ+HBzXjtiRJPc24DQCUZ9xONxvjdqe4XEdVI/fatWvzkZGR5IhWh2Iki+EodfurKEbueDPD1NjaL3UuV3L16pX8R3/keP6R3/2byWE7Mm7furhsTbyxY+pxWYdi5F69enXrMZu6/d1UdtyOV5bHD83it0NSz8ODmnFbkqSeZtwGAMozbqebzXG7U4zcVQxZMXI/8MAD+dy5c5MjWh1avHhxa3RO3f4qGqSR+8rly/mPvPV0/qHf+bvG7RLF0LtkyZLk47IOxddtPD/08rmhzLgdr3bvvDmncVuSJHWRcRsAKM+4na4O43anuCZ1FSN3fMw1xcev88i9dMmS1mibuv1VtCNG7i1bkuNrvxSfr7179+YXL17Mf+B7z+Z/8J6//9lx++1vO2jcnmbxOIgfsqQel3VopPi6XfvAA60fVqVu/910t+P2kuLzMvkyLsZtSZLURcZtAKA843a6Oo3b0f/H3p/AR3bVd9p4HCCErP+ZZDLvzPvOZCYz+WeZd7pValWpVFpKS1lbu1tL45a61at73/d2d+MdMPsOyfBnCCEEQoABMkAggUBCIMmYHYxZjDEGs3olCWG1z7++N7lGln6Squ69p+qU/Dyfz/MJcZeuTt06VZ+qp47OVcRS5M4iZC1UW6AoWMWrMEO0p6cn2mPaGr8PdU4UsKwI2ypqJfrWrVvdqVOn3Jtef9p99fa17n/98SY3Oztr3r7Z6sON9Vg02w3VcWm7HGtehqC2GdJrVprXhnridqFQWDQG4jYiIiKmkLgNAAAAySFu24YWt2MVuXXhRV+Ru79cDvbCehpXb29vdAFAa/w+XC2Re8uWLW7Pnj1u185t0cpu63bNVh9urMegVvWXCJobPp4bUs87K+yGova+HhkeTnT/a4nbem1Yt8RFaYnbiIiImELiNgAAACSHuG0batyOVeTWilIfIW96aiq6UFzIkVvj0zit8ftwehVE7tDVhxvr3NeqtpSJj6NV/r4i9/j4uMvn8+bcDEGF5tGREXPsS7lS3O7r7V12+yLiNiIiIqaQuA0AAADJIW7bhh63Yy+vVKK9gX2EPK2C1UrpUCO3tlHp7++PVldb4/ehgrrehC8Ms5henVfrnNdqHLfnOzkx4S1y6zWgo6PDnJshqLGt9DoWu1zc1r73K70GELcRERExhcRtAAAASA5x27ZV4nZsHLmtsaZVq2C157UVtUJQkXtgYKChkXuKyJ25Op/Wua5VK27H+ozcWiWtuGvNzRDUKnOtNrfGHrtU3O7s7DSPuVDiNiIiIqaQuA0AAADJIW7btlrcjlXkVqiyxpxW7dWsVZxW3ApBbZswWD0H2nvZGr8PidzZqfNoneNaXS5ux2oO67XB+vk0Kpxrv2vte23NzRDUfuHaN9wa/8K4rf21O+oI9sRtRERETCFxGwAAAJJD3LZt1bgdO1y9D1qtao09rVoh3tXVZUauEFTk1p7kvlbqLvTKqtrCRW/OraCKtanzZ53fWq0lbsdGkdvDlyCac3r9yOVy5twMwWKxGO3XP3/c8+O29tfOLbO/tiVxGxEREVNI3AYAAIDkELdtWz1ux/qM3ApkCmVW7ApBBUatZG9Y5K7+Hm3hotWxVlDF5dWHG+u81mo9cTtWUddX5NYXLPVG4kaqL6jirYziuN3T3Z1oj33iNiIiIqaQuA0AAADJIW7brpa4HastE7S62LovaVXM7SwUzOgVgtoqQpG/oZF7YsKMqbi0+nBjnc9anJ2ZcTt27HDbt2+PVtLrWNbvWMqNniK3jqnnn/6awJqbIVgqlaLXszRfVBG3ERERMYXEbQAAAEgOcdt2tcXtWF38bnpqyrxPaV0/Pu4K+bwZv0JQAW6kev+tsfuQyF2f+nBjncda3L5tm3vZi3e7T97S537npRfcoUOH3ObNm6NjWr/L0tdfOEhFbl30VBc/teZmq0vcRkRExBQStwEAACA5xG3b1Rq3Y31G7rGxMdfR0WFGsBDU2EZXeHyzVJFbezxbQRV/rD7cWOevFnft3One8EfHnfv2T7iHHni8++KnB90rXn7BHTlyJIrcipHW75yvz7gdu2l62vX396+6yE3cRkRExBQStwEAACA5xG3b1R63Y3U/FNys+5hWBWRFLyuGhWA+n3fjY2Pm2H2o1bva29gKq5gubu/etcu95Y1norgd+/CDj3Nf+kyve9Urz7tjx465mZmZZSN3I+J2rL5YKvf1JdrfOkSJ24iIiJhC4jYAAAAkh7ht+1iJ27GKvL4it/b71r7XVhQLwUKhEG2pYo3dh4rc2uPZCqyPZfXhxjpftWjF7R9H7svcVz7X5V77B2fdiRMn3OzsrHn+Gxm3Y6emplxfb2/LR27iNiIiIqaQuA0AAADJIW7bPtbidqwit48L62lrDl3UMeTI3dnZ6TZU32Bb4/chkfvR6sONdZ5qcbm4/WMvc1/7Qrt7wx+ddidPnnRbt2591PlvRtyO1cVee3p6WjZyE7cRERExhcRtAAAASA5x2/axGrdjtZLZV+SuVCoul8uZkSwEu4pFt3HDBnP8PtykyL3MdhmPFfXhxjo/tVhb3P6x3/jif3dvfuMJd+bMGTc3Nxftid7MuB2rMXR3d5vzMmSJ24iIiJhC4jYAAAAkh7ht+1iP27IyNOSuWL8+CtLWOUijwrl+R1tbmxnLQrBUKkV7ZFvj96G2hVluT+jVrj7cWOelFuuN27H3fOm33NvfeiyK3Dt37HBbZmfN4zdazTvNP2tehihxGxEREVNI3AYAAIDkELdtids/1nfkHhwYcGvXrjWjWQhqJW0jV/U+ViO3PtxY56MWk8bt2Pu/8mvuD39/n7tq927z+M1S86BYLJrzMiSJ24iIiJhC4jYAAAAkh7htS9xerCK39qT2EbkVdPv7+4ON3NoLWXsia29ka/w+nFbkrp5vKwSvRvXhxjoPtZg2bssvfGrYHTt61Dy+1MUfJ6uPv4/5v5I6N9oT3pqbzVbP2VJXl/k6vFolbiMiImYqcRsAAACSQ9y2JW4v7eWVSrRHtI/Ip6BbLpeDvbCextXX2xuFTmv8Ppyu/i698beC8GpS99G6/7WYRdy+49Mj7tTJk+bxpb7YiMeqlfzNiNzaC79QKJhzsxm253Ku3Nfnent6zNfh1SpxGxERMVOJ2wAAAJAc4rYtcXtl48htnZ+0KugqIoccuRX1NE5r/D5UUNcHgPlBeDWp+2bd71psdNyO1YUomxG5x8fGXD6fN+dmo8x3dLj+ctkN9PcTtxERETGNxG0AAABIDnHblrhdu4rcvi68qKCocBZq5NaWDNpORduqWOP3oc6JPggsDK2tru6TdX9rsVlxO1aRW/vHWz/n09Hq61BHR4c5N33aVSxGUTuWuI2IiIgpJG4DAABAcojbtsTt+h2unjdfF17UcXVhRyu0haAi98DAQMMC55VVV1vk1n2x7mstNjtux+pLnmZE7pGRkeiijtbczFLN857q83B+2CZuIyIiYkqJ2wAAAJAc4rYtcTu5PiO34mGpVDLDWwi2tbVF56Bhkbs6z3WRwyuM0Npq6sONdR9rMZS4HbuxCZFbc0HPvfb2dnNupjX3L/trLwzbxG1ERERMKXEbAAAAkkPctiVup3dkeDgKgtb5S6v2+u7q6jIjXAgqBFYqlYbtxxxF7okJM7S2ivpwY923Wgwtbscqcm9qQuTWVkGag9bcTKK2Pon317YkbiMiImIKidsAAACQHOK2rc+4vaH6Jm77tq1udmYmOk5laMi83WpxdGTE24UXdS6LxaIZ5EKwPZeL5lMjI7f2f7ZCa+jqw411n2px544d7o/+8IgZrWvVR9yO1ZcxzVjJrdcW/TWBNTdrtdjZaQbt+RK3ERERMYXEbQAAAEgOcdvWZ9zWKtOvf+HX3N/85RZ37VPOuLmtW9342BiRO4XalqNQKJhxLgS1VYRWshO5l1Yfbqz7UotbZmfd+XNH3Uf+ZpP73j2/YMbrlfQZt+VKc1+rvLXFTNZzRFF9sPr8qzdy6yKu3aWSGbMXStxGRETEFBK3AQAAIDnEbVufcfv4sWPuO9/45Sioffdbv+g+/Dez7oYbzrptc3OPicitc7dpeto8r2nV+cvn82asC0Fd9E+R3xq7DxU2tU+5FVtDUx9urPtQizObN7utW7dGz/2nPfWS+8jfbHf/9M1/vShgL2fT4/aGDdHtdB58RG495xSidVFIa27OVyG8r7d3UcReSuI2IiIippC4DQAAAMkhbtt6jdvHjz8St2O/d8/PuU/ccqV7+lPPuR3bt0crkVd75FaI9hW59fhon2Ar3IWgxrbSHMtSRW6tDF4YXENSH26ssdeq9rbWMaamplz1dc3dcP1F93/+epf7x2/8m0c915YylLg9X+2j7iNya/9srcy25qa+gFluf21L4jYiIiKmkLgNAAAAySFu2zY6bsf+4L4nuU9/ZMI9+5nn3K6dO6M9pR8LkdvXfsRaJa1YZ0W8ENQq8/HxcXPsPgw5cuvDjTXmWlXcnn88Re5du3a5a6+54D7wvj3uH77+78znXGyIcTtWW8xkHbk1nnJf36Mit7b2seL1ShK3ERERMYXEbQAAAEgOcdu2WXE79of3P9F99mPj7nnPORPt0f1YiNzrx8e9RG5FweHh4Wjf6/lhOSQVFbVa3xq/DxWCl4upzVAfbqyx1urCuB2rLT527tzpnnLpgnvfn+93D979H83nXMhxO1aRO+vniO5XT0+PK9W4v7YlcRsRERFTSNwGAACA5BC3bZsdt2N/9MAT3Oc/Oexe/IIzbk/1fimAXV6pmMddDSrgK/JmvUpV6ph6bHO5nBmYQ7BYLEZfZFjj96G2qFCos0Jqo9WHG2uMtbpU3I5VGN6+fbu7+vx59+fvOOzu/8qvPeq51gpxO1b7qGcZuXU8K1rXKnEbERERU0jcBgAAgOQQt21DiduxDz3weHfHrf3uf7zstLtq9+5olbN17NWi78it4+fa2szAHIJdXV1R7LTG78MQIrc+3Fhjq9WV4nasIve2bdvcuXPn3Dv+5Ki7967fiJ5jt3/q8uhir9axZUhxO1ZbzGQRuYnb9UncRkREzFTiNgAAACSHuG0bWtyOffjBn3S3f7InuuikdezVpiK0VjL7iNyKgvodbQFHbm0VofBojd+HCrA631ZI9a0+3FhjqtVa43asIvfc3Jw7c+aMe91r9rk/eeOE27d3r3lsGWLcjlXkto5Zq8Tt+iRuIyIiZipxGwAAAJJD3LYNNW7LH9z3M9EKU+vYq1VtxaL45ytyDwwMuLVr15qBOQR7urvd5MSEOX4fKsTqw4YVUn2p32eNpVbrjduxURjevNltm5tzW7dsMY8tQ47bMs1zg7hdn8RtRETETCVuAwAAQHKI27ahx+3Tp06Zx17txpHbekzSqq05+vv7g43ca9ascb29vVFktcbvw6kGRm79HmsMtZo0bseu9OUBcXtpiduIiIiYQuI2AAAAJIe4bUvcDltFbl/bdShClvv6ophsReZmq3H1Vce3UizNUoVdffiwompW6vjW765V4jZxu1EStxERETOVuA0AAADJIW7bErdbw+HqY+Vruw7FTK2UDjlyl8vlaMW5Nf6svbKqz8it41q/t1aJ28TtRkncRkREzFTiNgAAACSHuG1L3G4tR4aHvUbunp4eMzCHoLZRUWBsWOSuPrcmFbmNwJpGfbixfl+tEreJ242SuI2IiJipxG0AAABIDnHblrjdmipyK0Jaj1laFT+7SyUzMIdgW1ubGxwYiC6QaY0/a6PIXT0nVmhNoj7cWL+nVonbxO1GSdxGRETMVOI2AAAAJIe4bUvcbm1HR0a87UmtEFjq6jIDcwgqcuscNDJyT2QQufXhxjp+rRK3iduNkriNiIiYqcRtAAAASA5x29Zn3N6/bx9xu0H6jNwKXMVi0QzMIZjL5VylUkkVPesxbeTWhxvruLVK3CZuN0riNiIiYqYStwEAACA5xG3bleK2VsWuHx83g+pKKnK96PmH3Bc/3eceevBxZsBeTuJ2/erx9LUntd6Ud3Z2moE5BNvb26MLbzYqcuu5oVhqBdjl1Hm0jlerxG3idqMkbiMiImYqcRsAAACSQ9y2XSluxyrkjY+NmUF1KS+vVKKYtGfPHveSF51xt3+y4h564AlmyLYkbidXj5WvyK0vOwqFghmYQ1CRW3uSW2P3oZ4bG+uI3PpwYx2nVonbxO1GSdxGRETMVOI2AAAAJIe4bVtr3I5VMK03cleGhtyG6hu6q3bvdi943hn32Y+PuR/d/0QzaM+XuJ1ePVa+9qTWsfP5vBmYQ7Bj3To3Wuf8TmOtkVsfbqyfr1XiNnG7URK3ERERM5W4DQAAAMkhbtvWG7djFbn1s1ZQXco4cu/atcs9+1ln3W0f3eB+eN9Pm2FbErezU6utfUVuBeSOjg4zMIdgvjo2hXhr7D5UfF4u4OrDjfVztUrcJm43SuI2IiJiphK3AQAAIDnEbdukcTtWIUsXM7SC6lIqcl+xfr3buWOHu/npZ92tH55237/3Z4nbno3Pu689qbUVyLr2djMwh2Ahn48ivzV2H+oLIMXBhXFWH26s29cqcZu43SiJ24iIiJlK3AYAAIDkELdt08bt2KSRW7Fx+7Zt7qYbzrqP/u2M++49v0Dc9qzPyK1j6qKO2vfaCswhqIti6v5b4/fhwsitDzfW7WqVuE3cbpTEbURExEwlbgMAAEByiNu2WcXtWIUxreC1oupSKrZq24i5rVvdddeecbd8YKv7p2/+6yhuHz50yPwZTK/Ou7aJ8RW5K5WKy+VyZmAOwWKxGMU7a/w+VPTV+daHG+vfa9Vn3J7ZvDnavsZacV6ry8Xt2ZmZ6DUizfGJ242TuI2IiJipxG0AAABIDnHbNuu4HauAphW8VlRdSsVWjWfrli3u4tWn3Btfuz6KYdZtMTsvr1Si1bS+IvdQ9XFta2szA3MIdnV1RReCtMbvw5VWNq+kz7i9Y/t2d+2lne7kyaNu586dbjLBKu7l7t/uXbvc027a6Y4dO+bm5ubcRHUs1jGWk7jdOInbiIiImUrcBgAAgOQQt219xe3YJJFbaosTrXKtdxU4JjeO3NbjmFatBh6s/o6QI3d3qRTFVmv8Iekzbh/Yv9/9zfs2un/8xq+4v33/bnf99Rdd9bXTTU1NRR/KrOMtdLm4ferkSfetO3/D3fOl33Jvf+sxd/bsWbdt27a6Ijdxu3EStxERETOVuA0AAADJIW7b+o7bsYpKiqdWVMWw1JcRerysxzGt2n9akXDt2rVmYA7Bnp6eaMWyNf4Q9Bm3jxw+7D5xy5ZH9r3X9kAf+Zvt7mlPvRS93kxXHz99OLOOG7tc3L5w9dXunrt+85Hj3/fl/+L+/B2H3dXnz7vt27fXFLmJ242TuI2IiJipxG0AAABIDnHbVltGWBHIl1oZTORuDRW5lwuhaVTk7i+X3Zo1a8zA3Gw1rt7e3mh/aGv8zdR33P7kh7Y+Ep9jv3fPL7qP37LFPeMZl9zevXujMehDmnX8euJ27IN3/0f3vj8/4C5evHrF7VCI242TuI2IiJipxG0AAABIDnHbVttE5PN5Nz4+bsYgHypOEblbR20N4ytyK4SW+/qCjtwa33LBttE2I27Hfv/en3O3fmSze/azLrr9+/ebkTtJ3I79+6/9e/fX793rrrnmwpKRm7jdOInbiIiImUrcBgAAgOQQt23n74FcKBTcFevXm1HIh4pU2ldbF5K0oiqGpSK3r5XMOq5WSocaubWNSn9/f7Ti3Bp/I21m3I79wX1Pcp/5+KR74fMvuQMHDkSvQ/rQpuOnidux8Z7fNxh7fhO3GydxGxERMVOJ2wAAAJAc4ratdYG/YrEYRWcrDvlQsUpRncjdGupin75WMmulbk9396I5GYqK3AMDA02N3CHE7dgf3f9E9/lPrncvffFFd+jQIXdl9RjLnZta43astee3ddxaJW7XJ3EbERExU4nbAAAAkBzitq0Vt2O7urqi7UOsSORDIndr6TNyK0J2l0rmvAxBPW8Gq+fgyZs2meP3aUhxO/ahB57gvnDrsHvZS865/fv2uS2zs+bx643bsfGe3zfdeM5dtXu3m9m82Tz+ShK365O4jYiImKnEbQAAAEgOcdt2ubgdq8ioKGTFIh8qGK4fHzeDKobn2Oiot5XM+nJFX7JY8zIE9fzRlzFptsqo1+j5YUTrWvURt2MfevBx7g2v2+N27dxpHj9p3I7Vnt/XX3vGzc7MmMdfSeJ2fRK3ERERM5W4DQAAAMkhbtvWErdjtV3EcmEsaxXxxsfGzKCK4anHylfk1jY52i7HmpchmMvlogukNipy63k/UX0uWvF6JX3GbfmX797v9u3dax4/bdyWz3vudW6pleErSdyuT+I2IiJiphK3AQAAIDnEbdt64rbUBf904T9fFxa0VDAlcreOeqx8bdehbWs6CwVzboZge3u7G64+rxoVufV7FKutiL2UvuP2+99zINqaxDp+FnH7+cTthkncRkREzFTiNgAAACSHuG1bb9yOVeTu6+vztueypSK3tsCwgiqGp7aW8RW5dexCPm/OzRBct26dGxkZMcfuwyhyT05G8d8K2vMlbtvhuhaJ24iIiJhC4jYAAAAkh7htmzRuxypyl8tlb9tRWCqo62KGVlDFsNR+1AquvlYyj42NuY6ODnNuhqDGNjo6ao7dh49E7uoHKCtsS+K2Ha5rkbiNiIiIKSRuAwAAQHKI27Zp43bs2rVro/jTyMitrVGI3K2h78itgKzV0tbcDMF8Ph9t12KN3Yc6z3p+6IMUcfvHErfrk7iNiIiYqcRtAAAASA5x2zaruB2r4w0ODHjbjsJSEW9keNiMqhiWity6OKSvyK15oH2vrbkZgoVCIdpSxRq7D6+sujByE7ftcF2LxG1ERERMIXEbAAAAkkPcts06bsfquIqZjYzcina6mN/CoIrheXml4jZu2OAlcuuYmgchR+7Ozs4o8lvj9+XU1FT0wWq5uH340CH3iVu2mFG5VpeL21efP0/cbiGJ24iIiJlK3AYAAIDkELdtfcXt2Fwu5yqVireVupZE7tYxjtzW45hWzTnNPc1Ba26GYFex6O3+L+VyXzjt3bPHvftPt7qHH7zMDMu1uFzcPnb0qPvSbV3mz9UqcbtxErcREREzlbgNAAAAySFu2/qO27FaRavg3MjIrZCleGpFVQxLzQ09XtbjmFbFXP2ORs31JJZKJW/3vx63btniDh086H7vFWfcXZ/tcQ8/+JNmYF7O5eL29m3b3MkTJ9zb33rE3XvXb5g/v5LE7cZJ3EZERMxU4jYAAAAkh7ht2+jgt669PdoX2QpPvtTKWCJ3a6jIvdy2GWlU5NZ+8Lr4qTU3Q7C7u9vb/a/V6KKwmze7I0eOuFe+4oK787YB99CDjzNDs+VycVtqD/C5uTl35swZ99Y3nXDfvPO/mcdZSuJ24yRuIyIiZipxGwAAAJJD3LZt1mrWjnXr3OjoqBmgfKgV40Tu1lFfgPiKvIq3/f39wUbuNWvWuJ6enigCW+P3rX6vLjypsKnIffjwYfc/fueCu/1TI+5HDzzBDM7zXSlu63mo42/cuNFt3brVnTp1yr3p9afd1+/IVX9+5e1QiNuNk7iNiIiYqcRtAAAASA5x27bZWzXkOzrc+NiYGaJ8qMitC/lVhobMqIphqcjtK/JOT0+7crkcxWRrbjZbjauvtze6EKQ1fl/GcTtWH8aurP73gwcPuhe/8KL73CeucD+8/4lmeJa1xu1YRe4tW7a4EydOuNe+5qy7+/Ody+75TdxunMRtRETETCVuAwAAQHKI27ah7ENcyOfd+vFxM0j5UJH7ivXridwt4ujIiJv2FHl1XEXkkCN3ua/P2/1f6MK4HasPZXq9OXDggHvB8y+52z425X5w35MWxed643asQurs7Kw7duyYe/Wrzi+55zdxu3EStxERETOVuA0AAADJIW7bhnaRvc7Ozig6W2HKh9qHWVGdyN0ajo2Oeou8irqKl6FGbm2jou1Uoj2xjfFn5VJxO1YfzjZVnzf79u1zz37WRXfrRza779/7c4/E57969/5EcTs23g5lqT2/iduNk7iNiIiYqcRtAAAASA5x2za0uB1bLBb/OXIZgcqHceS2giqGpyK3r8irvb51YUdrXoagIvfAwEA0Z63xp3WluB2rD2mK3Hv37nU333zRffz/bHXfvecX3TveOuf2VF+brGPLleJ2bBy54z2/v3DrsHvogSe4p9101s3OzJjHXknidn0StxERETOVuA0AAADJIW7bKuKFGrhlV1dXtCevFap8qGCoPcCtoIrhqcfKV+RWCC2VSua8DEE9b3UOso7c2ovcis1LqQ9r+hm9Hp05c9hdfW6H2zY3Zx5b1hq3Y3X8eM/va6/Z6w7s3+1mNm82j72SxO36JG4jIiJmKnEbAAAAkkPcttUKWMWxwYGBoCN3d6nkJiYmzGDlQwVTInfrqFX3vlYyK8bqSxZrXoZgLpdzlUol2kfeGn8SdSytYLdi81LqQ5tiqH52ufhcb9yO1fHTftFF3K5P4jYiImKmErcBAAAgOcRtW8XtOPwo6CrgaNsDK6KFYE9PT7Rtwvxg5VOdE50jK6hiePqM3BuqH0q0J7w1L0OwPZeLntOZR+7q800fyKzgbLnSnuhJ43ZsmvtH3K5P4jYiImKmErcBAAAgOcRt2/lxO1ZBt1wuB3thPY2rt7e3oZFbwW50ZMQMqhiWujioLkqaZeSdrwJ6oVAw52YItre3u5Hh4aZFbuL26pG4jYiImKnEbQAAAEgOcdvWituxilR9fX1BR+5ydXwrxbQsVVAncreGviO3tq3J5/Pm3AzBdevWRXPVGntSdS71HNAHNCs8S+L26pG4jYiImKnEbQAAAEgOcdt2ubgdq5illdKhRm5to9Lf3+/twoKWOidaHWtFVQxLRW5tKeIrcus51NHRYc7NENTYanme1+vU1FT0QW1hfCZurx6J24iIiJlK3AYAAIDkELdt64leusBcT3e3GdBCUJF7YGCgoZFb52S4eh6tqIpheXmlEoVVX5Fbq6S1WtqamyGoVebj4+Pm2NO4MHITt1ePxG1ERMRMJW4DAABAcojbtklWdCoQdZdKZkALwba2Njc4OOjtwoKWOidE7tYwjtzW45hWhdfh4eFo32trboag9gvXdi3W+NOoqK0YStxePRK3ERERM5W4DQAAAMkhbtum2a5Akaqrq8sMaCGoyK0tKXyt1LVUPFM8taIqhqW+jNDjZT2OadWc0/Mrl8uZczMEi8VitF2LNf40rvR804UprWhdq8TtxkncRkREzFTiNgAAACSHuG2bxV68CmQKZVZAC0EFRgXnRkZuhX8id2uoyK3tZazHMa2ac/qCJdfWZs7NENQXVL5Wsi+lzstE9Zxb8XoliduNk7iNiIiYqcRtAAAASA5x2zbLC81pq4POQsEMaCGorSIUMhsVufV7FA0VN62oimGpC4T6itzaIke/Q39NYM3NECyVSt5Wsi+lniM651bEXkriduMkbiMiImYqcRsAAACSQ9y2zTJux+qidbp4nRXQQlAX/dPF/6yx+1AxTqvbidytoSL31OSk+VimVZFbFz3VxU+tuRmCumisr8i/lFHkrp5zffCzgvZ8iduNk7iNiIiYqcRtAAAASA5x29ZH3I7VsTs6OsyAFoIam8/7v1BFOa1uJ3K3hvoCZKWLIyZ10/S06+/vDzZyr1mzxvX29nqL/EtZS+QmbjdO4jYiImKmErcBAAAgOcRt20bEXUVCrZa2IloIapX5+NiYOXYfavXu+vFxIneLqOeIr8it45b7+qKYbM3NZqtx9VXH5+v+L6UCtsK6PggSt5sncRsRETFTidsAAACQHOK2baNWLitIabsH7XttRbQQLBQKUXS2xu/DOHJbQRXDU88Vrbi2Hsu0KuRqpXTIkbtcLnu7/8s5NTUVfSAkbjde4jYiImKmErcBAAAgOcRt20ZuyyEVpvR723M5M6KFYGdnZ7RHtjV+Hypya+W4FVQxPPVY+YzcPT095rwMQW2josjbzMhN3G6cxG1ERMRMJW4DAABAcojbtivFbQUlxVfr39KoQFWpVFwu4MjdVSy6jRs2mOP3oYKhHg8rqGJ4atW9j+eG1AUdu0slc16GYFtbmxscGPB2/31J3K5P4jYiImKmErcBAAAgOcRt25Xi9saNG6OtACYmJqLfZd0mjYpjCoWKZVZEC8FSqRRFMWv8PiRyt47aN91n5Na8K3V1mfMyBPW81XlolchN3K5P4jYiImKmErcBAAAgOcRt21rjdqwid5ptAZZScUwrQbXtgRXRQrC7uztaUWuN34e6iJ8uxrkwqGJ4KnJfkXI/6OVUZCwWi+a8DEH9BYb+EsPX/c9K4nZ9ErcREREzlbgNAAAAySFu29Ybt2MVeX2ELK1a7u/vDzZy68J62hNZeyNb4/ehfpcuxmlFVQxL35FbH4y0J7w1N0NQF4wdrr6uhBq5idv1SdxGRETMVOI2AAAAJIe4bZs0bsdOTk56CVnT09OuXC5HMdmKaM1W4+rr7Y32JLfG70Mid+uoyK2LkvqKvNoKpVAomHMzBBW5NVetsTdT4nZ9ErcREREzlbgNAAAAySFu26aN21Jv1rxF7qmpKCKHHLkV4RXjrfH7UKvmtTrWiqoYlpdXKtFFSX1F7vGxMZfv6DDnZgh2rFvnRld4jWmkxO36JG4jIiJmKnEbAAAAkkPcts0ibsfqTZtWF19pHCetOq62Awk1cmsbFW2nom1VrPH7UKGOyN0axpHbehyzUAFZIdmamyGoAK8Qb429kRK365O4jYiImKnEbQAAAEgOcds2y7gdqzdvvrbr0KplXdjRCmghqMitC2PqApnW+H2oYKd4akVVDEt9GaHHy3ocs1BbgaxrbzfnZggW8vloSxVr7I2QuF2fxG1ERMRMJW4DAABAcojbtj7idqzexGlbEeu4aVWkKpVKZkALwba2tihmNjJya2UwkTt8tR+39fhlpbZAUUTXvtfW3AxBXRRTF960xu9T4nZ9ErcREREzlbgNAAAAySFu2/qM27F6M+crcivodhWLZkALwVwu5yqVirc9lxeq36MLGSqgWmEVm6/vuB2ruaC5pzlozc0QLFafuwqo1vh9SNyuT+I2IiJiphK3AQAAIDnEbdtGxO1YhRJfF15U0NVqUCughWB7LhedbyI3Nipux2ouDFV/p/6awJqbIdjV1RW91ljjz1Lidn0StxERETOVuA0AAADJIW7bNjJuxyqY+LrwovbzLRQKZkALQW0VoX2RGxm5tf0DkTscGx23Y7VFzmD194ccubtLJTcxMWGOPwvTxO3+cjn6As16HV6tErcREREzlbgNAAAAySFu2zYjbsf6jNzjY2Mun8+bAS0E161b50ZHRsyx+1BhU+GfyN18mxW3Y/WcU6zVxU+tuRmCPT09bnJy0hx/GpPG7b7e3uhLAT1vrdfh1SpxGxERMVOJ2wAAAJAc4rZtM+N2rPbN3uTpwou6fx0dHWZAC0GNbaXHIEvjyG1FV2yMzY7bsYrcWo28Zs0ac242W42rt7fXTWUYuZPEba0mj88RcRsRERFTSNwGAACA5BC3bUOI27H6XYqv1jjSqlXSClMLA1ooapX5+Pi4OXYf6jxrdbsVX9GvocTtWF3stdzXF3Tk1viyuChtvXG7uGAff+I2IiIippC4DQAAAMkhbtuGFLdjFaB8RG7tPz08PBztez0/WIVkZ6EQ7ZFtjd+HWr2rOWBFWPRjaHE7ViuktVI65Mjd39+faiujWuO2VrR3GF+GEbcRERExhcRtAAAASA5x2zbEuB2rC8vp/lnjSqMi9+WVisvlcoviVSgWi0W3ofom2Bq/D4ncjTNt3NYXP76eG3Kyeuye7m5zXoag9gofGBhIFLlridt9fX1LvjYQtxERETGFxG0AAABIDnHbNuS4HauQpyBtjS+NOqZCoy4UZ4WsEOzq6or2JLfG70Nt/aAtXKwoi9mYNm5rf/pHnhue/spB6tjab9qalyGo5+1g9XzWc/9XituK+muXWblO3EZERMQUErcBAAAgOcRt21aI27FaUeojciuOKZKFHLkVGRXmrPH7UFtUjAwPm3EW05ll3I71uV+9vlzRlyzWvAxBPW91Tmt5bVgubuuvJazjz5e4jYiIiCkkbgMAAEByiNu2rRS3YycnJ71Ebm1zoO0OtO2BFbZCUCtLFfmt8fuQyJ29PuJ2rJ6v+nfr59KqbXJqCcDNUluJaLuh5V4brLit/bXzHR3mMRdK3EZERMQUErcBAAAgOcRt21aM21JvEH1Gbl24LtTIrQvr6cJ/Cs/W+H2ooD5cnS9WrMX69Bm3Y7XaOs2FF5dTFzzVhU+tuRmCumCs5qr12rAwbpeX2V/bkriNiIiIKSRuAwAAQHKI27atGrdj9UZRkfdKY+xp1f7Til+KyVboarYaly5+p3Fa4/eh4iCRO52NiNuxipO+Ivf68XFXyOfNuRmCCtEjIyOPGvP8uN3b01P3F1jEbUREREwhcRsAAACSQ9y2bfW4Has3jFOeIq/iuVZKhxy5y+Wyt4hpqUioLSCseIvL28i4HatIOe1pfoyNjbmOGrf1aIYa2+i/vM7FcVt7iCd5PhO3ERERMYXEbQAAAEgOcdt2tcTtWL1x9LWSWZG7p6fHjF4hqFWoCneNjNza/qLVIrdWHG+ZnXGzMzNufGwsis3W7XyZJm5vmZ11u3fvip77W7Zsqfv56XMltwKy4q81N0Mwn89HczXNanPiNiIiIqaQuA0AAADJIW7brra4Has3kL4it/af7i6VzPgVgm1tbW5wYMA92dOFBReqvY11scFGR+Kkzm3d6j71oQ53y19PuJtuPOO2b9sWBe9GjT9N3N6xfbt75cuvcl/53H93b3r9aXfq1Cm3tXp/6nme+r4gqS5Aqn2vrbnZ6hK3ERERMYXEbQAAAEgOcdt2tcbtWJ/bMWiLg1JXlxnBQlCRe2hoyMtFNy1bJXLv27vXffX2nHPf/gn3/Xt/1t364Wl389PPup07dkQXS/Q9/jRxe/euXe5Nrz8ZjV1+887/5t76phPuzJkzbm5uzk1MTJjPg/n6jttSc0GvL+11XKyxFSRuIyIiYgqJ2wAAAJAc4rbtao/bsT63Y9Cxi8WiGcNCMJfLuUql0tDI3YhInNT9+/c/Erdjf3jfT7vbPrrBPefZZ92uXbu8Rvq0cfstbzzzqLHLe+/6DfeOPznqzp0757Zt27Zs5G5E3I7VXNDc0xy05marSdxGRETEFBK3AQAAIDnEbdvHStyO9Rm5FXQ7OzvNKBaC2ipiuPqYNypya1uURm73UatW3I790f0/5T73iRH3wuefdVft3u0lcvuI27H3f+XX3LvfechduHDebd++3YzcjYzbsZoLuu/6awJrbraKxG1ERERMIXEbAAAAkkPctn2sxe1Y3a9NnvakVtBNc9E6365rb4/2RbbG7sM4ci+MvM1yubgd+9ADj3df+NSge9mLz7g9e/ZEW9BkdeFMn3E79ttf/Q/uL9+93z3l0gW3c+dONzk5+cjcb0bcjtVc0H7wuvipNTdDl7iNiIiIKSRuAwAAQHKI27aP1bgdq/vn68KL42NjLt/RYUayEOxYt86NrvD4Z6nOs86JFXwbaS1xO/bhBx/nvvjpPveK/3E6+jmF4bSRuxFxO/Yfvv7v3Afet8dde82FaLuVqamppsbtWP31RH9/f8tFbuI2IiIippC4DQAAAMkhbtuGHrf1RtD671mrlbm+IrcCskKyFctCUAFe0dkauw8VNjXvrPDbCOuJ27EPP3iZ+/JnO93vv/KU279vX6rtShoZt2P/8Rv/xv2fv97lrr/+aren+rqxZXbWPH6j1cVey+WyW7NmjTk3Q5O4jYiIiCkkbgMAAEByiNu2ocZtvQGcnd3sDh7cu2hbBZ9qj2KdU+tcpFVbgWhLECuahaC2UtH2IdbYfTg9NdWUyJ0kbv/Yy9zdn1/njh/bHe1fbh1/JZsRt2O/+61/5f73m3a6vXv2mMdvlpoLfb29wUdu4jYiIiKmkLgNAAAAySFu24YatxVVLlw45P7+a7/iPvi+q9x11/14WwXr9lmryO3jwos6pqKoLu5oxbMQ1EUxdXFMa/w+VNgcHRkxQ7AP08Xtf/Y5zzyaeMzNjNvyjk+PuGNHj5rHl1OTk17/kmE59bt7e3qCjNy5XM51d3ebr8OrVeI2IiJiphK3AQAAIDnEbdtQ47Z+7zNuvvBIkPvON3/Z3fKBne7GGy9G91uRW28SrZ/NUu1P7CtyVyqVKJhZIS0Ei8ViFLes8ftQYVOr260gnKVZxO0XPO9U4lXnIcTtUydPmseXehzi+a/nYTMit553CsnWvGyG2laov1yOwvvC1+DVLHEbERExU4nbAAAAkBzitm3QcfsZP47bsdpW4SN/O+ee/rRLbs+ePdGevXqzaB0jS7Utiq/IPTQ05Nra2syoFoKlrq5oJa81fh/6jtzE7drjdqyej5uaELk170qlkjkvG2Wxs9MN9PdHErcRERExhcRtAAAASA5x27bV4nbs9+75efepD8+4Zz7zotu3b18U3vSm0TpWVur4viK3VscODg4GHbm7S6VoRa01fh/qdyXd13o5idv1x+3YjRs2RBcEtX7Op/q9XcWiOS99qa1RNOfjsE3cRkRExJQStwEAACA5xG3bVo3bsT+472fcbR/d5J77nItRtGxU5FYAtM5XWhUOFdHWrl1rBrcQ7Onp8Xb/LbV6N8vITdxOHrdjFT2bEbk3VJ972hPempdZqi+ZdIHL+WGbuI2IiIgpJW4DAABAcojbtq0et2N/eP9Pu89+YoN70QsvuYMHD7orq2PXm0jr2Fmp42vvb+u8pVXhsFwuB3lhPalx9fb2NjxyX16pmMG4Honb6eN2rOKntgayjuPT9ePjrlAomHMzrev+ZX/thWGbuI2IiIgpJW4DAABAcojbtqslbsf+6P6fcrd/atS97CVXRxFT8dk6fpbqzeq0p8it4/b19QUducvV8fm6/5baoiJN5CZuZxe3Y6PI3cA5EDs+Nuby+bw5N5OoYG5F7VjiNiIiIqaQuA0AAADJIW7brra4HfvQA493H/mb9W7Xrl3m8X2oN62+Ap+Co1ZKhxq5tY1Kf39/w7aq0L7n2qJCodgKyMu5c8eOlo3bO7Zvd6999SFzTLXqI27H6jmg/eOt48b62LNej0VHR4c5N2tRzytdONUK2vMlbiMiImIKidsAAACQHOK27WqN2/KeL/2mO3r0qHl8n/rcqkEXWezp7jYDXQgqcg8MDAQdubW9ydNuOuA+94mRaKW/NXdWsllxe8vsrDt27Ij783dc5R68+z+aY1tJn3FbrvQFj57bE9V5vFIET+LoyEi0rYg1N5dSc1bR2orZCyVuIyIiYgqJ2wAAAJAc4rbtao/bJ06cMI/fCBWGfEVeBdruUsmMdSGoC/INDg56CZiWitxXVM95LZFbt1EQ16r+5zz7rPvMx65wP7zvp805tJTNittyZmbGbd++3V19/rz7s3cccfd9+b+aY1zKpsft6vMivq3mcdZzRHNheHjYtbe3m3NzvrqNttWxQrYlcRsRERFTSNwGAACA5BC3bYnb/vUZuRUKu7q6zHAXgorcirk+tqKwVCjVxQZrjdwK4tqm5Jk3n3W3fmTK/eC+nzHn0kKbGbc36T5Wx63Vz9u2bXNnz551b3/rsep8/y1zrAsNKW7H6vnuI3LrNS6Xy5lzU3t1WwF7OYnbiIiImELiNgAAACSHuG1L3G6cuk8Kk9Z5TqtWIheLRTPihaACoy4C2ejIbcXlhSo267baz/ppN511n7jlSve9e37OnFOxIcTtWEXuubk5d+bMGffmN55w3/jifzfHHBti3I718RzRnNM5z7W1RXNR+2vrCyErXq8kcRsRERFTSNwGAACA5BC3bYnbjVf3zdd2HVqJ3FkoLIrLoahtILRlRKMit1bMj4+NmZF5oQqguu22uTl3w/Vn3Ic/uNX907f+P+bcCiluz59XW7dudSdPnnRv+KPT7mtfaK+O9bJFYw85bsfqNln/tYOecwrUPTXur21J3EZERMQUErcBAAAgOcRtW+J28/Sx33CsViIX8nkzMIegLvqni/9ZY/ehQmmtMTqO3HNbt7qnPOWM+9u/2ua+841fftTcCjFux+q5Mzs7G8391/7BWfeVz3W5hx/8ceRuhbgdm/WWPnrOWdG6VonbiIiImELiNgAAACSHuG1L3G6+2lZCj6N1/tOqx7ejo8MMzCGosa00B7NU4bWeKK3bbpmddReuPuXe/xc73T98/d9Gc+sZTz8UxXnrZ1bSd9yOVZjUxSePHTvmXvXK8+5Ln+l1Dz/4OPf5Twy5Y0ePmsee2bw5isn6AGYdsxaXi9s6vuJ5vcfXfZnOIHITt+uTuI2IiJipxG0AAABIDnHbNtS4rahy7TUnnLWtQq22StyOVeT2tV2HQqxWS1uBOQR1cT+tlrbG7kMF2HritG47OzPjzp875d74ugl35NCMG64+f6zbrmSj4nasnkubN292R44ccS96wXH3B698sttTfe2wjr192zZ38fxOd/ToYbdjx45oTlrHXM7l4vbuXbvc9dfuisayZcuWul9fovtiHLdWidv1SdxGRETMVOI2AAAAJIe4bRtq3NYbwO3bt7vfe8UJ9+UF2yrUaqvF7dhJT5FbxxwZHo72vbYCcwgWCoVoSxVr/D7UKmKdEytCW+q2uninnjeK1NZtVrLRcTtWzymtftZKdGkd+8D+/e5v3rfBfftr/7f7q/fsc9dcc8Ht3LnTTdaxVclycVvboXzzi/9f9/U71ro3v+GUO336dHQxzHpeZ9I8N4jb9UncRkREzFTiNgAAACSHuG0batyWCivaVuHo0aPu9/7n1e7Oz5SjbRWskG3ZqnE7VkHRV+TWY9+ey5mBOQQ7OzujiGyN34f1Ru40Nitux+rLE+u48sjhw+4Tt2x55DmkbVg++L6r3HXXXXDV11A3NTUVfTizjhu7XNy+cPXV7p67fvOR43/rzt92b3vLCXfmzJkocteyUpy43TiJ24iIiJlK3AYAAIDkELdtQ47bsdFWBJs3u8OHD7uX/+4Fd8enK+6hBx7/SCBbylaP21JvhH1G7kql4nIBR+6uYjG6AKE1fh8q/CbdbqRWQ4/bn/zQ1kXPpe9885fdLR/Y7p5606XodWe5yF1P3I69965fd+982xF3/ty56C82lovcxO3GSdxGRETMVOI2AAAAJIe4bdsKcTtWbwqvrI7p0KFD7mUvvehu/9SY+9H9P7UolMWuhrgdq/uu1cXWY5TWJ2/aFEXXtrY2MzCHYKlUisKkNX4f6nf5itytGLdjv3vPL7qP/t1Wd/PTL7k9e/ZE25xobs4/fpK4HfvA3b/q/uJdB92FC+eX3PObuN04iduIiIiZStwGAACA5BC3bVspbsfqzaHu94EDB9yLXnjJffYTG9wP7//pRaFsNcXtWN13rZq1Hqu0KnIPDgy4tWvXmoE5BLu7u5eNs1mrGHp5pWJG6qS2ctyO/f69P+8+9eEZ98xnXnT79u2LxqS5qeOniduxy+35TdxunMRtRETETCVuAwAAQHKI27atGLdj9SZRUW3//v3uuc+55D790Se779/7s48EstUYt2N135eLiGncND3t+vv7g43ca9ascT09Pd5Wsltqa5SsIvdqiNuxP7jvZ9xtH93knv+8i9GXTXo90vyxji1rjdux1p7f1nFrlbhdn8RtRETETCVuAwAAQHKI27atHLdj9WZRwW/v3r3umc+45D75oVn3vXt+IYrb2sLE+pnVoi666Ctya8uJcrkcxWQrMjdbjauvt9fb/V+oVgzrfCtOW9G6VldT3I794f1PdJ/7xBXuBc8/7/ZVn4dbZmfN49cbt2O/881fch/64A533bXn3O5du9zM5s3m8VeSuF2fxG1ERMRMJW4DAABAcojbtivFbcUgK5CFqN40KshqL+Drrzvrfv8VT3Zzc3PmbVebilC679ZjmFbFY0XkkCO3Iryv+7/QtJF7Ncbt2B898AT3R6/Z53bt3GkeP2ncjtWe39dec5q43SCJ24iIiJlK3AYAAIDkELdtV4rbUlsB6A2ZFcpCVGPVhegUAa0L0q1mFaOW2xYijdoGRNuBhBq5tY2KtlPxdf8Xqsh9RfWc1xu5V3Pcln/57v3R6m3r+Gnjtnzec651S60MX0nidn0StxERETOVuA0AAADJIW7b1hK35ZVVFTf1xswKZhiWPiO34qgu7GgF5hBU5NaFMXWBTGv8Wavfs358vObIvdrj9vvfc8Dt37fPPH4Wcfv5z73OEbcbI3EbERExU4nbAAAAkBzitm2tcTtWq1UnFbmNaIbhqT3TFUOtxzKtCoWlUskMzCHY1tYWxeRGR+6FMXuhxG3idqtI3EZERMxU4jYAAAAkh7htW2/cjo0i92Nsy49WVpHbV+TduGGD6yoWzcAcgrlczlUqlWjOWuPPWq2YHx8bM8O2JG4Tt1tF4jYiImKmErcBAAAgOcRt26RxO5bI3Voq7vmK3LrIYmdnpxmYQ7A9l4vmfCMjt55fxO0fS9xuLYnbiIiImUrcBgAAgOQQt23Txu1YBcPH2sUbW1k9Vpo71mOZVm3NUSgUzMAcgu3t7W5keLhhkXt6aupRkZu4TdxuFYnbiIiImUrcBgAAgOQQt22zituxWhWsgGRFNQxPRW5fkVdbc+TzeTMwh+C6devc6MiIOXYfKnLr94Uetz9xyxYzKtfqcnH76vPnidstJHEbERExU4nbAAAAkBzitm3WcTtWkVv7PFtxDcNTwdNX5NYc6+joMANzCGpsY2Nj5th9qMht/fda9Rm39+7Z4977Z7NmVK7V5eL28WPH3Fc+lzd/rlaJ242TuI2IiJipxG0AAABIDnHb1lfcjiVyt5aTk5PeIrdWLWu1tBWYQ7CQz0dbqlhjD0mfcXtu69Zo9fbrXnPSffX2Due+fdmiuLySy8XtHdu3u9OnT7r3vPOAe+DuXzV/fiWJ242TuI2IiJipxG0AAABIDnHb1nfcjlWQ27hhgxnbMCz15ttX5NYxh4eHo32vrcAcgp2Fgruieh6s8Yegz7gt9YXU7OysO378uPvDV59zX/5st3v4wdoj93JxW2rl+vbt2935c+fcu95+2N335V83j7OUxO3GSdxGRETMVOI2AAAAJIe4batg42ulruWm6ekomFjRDcNSb8KnJifNxzGtmnOXVyoul8uZgTkEi8Wi21A9B9b4m6nvuK3HXLfT83RmZsYdPXrU/d7/vNrd+Zmye/jBx5nBeb4rxe34Sy7t9z43N+fOnDnj3vaWE+5bd/62ebyFErcbJ3EbERExU4nbAAAAkBzitq3iotT/JnKjpd6MT6XcJ3opNed0gcW2tjYzMIdgV1dXFGSt8TfDRsXtWD1PN2/e7A4fPuxe/rsX3B2frriHHni8GZ5lrXE7VtsWKXKfPn3avfkNp9zX71hrHjeWuN04iduIiIiZStwGAACA5BC3beevnNVWEdoyopGRe5rI3TLqTXnaiyEupbbCGBwcDDpyd5dKURy1xt9IGx23Y/X4X1n990OHDrmXvfSi+/wnx9yP7n/iovhcb9yOVeTesmWLO3nypPvj151Zcs9v4nbjJG4jIiJmKnEbAAAAkkPctrW2hdBF/3TxPysO+VLRVG/6rOiFYamtOnxFbq3oHxgYcGvXrl00L0Oxp7t7xUDs02bF7Vg9T/W6c+DAAffCF1xyn/n4hPvhfU96JD7/VcK4HavIHe/5/Rpjz2/iduMkbiMiImYqcRsAAACSQ9y2XW7P446OjoZdcDJW21/ozZ8VvTAsFb608t56HNOqyN3f3x9s5F6zZo3r7e31tif5cjY7bsfqeaqx7N+/3z33OZfcpz/6ZPf9e3/W/elb59ye6muTdWy5UtyO1fyy9vx+2lPPudnqf7eOvZLE7fokbiMiImYqcRsAAACSQ9y2XS5ux+bzeTc+NmbGIl8SuVtHBTDFaOtxTKtWiJf7+qKYbM3NZqtx9VXH52slu6W2cEnz3MgqbsdqLIrce/fudReuPuyuubjDbd+2zTy2rDVux2p+xXt+P/Wmq9yhA1e5mer/bx17JYnb9UncRkREzFTiNgAAACSHuG1bS9yOLRQK7or1681o5EPt76vQpjeDVvTCsFS09BW5NQ+0UjrkyF0ul73d/4VqX/ykz42s43asxqItRTS25eJzvXE7VsefqI49adiWxO36JG4jIiJmKnEbAAAAkkPctq0nbscWi8Vo32UrHvlQsWxSIc8IXhieCpxayWs9lmlVeO3p6THnZQhqGxVF0EZFblnvXzn4ituxK61iTxq3Y9Nc8Ja4XZ/EbURExEwlbgMAAEByiNu2SeJ2bFdXVxSqrIjkwyhyT0yYwQvDU5FbW2hYj2VaNQ+6SyVzXoZgW1ubGxwc9Hb/LWuN3MRtO1zXInEbERERU0jcBgAAgOQQt23TxO3YUqkURSMrJvmQyN1aam74irw6dqmry5yXIajIPTQ0lCrI1qvisv6ywnosJHHbDte1SNxGRETEFBK3AQAAIDnEbdss4nZsd3f3iuEsSxW5tAevFcAwPPVYab5aj2VaFeG0XY41L0NQz7NKpdL4yG2EZOK2Ha5rkbiNiIiIKSRuAwAAQHKI27ZZxm2pC+spACmQWXHJh1oVrGhlhTAMT0VuX5FX+7J3dnaaczME29vb3XD1edfQyD09/ajITdy2w3UtErcRERExhcRtAAAASA5x2zbruB2ryN3X27ti6MpSRW7t82wFMQxPRVZfkXf9+Lgr5PPm3AzBde3tbmR42By7L3WRS4Vl4rYdrmuRuI2IiIgpJG4DAABAcojbtr7idqwid7lcjlaPWrHJh0Tu1nJyctJb5B4fG3P5jg5zboZgx7p1bnR01By7L1c618TtpSVuIyIiYgqJ2wAAAJAc4rat77gdu3btWtff3x+tHrWikw83KXKnDGnYGPWGX1HVV+RWQFZItuZmCCrAK8RbY2+0xO2lJW4jIiJiConbAAAAkBzitm2j4nasIvfgwEC0utqKTz5UUJ+/5zCGq974K65aj2MWaisQbQlizc0Q1FYq2lLFGnujJG4vLXEbERERU0jcBgAAgOQQt20bHbdj29ra3NDgIJEbTfUBYMrTfu2Ko7qooy7uaM3NENRFMXUOrPH7lri9tMRtRERETCFxGwAAAJJD3LZtVtyO1e+vVCretqOw1P7fG6pvMK1whmGpDwIrxdKkas5p7jX7ObCcxWIxCozW+H1J3F5a4jYiIiKmkLgNAAAAySFu24YS9rSKVqtpGxq5p6aiN5pWQMOw1JcRPiP30NBQ9NcE1twMwVJXVxRmrfFnLXF7aYnbiIiImELiNgAAACSHuG0b2qpVRW7ti2yFKV9q+wu94bRCGoalYptW3luPY1q1Rc7g4GDQkbu7VHKTExPm+LOSuL20xG1ERERMIXEbAAAAkkPctg11S4Z169a50dFRM1D5UlFPbzytoIZhqeimPdStxzGtOq5Cpi5+as3NEOzp6YnmqzX+tBK3l5a4jYiIiCkkbgMAAEByiNu25XLZdXR0mAEtBDW2sbExM1T58MqqRO7WUaHUZ+TW82PNmjXm3Gy2Gldvb2/mkVv3O838J26vHonbiIiImUrcBgAAgOQQt23H/mV19MjISLRa2opoIVjI59368fFFscqXCmiTitxGXMPw3Lhxo9u0aZP5WKZVsbavry/oyF2ujm+lqFyvSbfrIW6vHonbiIiImUrcBgAAgOQQt23juC0VjXRRR+17bUW0EOwsFKLgPD9Y+TSK3BMTZmTD8FTk1t7Z1mOZVq2Q1krpUCO3tlHp7+/PfCW7YrU+kFnn25K4vXokbiMiImYqcRsAAACSQ9y2nR+3YxWPLq9Ugt2PWxaLRbeh+iZx4dh9qXMyQeRuGRUxfUVufdnR091tzssQVOQeGBjwErkVO63zPV/i9uqRuI2IiJipxG0AAABIDnHb1orbsYpIlaEh19bWZka0EOzq6opimTV+HxK5W0s9VnqOWI9lWhVKu0slc16GoJ63g4ODmUf+6enpZSM3cXv1SNxGRETMVOI2AAAAJIe4bbtc3I5VHFMkCzlyKzIqXFnj96HOiX6fFd8wPBW500TR5VSs1Zcs1rwMQT1v9SVV1vdfK8OtyE3cXj0StxERETOVuA0AAADJIW7b1hK3YxWztN2Btj2wIloI9vT0RBeCtMbvQ0Vu7fNsRTgMT20p4itya5scbZdjzcsQ1DZDes77iNzzgzVxe/VI3EZERMxU4jYAAAAkh7htW0/cjlXM0oXrQo3cuuCfLvynCwBa4/chkbu11BcgviK3LniqC59aczMEdcHY4eHh7CP3vzwHiNurR+I2IiJiphK3AQAAIDnEbdskcTtWEavc1xfFZCuiNVuNS+NbKbZlaRT4UsY7bIz6kKEvQHxF7vXj466Qz5tzMwTXrVvnRkdGzLH7dKr6fNS5tx6TWiRuN07iNiIiYqYStwEAACA5xG3bNHE7VoFQK6VDjtz95XK04twavw+X2o8Yw1MfNnyu8h8bG3MdHR3m3AxBjS2L14F6VKDWOde5tx6T5SRuN07iNiIiYqYStwEAACA5xG3bLKOWYpX2vLYCWghqGxUFKiI3WupDh1YVW49jFmqVtFZLW3MzBPP5vBsfGzPH7tN6V3ITtxsncRsRETFTidsAAACQHOK2rY8VmxMTE667VDIDWgi2tbW5wcHBaJ9sa/w+1NYouuCgFeswLPXhw9dWNgqzI8PD0b7X1twMwUKhEG2pYo3fpzrnOvfWYzJf4nbjJG4jIiJmKnEbAAAAkkPctvW5HYEuLtfV1WUGtBBU5B4aGkoVy+q11oCHzVdfRviM3Hr+tedy5twMwc7OzugcWOP3afRF0DJ/7UDcbpzEbURExEwlbgMAAEByiNu2jdhrV4GkWCyaAS0Ec7mcq1QqDY3caS+qh41T83fa01Y2mnOae5qD1twMwa7qc1cXSbXG71OdcytyE7cbJ3EbERExU4nbAAAAkBzitm0jLyR3xfr10WpQK6CFoLaKGK6ek4ZG7oQX1cPGq9Dna792bZEzNDgY/TWBNTdDsFQqRXHYGr9PF+5bT9xunMRtRETETCVuAwAAQHKI27aNjNux2s+3kM+bAS0E17W3R/siW2P34ZVVidzZqVXx27Ztc3Nzc26yel6t26RRq5h9Ru7BgYHo4qfW3AzB7u5uNzkxYY7fpzrnOvfE7cZJ3EZERMxU4jYAAAAkh7htu1Lc1mprXyFrfGzM5Ts6zIAWgh3VsY02MP4r2inG6pxbURVrc+fOne6D7x10733XnLvuugtu165dUfC2bptG7Snv66KkCrn9/f3BRu41a9ZEoVdfyljjD1Xidn0StxERETOVuA0AAADJIW7brhS39e/aLkErmX2FLAXkjnXrzIgWgvl8Pgrx1th9GEXuiQkzqOLKHjx40N312R7nvv0T7jvf/GV3ywd2uhtvvBg9X3zsde4zcmvf6XK5HMVka242W42rr7fX24U3s5a4XZ/EbURExEwlbgMAAEByiNu2tcbt2NGREW8hSwFdW4JYES0EC4VCtKWKNXYfKnJPELnr9tChQ4/E7djvfutfuY/87Zx7+tMuuT179kTRWB8yrJ9PqsKpt8hdfc4pIoccuRXhfV14MyuJ2/VJ3EZERMxU4jYAAAAkh7htW2/cjtV/9xG5FXR1UUdd3NGKaCGoi2LqDao1fh8SuevTitux37/3592nPjzjnvnMi27fvn1u06ZN0WNpHSepeqz0mFmPZVr11xM9PT3BRm5to6LtVHztSZ5W4nZ9ErcREREzlbgNAAAAySFu2yaN27H6dx8hS3GwUqm4XC5nRrQQLBaLUfyxxu9DrQpWnLOCKv7Y5eJ27A/u+xl320c3uec+56Lbv39/y0VubVujCzta8zIEFbl1YUxfK9mTStyuT+I2IiJiphK3AQAAIDnEbdu0cTtWe1L7itxDQ0Oura3NjGghWOrqiqKZNX4fKhhqn2crqGJtcTv2h/f/tPvsJza4F73wUrRX95XV86sPH9Zxk6oQ7Stya96VSiVzXoagnrd6fQglchO365O4jYiImKnEbQAAAEgOcds2q7gdqz2pfYQsHVMrQUOO3N2lUhQyrfH7kMhtW0/cjv3R/T/lbv/UiPudl16Ift7HSu7JyUlvkXvjhg2uq1g052UI6i8w9JcYvu5/rRK365O4jYiImKnEbQAAAEgOcds267gd6ytya3W4IpO2PbAiWghqT2TtjWyN34cKsYqbVlB9LJokbsc+9MDj3R23DrizZ/Z72edcH2x8zo0N1eNrT3hrXoZgey4Xve40K3ITt+uTuI2IiJipxG0AAABIDnHb1lfclpWhIXfF+vVeQpYid7lcDvbCehpXb29vYyN39ZwoRllR9bFkmrgd+/LfOeqmq+fTOn5a9eHGevyyVF8uFQoFc26GoC4YOzI8bI7dp8Tt+iRuIyIiZipxGwAAAJJD3Lb1GbdjfUbu6akp19fXF3TkLlfHp3Fa4/fhYz1yZxG3X/XK09GKeOv4adWHG+tx86H2ws/n8+bcDMF169a50RVeg7KUuF2fxG1ERMRMJW4DAABAcojbto2I27GK3No2wUfk1gpprZQONXJrG5X+/n4vF91cSgV1nW8rsK5miduL1fO4o6PDnJshqLGNjY2ZY89S4nZ9ErcREREzlbgNAAAAySFu2zYybsdeXqlEe0T7iNy6oGNPd7cZ0EJQkXtgYMDLfuRLqcitN9RWaF2NEreXdnRkJFotbc3NECzk89GWKtbYszBN3NZfiGh81uvwapW4jYiImKnEbQAAAEgOcdu2GXE7No7c1u9NqyJWd6lkBrQQbGtri85BIyP31GMkchO3l1dfKg0PD0f7XltzMwQ7C4VoKyNr/GlMGrf1hdnaNWuiLwas1+HVKnEbERExU4nbAAAAkBzitm0z43bscHUcik7W70+r4nlXV5cZ0EIw19YWbdfiYxX7UmoLF73BtsLrapC4XZuac3oNyOVy5twMwWKxGG2tY40/iUnidld1DPF4iNuIiIiYQuI2AAAAJIe4bRtC3I5V5Na2ItY40qpAplA2P5yFpAKjHo9GRW79ntUauYnb9am5oC9Y9NcE1twMQX1BlcVfedQTt/vLZZdfsE85cRsRERFTSNwGAACA5BC3bUOK27Ejw8PeIre2OigUCo8KViGprSK0ZUQjI/ekIveCANvK7t27133pM91mtK7Vx1LcjtUWOYPV51/IkVtbDaX5K49a43a5r8+1GyvaiduIiIiYQuI2AAAAJIe4bRti3I5V5NbqYmtcaR0fH3f5fH5RvApFRTRd/M8auw+jyD0xYcbYVnNmZsa97CWH3Jc/V3IPP3iZGa9XMuS4rXFpFfOm6Wnz39Oq4+qip7r4qTU3Q1B7YCf5AqyWuN3b07PkfSduIyIiYgqJ2wAAAJAc4rZtyHE7VpF3emrKHF9adf86Fmw9EJIa20qPUZYqck+0eORWkFPgPnr0qPu9/3m1u/MzZffwg48zI/ZShh6342PpvvqM3P39/cFG7jVr1rje3t66vgBbKW6Xurqi41q/TxK3ERERMYXEbQAAAEgOcdu2FeJ2rMbiK3IroCtcWUErBLXKfHxszBy7D1dL5N68ebM7fPiwe/nvXnB3fLriHnrg8WbMXmirxO1Y3ddpT5Fbzzlt07Fc9G2mGldfdXy1vDYsF7cLNfwlB3EbERERU0jcBgAAgOQQt21bKW7Hakw+Vqsq6GorFO17bYWtENR+4evHx83x+1D7MCsILoypraQ+TFxZvS+60OTLXnrR3f6pMfej+3/KjNqxrRa3Y6PI7ekLIK2Q1krpkCO3LgK53GuDFbf1M7U+54nbiIiImELiNgAAACSHuG3binE7ViuZfUVunRvrgnKhWCwW3Ybqm2Rr/D5U5N64CiK3ni8HDhxwL3rhJffZj290P7zvSasqbsfqd/iM3D09Pea8DEFto6Jobb02LIzbivX1XECTuI2IiIgpJG4DAABAcojbtq0ct2O1klnx1Rp/GhW5K5WKywUcubu6uqKLC1rj9+FqidwKxPv373fPfc4l9+mPPtl9/96fXVVxO1a/a8pT5NYFHbtLJXNehqCi9WD19WH+a8P8uK2x17sKnbiNiIiIKSRuAwAAQHKI27arIW7H+orcOqaOX88Kz0ZbKpWicGeN34daFauobgXVVlEfMhSK9+7d6575jEvukx+add+75xeiuP3y3zm6KuJ2rH6nVlxrexbrmGnUvNOFGK15GYJ63g4NDf3zPvL/Erc7CwXztitJ3EZERMQUErcBAAAgOcRt29UUt2VlaMhdsX59FLKs+5NGRe7BgYFo2wMrfIVgd3d3tKLWGr8PFbkVwKyg2irqw4Yuxrhnzx739Kddcu995xXu+mt3uMnJSfP2adXvs85lraaJ7vF9tY6bVs0DbZdjzcsQ1F9gKGwrUFv/XovEbUREREwhcRsAAACSQ9y2XW1xO9Zn5FbQ7e/vDzZya6uF3p6eaKWuNX4fKpiuhsitLTxmZ2ejgKz/37pdWnVc6xzWatoV5b6//NDzrrOz05ybrS5xGxEREVNI3AYAAIDkELdtV2vcjlXk1oUXfURuBd1yuVz3vr2NUuPq6+31dmFBS/0unW8rquI/qw831rmr1dDjdqy2CSrk8+bcbFWJ24iIiJhC4jYAAAAkh7htu9rjduzllUq0R7SPyK3VvorIIUduRXhf21FYKnLrTbwVVx/r6rxY56xWWyVux46Pjbl8R4c5N1tN4jYiIiKmkLgNAAAAySFu2z5W4nZsHLmt+5pWbQPS09MTbOTWNiraTkXbqljj96HCv97MW5H1sarOh3WuarXV4nbsaPW1pCPFftchSNxGRETEFBK3AQAAIDnEbdvHWtyOHa7e94mNG837nFbFQ13Y0YpjIajIrQtj6gKZ1vh9qPCvN/VWbH2sqfNgnaNabdW4HTsyPOzWtbebczN0iduIiIiYQuI2AAAAJIe4bftYjduxity+Yp/iealUMiNZCLa1tUXnoFGRW1vCELmJ21JzQc+99haL3MRtRERETCFxGwAAAJJD3LZ9rMftWK0m9RX9tA1KV7FoxrIQzOVyrlKpeNmP3FK/Z3Jy0gyvjwX14cY6L7W6GuJ2rOaC5p7moDU3Q5O4jYiIiCkkbgMAAEByiNu2xO1Hq8it1cXWuUjrhuqb2s7OTjOahaBW0Wo1bUMj98SEGWBXs/pwY52PWvUdtxv1+M9Xv3NoaCj6awJrboZiR0eH+Tq8WiVuIyIiZipxGwAAAJJD3LYlbtuOjoy46akp85ykdf34uCsUCmY8C0FFbkV+a+w+VNiceAxFbn24sc5DrfqO2/pyR1FzuoEXHo3VFjmD1edfiJFb+4T3dHebr8OrVeI2IiJiphK3AQAAIDnEbVvi9vLq/vuK3ONjYy6fz5shLQS1BcPoCvMjSx8rkVsfbqz7X6uNiNvxbaPI7Wn+L+em6Wk30N8fXfzUmpuNVl9GaTy9PT3m6/BqlbiNiIiYqcRtAAAASA5x25a4XZs6Dwpu1jlKq46t7Q6sqBaCGtvY2Jg5dh9q9a4uxjk/yK4m9eHGut+12si4HastdZoVucvlsluzZo05N32r31vq6orCNnEbERERU0rcBgAAgOQQt22J2/Wp1da+Ire2QtFqaSuyhWAhn4+2VLHG7kNF7o2rMHLrw411f2u1GXE7VmOfakLkVljv6+traOTWqnHF7DhsE7cRERExpcRtAAAASA5x25a4nUxFXsVX65ylUVtz6KKO2vfaCm4h2FkouCvWrzfH78PVFrn14ca6n7XazLgdq/vQjMitsfX29nqP3Hr+lfv6HhW2iduIiIiYUuI2AAAAJIe4bUvcTm5laMhr5L68UnG5XM6MbyFYLBaj7Sqs8ftQK+Y3bthgxtZWUh9urPtXqyHE7VjdF91e89U6li91H3RxR2teplX74C+M2rHEbUREREwhcRsAAACSQ9y2JW6nV5FbK5l9BD4dU8dva2szQ1wIdnV1RdHZGr8PFbkV3azY2grqw411v2o1pLgdq/s02YTIrb3Zu0slc14msatYNKN2LHEbERERU0jcBgAAgOQQt22J29npM3Jrdfhg9XeEHLkVGRUbrfH7cLpFI7c+3Fj3p1ZDjNuxum8an3XcWL1mWf89jfpyRV+yWPOyFrW/ds+C/bUtiduIiIiYQuI2AAAAJIe4bUvczl5Fbm3X4SNya9XywMBAFOOsSBeCioRaxWuN34e62KDOtxVbQ1Qfbqz7Uashx22px8M6bqxCtPRxYVbNA22XY83LpdTWP9b+2pbEbUREREwhcRsAAACSQ9y2JW77U3tmK+L5itz9/f3BRm5d8E8X/lMotcbvQ0VVfXCwgmtIaozW+Gt1NcTt+LaKpz4it/6CQhc+tebmfDs6Olx/uWyGbEviNiIiIqaQuA0AAADJIW7bErf9G0du6/ymVSFRq04Vk61412w1Lo1vpeCZpVOBR26NzRp3ra6muB2riKptZqzbp1EXfC3k8+bc1ApvK2AvJ3EbERERU0jcBgAAgOQQt22J241zuHq+fe1JrSCpldIhR26tkPWxSncpdU70QWJhSG22GpM13lpdjXE7VtuK+PgiZGxsLFqlHc/Fnu5uM16vJHEbERERU0jcBgAAgOQQt22J241XkXulwJhUhUnteb0wLoeitlFRJGxU5NaWMKFFbo3FGmutrua4HatzpBX41s+nUc+9vt7eRdG6VonbiIiImELiNgAAACSHuG1L3G6eI8PD3iK3jttdKpmBOQTb2trcYPUcPHnTJnP8WavIrYtcWiG10erDjTXGWn0sxO1YnassI7f+csKK1rVK3EZERMQUErcBAAAgOcRt25DjtlZZjo6MRHtWW/++WlTkVlC0zn9aN27c6Lq6uszAHIKK3ENDQ14uumkZRe6JCTOkNkp9uLHGVoszmze7zVUnqvdBx7GOv5LNjNtbZmejVfual9bPLqXuq8aVdp4Qt+uTuI2IiJipxG0AAABIDnHbNtS4XRkactu2Ptk96+at7uCBA1HYUuy2brtaVMj3sd+wVKTSBfSswByCuVzOVSqVhkZuBWIrpPpWH26sMdXi3Nat7uKF3e7mp+93hw8fjkK3Hlvr9yxlM+P2nupr1ktesNWdPXva7dy5s+7V9GnOnSRu1ydxGxERMVOJ2wAAAJAc4rZtqHFbq7WvPn/QuW9f5u7+/Dr32lcfd4cOHYrC2WqP3DrnviL3FevXu87OTjMwh2B7e3v0+DYqcuv50+jIrQ831lhqceeOHe4PX33QPfTg49ydtw24V77igjty5IibmZmpOXI3M26fPnXK3fOl33R//7V/7/76vXvdNddcqDtyp5kbxO36JG4jIiJmKnEbAAAAkkPctg01bitw3nTjGee+/ROP+LUvrHFvfN0xd/TIkWhrA23nYf3salHn3teFF9ePj7tCPm8G5hBc194ePb7W2H2ovb8VPq2YmrX6cGONoRZ379rl3vzG0488Jx5+8CfdXZ/tcX/wqnPu+PHjbnZ2dsXI3cy4feHqq909d/3mI+P/x2/8ivvb9+92119/0VVfo6P9tXV+rOPGErcbJ3EbERExU4nbAAAAkBzitm0rxe3Yb935m+5P3nTIHT92LApdqz1yj4+NeYvcOna+o8MMzCHYUR3b6ApzNEsVuevdD7pe9eHG+t21qLj9ljdaz4vL3N23590f/eFZd+LECbdly5Yl70dIcTv2n775S+5DH9zhnnrTpeh1bbo633WerOMTtxsncRsRETFTidsAAACQHOK2bSvG7dh77/ov7h1vPeBOnjjurqyOdbVHbq22Vny1Hqe0KiB3rFtnBuYQzOfzUYi3xu7DTR4jtz7cWL+zFpeO2z/263fk3Jtef9qdOnXKbd26ddH9CDFux373nl90H79li3vGMy65vXv3Ro+Dztf84xO3GydxGxERMVOJ2wAAAJAc4rZtK8ft2Ae+8qvuz9+xz50+fdLNbN68qiO3LrTpM3Lr3GlLECswh2ChUIjuvzV2H2rF/MYVtvmoV324sX5XLdYSt2O/eed/c2990wl35swZNzc398je4iHH7djv3/tz7taPbHbPftZFt2/fvkdFbuJ24yRuIyIiZipxGwAAAJJD3LZdDXE79ttf/b/de//sKnf+3Ck3OzPjRkdGzGOvBhW5dXHINKFvKXVMnX9d3NEKzCGoi2LqQ4I1fh8qcq+0l3Wtphl3PXE79t67fsO9823Hqs+Lc2779u0rfjESQtyO/cF9T3K3fWzKveD5l9yBAwei1zvruLVK3K5P4jYiImKmErcBAAAgOcRt29UUt2P/4eu/4v76L7a7EycOuQ3VN5LW8VeLity6j74id6VScblczgzMIVgsFqMAZ43fh9oLOm3k1ocb69i1mCRuxz7wlf/s/uwdB9ypk8fd9m3bzOPLkOJ27A/vf6L73CeucM99zhm3p/q6p7/QsI6/ksTt+iRuIyIiZipxGwAAAJJD3LZdKW5rn2Mrqvo2TdyO/erta9zOHTvM4682fUfuoerx29razMAcgqWurihcWuP3oQKuzrcVd1dSH26sY9Zimrgd+6kPjbhDBw+ax5chxu3YHz3wBHfDDWejv8ywjr+SxO36JG4jIiJmKnEbAAAAkkPctl0pbkvt0avYbEVVX2YRt791529EEc86/mr18kol2iPaR+TWdhaDAwNBR+7uUmnFPaWzVCFXH1asyLuUur11rFrMIm7f8ekRd/LECfP4MuS4LZ/33OvcltlZ8/grSdyuT+I2IiJiphK3AQAAIDnEbdta4naswlCjIjdxO51x5LYex7Rq/2mFvrVr15qBOQR7enqiSGuN34dTdURu3c46Ri1mFbdPnTxpHl+GHrefT9xumMRtRETETCVuAwAAQHKI27b1xO1YBSLFUyuqZiVxOxt1HvV4WY9jWhW5y+WyW7NmjRmYm63G1dvb29jIXf1d+vBiRd9Y/bv1s7VI3CZuN1LiNiIiYqYStwEAACA5xG3bJHE7ViuDfUVu4na26nz62q5DMbOvry/oyF2ujm+56Jql2hJmucit/279XC0St4nbjZS4jYiImKnEbQAAAEgOcds2TdyWCnm6sJ4uaGhF1aQSt/04MjzsLXIrimqldKiRW9uo9Pf3RyvOrfFnrZ4bk0Yo1ocb6/a1SNwmbjdS4jYiImKmErcBAAAgOcRt27RxOzbryE3c9qsityKm9VimVfG8p7vbDMwhqMg9MDAQXSDTGn/WRpG7ek7i+KsPN9btapG4TdxupMRtRETETCVuAwAAQHKI27ZZxe1Yhbwr1q9PHbkVt2+47qQZt2qVuL2yoyMj3rbrUEjsLpXMwByCbW1t0TloZOSemJiIPtxY/16LO3fscG/643TPi+XitqKxnJ6ejsKmFa9Xcrn5dP78eeJ2C0ncRkREzFTiNgAAACSHuG2bddyOVTBcPz6eOHLr544d3eP+4ev/1gxctUjcrl3NA1+RW3uzd3V1mYE5BHNtbdF8U3y2xp+1aX7Ptrk595IXHXXfu+cXzTlfi8vFba0M/92XbHEvfuEhd+zYMTczM1N35F5uHh09csR99uOD5rhqlbjdOInbiIiImUrcBgAAgOQQt219xe3YOHJbQXU5FRsVok6dPOre+2dXuQfv/n/M0LWcxO361XzwtSe1tq0pFotmYA7BXC4XPScaFbmTODszEz3vr7/+nPvQB3e4f/rmL5lzfzmXi9t6vtzy19Pu4Qcvc1/5XJf7w1efc8ePH3ezs7NuY/X5aMXshS4Xt7dv2xYF7te+5rS7+/Z8dTyXLRrfShK3GydxGxERMVOJ2wAAAJAc4rat77gdq2A6PjZmBtXl1N7Q+vnTp064d71tv7v/K//JDF6WxO3k6rHyFbm1bU1noWAG5hBsb293w9V5F2rk1nN+amrKVV/T3PXXX3R/+/7d7h+/8Svmc8Byubh95PBh98kPbZl3+8vc177Q7t7wR6fdyerPbN26dcXIvdJfAGj/ccVyRfPX/P55d9dnu93DD/7kvN+5vMTtxkncRkREzFTiNgAAACSHuG3b29vrbTsKSwVTBXUrqC6nIveV1Z8/ceK4e9tbDrp77/qvZviaL3E7vVp172tP6vHqsfP5vBmYQ3DdunXRnuTW2JvpJv01xL+E5MnJSbdz5053zTUX3F+/d6/7+6/9e/O5MN+V4/ZW8+e+8cX/7t78xhPuzJkzbm5uLto/fH7Ujl3p9UTb1Oh2Cqfa9uTo0aPula+44O68bcA99ODjzN89X+J24yRuIyIiZipxGwAAAJJD3LbVVgxr1qxx/eWyt5W6lgpgSSO3Yuuxo0fdW9542H3zi79lBjBJ3M5GbRHjM3JrHnR0dJiBOQQ1tkb9hUMtzo/bsXHkvnjxavfePzvgHrj7V83nhEwat2Pv+dJvube/9Zg7e/as27Zt26LIXWvcjlVA3bx5sztc/d3/43cuuC/cOuweeuAJ5u+WxO3GSdxGRETMVOI2AAAAJIe4bau4HUe8tWvXRgGn0ZFbq2OtqLqcw9Wxa5yKca9/7XH3tS+0LYpgxO1sVeTWliK+tuvQPNBq6flhOSS1ylzbtVhjb6RW3I5VaN6+fbs7f+6ce9fbD7v7vrz4LxzSxu1YHVu/4+rz56PfGUfueuN2rD706a8zDh065F764ovu859c7350/xMX/V7iduMkbiMiImYqcRsAAACSQ9y2nR+3Y9va2tzg4KC3lbqWU5OT0apsK6oupyK3Ypoi9mtedcJ95XMdLr5IHXHbj4rcujikj8itY2oeaN/rhfMyFAuFQrSS3Rp/I1wubscqNGtVtVZXa5W1VlvHcTiruB374N2/6t735weiVeNaPT6zebN57Nil4nasPvzpde3AgQPuBc+/5G772JT7wX1PeuT3PY+43TCJ24iIiJlK3AYAAIDkELdtrbgdq8g9NDTU0AvrJY3cl1cq0YXqDuzf7171ilPurs90ua994dfdrl27zNtjen1Hbs3P9mXmZ7MtdnZG998av09riduxitzaH1v7ZGu/7G98cY279cN9UcS2jp0kbsdqv+/3/fkud/LkUbd1yxbz+HKluB2rD4G6r/v27XPPftZFd+tHNrvv3/tz7qYbz7jZmRnz2CtJ3K5P4jYiImKmErcBAAAgOcRt2+XidqxuU6lUGhq5Faq1KtuKqssZR25F7WNHtkQhzbodZqfOuc6z9TimVXNOc6+Wedosu7q6vN1/S50TRUcrCC/lxo0b3datW93BgwfdmdNXuR3bt5vHThO3Y9/1v7e7q3bvNo8va43bsfowqMi9d+9ed/rUPrd3z8qrw5eSuF2fxG1ERMRMJW4DAABAcojbtvVEQ20VoeDcyMitGJUkcmtVsaKr/q/175i9PiO3tsjR79BfE1hzMwRLpVI0X63x+3B6erruyK0PVvrriKXicBZx+/3vOeD279tnHl/WG7dj4w+G1jFrlbhdn8RtRETETCVuAwAAQHKI27ZJVsTqon8jIyNmPPKlopTi6cKgiuGpLyN8RV5F7sGBgejip9bcDMHu7u7orwes8ftQF1atJ3IvN7aQ43Zsmi/XiNv1SdxGRETMVOI2AAAAJIe4bZtmu4eOjg43OjpqRiRfKowRuVtDRW5fkVdBt7+/P9jIvWbNmiiEapW0NX4f6pzUEo6J23a4rkXiNiIiIqaQuA0AAADJIW7bZrGXcT6fd+NjY2ZM8mG053D1DSJbjrSGukCor8itrTnK5XIUk6252Ww1rr7eXjc9NWWO34fan1p7bFthWBK37XBdi8RtRERETCFxGwAAAJJD3LbN8kJ9hULBrR8fN6OSD4ncraUit6+VzFNTU1FEDjlyK8Irxlvj96G2cLEiN3HbDte1SNxGRETEFBK3AQAAIDnEbdss43ZsZ2dn9AbOiks+VOy6Yv16IneLODoy4m0ls+J5T09PsJFb26hoOxVtIWKN34eK3Iq6cRwmbtvhuhaJ24iIiJhC4jYAAAAkh7ht6yNuxxaLxSiOWJHJh4p4WjlO5G4Nx0ZHvUVuBVxd2NGalyGoyK0LY2rOWuP3YRS5q+dlubh96OBB97G/22xG61olbq8eiduIiIiZStwGAACA5BC3bX3G7dhSV1cUlazY5MM4cltBFcNTkdvXSmbNu1KpZM7LEGxra4vOQSMj93Lu3rXL/dEf7HXf+ca/McN1LRK3V4/EbURExEwlbgMAAEByiNu2jYjbsd2l0rKrRrNWwVQXulwYUzFM9Vj5itwKql3FojkvQ1DPw0qlkircZuGW2dkocF/zlKvdB963x/3D1/+dGbCXk7i9eiRuIyIiZipxGwAAAJJD3LZtZNyO1Z7Ivi4saKlgqtXBVlDF8NSqe18rmXUBUu0Jb83LEGxvb3fD1edlMyO3npuTVXfu3OmecumC+8t373ff/up/MEO2JXF79UjcRkREzFTiNgAAACSHuG3bjLgtdcG/3t5eN+Vpz2VL7e9M5G4NtW+6z8itYxcKBXNuhqAi98jwsDl23ypuxyFZe3Rv377dXbhw3r37nYfcA1/5z2bQni9xe/VI3EZERMxU4jYAAAAkh7ht26y4HavIXe7r83ZhQUv9rtGRETOqYlgqcl+RMmgup7ZCyefz5twMwXXr1rnR0VFz7L6cH7dj48h9/tw596f/+5i7967fMMO2JG6vHonbiIiImUrcBgAAgOQQt22bHbdj165d6/r7+73tuWypiKfVsVZUxbBU5NaWIr4it1b0d3R0mHMzBDW2sbExc+xZa8XtWEXuubk5d+bMGffWN51w37zzvxG3V7HEbURExEwlbgMAAEByiNu2ocTtWEXugYEBb9tRWOoil0Tu1tB35NaKfq2WtuZmCBby+WhLFWvsWblc3I7duHGj27p1qzt16pR70+tPu6/fkXskbr/vz/YSt1eJxG1ERMRMJW4DAABAcojbtqHF7di2trYoZjY6cutifguDKobn5ZVKFEmtxzGtiqeaB9r32pqbIdhZKETbtVjjT2stcTtWkXvLli3uxIkT7nWvOeO+9Jl17i1v2Ox279plHlsSt1tH4jYiImKmErcBAAAgOcRtW4XCrq4uM6CFYK6tLVqt62ulrqUCGJG7NVTk1uNlPY5p1ZzT8UP9AkgWi8VoJbs1/qTqCyVFTSssL6VuPzs7G70m7blql9u6ZYt5bEncbh2J24iIiJlK3AYAAIDkELdtdUE9RR8FMoUyK6CFoAKjxtvIyK0Ip7hpRVUMS30Z4TNy6wsW/TWBNTdDUF9QZb2SXfvf1xu55UoXhyVut47EbURExEwlbgMAAEByiNu2cdyO1VYHhULBDGghqK0ihoeHidxoqsit7WWsxzGtWtE8WP0dIUfu7lIp88ivyF1PkCZurx6J24iIiJlK3AYAAIDkELdtF8bt2PHxcZfP582AFoK66J8u/meN3YcKalrdrhW8VlTFsNQFQn1FbsVeXfRUFz+15mYI9nR3Z37/N23aFO2xbQXn+RK3V4/EbURExEwlbgMAAEByiNu2S8Xt2LHRUdfR0WEGtBDU2DRGa+w+JHK3lorcukCi9VimVZG7v78/2Mi9Zs0a19vbm/n91wr25SI3cXv1SNxGRETMVOI2AAAAJIe4bbtS3I7VKmmtlrYiWghqlXmt9yULFdi0hQuRuzXU/F0puiZVxy339UUx2ZqbzVbj0viyvv+K3IrFC+MzcXv1SNxGRETMVOI2AAAAJIe4bVtPEFZU0kpY7XttRbQQ1H7his7W+H2owLd+fJzI3SJqlb+vyK0V0lopHXLk7i+XoxXn1viTGkXuiYlH4jNxe/VI3EZERMxU4jYAAAAkh7htm2S1s+KSfrY9lzMjWggWi8Vo+xBr/D6MI7cVVDE8Fbmzjryxitw9PT3mvAxBbaOiUJv1/dfrgvb5nl7huMTt1pG4jYiImKnEbQAAAEgOcds2zVYeikyVSsXlAo7cXV1dUUyzxu9DBUOdUyuoYnjqsfIVuRV6u0slc16GYFtbmxusngN9MWON35eK34qmVriuReJ24yRuIyIiZipxGwAAAJJD3LZNE7djFccUChXLrIgWgqVSKQpb1vh9qGCq1cELYyqGqVbd+4q8uviivmSx5mUI6nk7NDSUKhonMWnkJm43TuI2IiJiphK3AQAAIDnEbdss4nas4uDgwEC07YEV0UKwu7s7WlFrjd+H2n+YyN0aat90n5FboVDb5VjzMgT1Fxj6S4xGR259EVRP5CZuN07iNiIiYqYStwEAACA5xG3bLON2rGJVf39/sJFbF9ZTpNLeyNb4fajIPToyYkZVDEtFbl2U1Ffk1bE7OzvNuRmCumDscPW1oRmRu5b9uInbjZO4jYiImKnEbQAAAEgOcdvWR9yOVdAt9/VFMdmKaM1W4+rr7Y3GaY3fhwrqI8PDZlTFsFTk1kVJfUVerRIv5PPm3AzBde3t0Vy1xu7TTZs2RVu5WGFbErcbJ3EbERExU4nbAAAAkBzitq3PuB07NTUVReSQI3e5XI72ALbG70NtjULkbg19R249B/MdHebcDMGOdevc6OioOXafansYK3ITtxsncRsRETFTidsAAACQHOK2bSPidqxWLff09AQbubWNirZT0fYI1vh9qMitLSCsqIpheXmlEm2bYT2OWaiArJBszc0QzOfzDX29iFXkVpQmbjde4jYiImKmErcBAAAgOcRt22bEKgVdXdjRCmghqMitC2P6urCgpaIbkbs1VOTW42U9jlmoFf3aEsSamyFYKBSiLVWssfs0itzV1w7iduMkbiMiImYqcRsAAACSQ9y2XSluKyZpWxHr39Kq0FQqlcyAFoJtbW1RzGxk5NbKYMXThUEVw1NfRviK3Aq4Or4u7mjNzRDURTH1Qc0af6gSt+uTuI2IiJipxG0AAABIDnHbdqW4He95qzdkvi68qKDbVSyaAS0Ec7mcq1Qq3vZctiRyt46K0PprBOtxTKvmnOae5qA1N0OwWH3uKoJa4w9N4nZ9ErcREREzlbgNAAAAySFu29Yat2N1YT1fkVvH1mpQK6CFoFbRKmQ2KnLr9+ic6IKGVlTFsNR2ItpX3nos06q5MFSdB/prAmtuhmCpq8vbSvasJG7XJ3EbERExU4nbAAAAkBzitm29cfuRyL1hg5v2dOFF7eerfX2tgBaCitwKmdbYfUjkbi19Rm5tkaP94EOO3N2lkreV7GklbtcncRsRETFTidsAAACQHOK2bdK4Hav4sclT5NbY8vm8GdBCcN26dW50dNQcuw8Vua+onnMid2s4OjLi7a8c9JxTbNXFT625GYI9PT3eIn9Sidv1SdxGRETMVOI2AAAAJIe4bZs2bsdqj2hfkXtsdNR1dHSYAS0ENbaxFc5jlmr1rla3E7lbQ81fn5G7XC67NWvWmHOz2Wpcvb29wURu4nZ9ErcREREzlbgNAAAAySFu22YVt2N1+02bNpnHSuvIyEi0WtqKaCFYyOej6GyN3Ydx5LaC6mq3FcO+IrevL4AUz/v6+oKO3OXq+HxF/lolbtcncRsRETFTidsAAACQHOK2bdZxO1Y/p/hqHTON2ppDF3XUvtdWRAvBzkIh2j7EGr8PFUz1OFpBdTWq+7p922a3bW4uipWXVyrm7UJ1pedcGrVCWiulQ43c2kalv7/fW+RfSeJ2fRK3ERERM5W4DQAAAMkhbtv6ituxikm+IreiZi6XMyNaCBaLxehCkNb4fahgqNXBVlBdTeq+fvAvBtwdtxbdK/9/p9yB/fujCxi2SuTWqvOFj13W6nz0dHeb8zIEFbkHBga8vDYsJ3G7PonbiIiImUrcBgAAgOQQt219x+3YiYmJaKzW70ijIrdiYVtbmxnRQrCrqyvak9wavw+19cNqjtzbt21zt35kg3Pf/omql7mvfK7DveZVJ9yhgwej+66V/dbPhWIj4nasYm53qWTOyxDU81bnpFGRm7hdn8RtRETETCVuAwAAQHKI27aNituxitwK0tbvSqPi2ODgYNCRW5FR998avw8VekdHRhbF1VZXcfu2j278l7j9Y7/2hTb3+tced0cOH3bT09PBRu5Gxu1YfbmiL1mseRmCuerzVufFx2vDfInb9UncRkREzFTiNgAAACSHuG3b6Lgdq20TfIQsbc2h7Q607YEV0UKwp6fHTU5OmuP3ofZhHhkeNkNrK7pU3I795hd/2/2vPz7qjh09Gn3pEdp9b0bcjtU2Odoux5qXIahthvS65Ctyp4nbCtsdHR3m6/BqlbiNiIiYqcRtAAAASA5x27ZZcTtWkddX5NaF60KN3Lrgny78p/Bsjd+H+kJhNUTuleJ27D1f+nX3trccdCdOHHdXVu9/KPe9mXE7Vhc81YVPrbkZgrpg7HD18cr6tSFp3C51dUXP2XXr1pmvw6tV4jYiImKmErcBAAAgOcRt22bHbak3e4q8PiK3tuYo9/VFYcqKaM1W49L4NE5r/D5U5A59X+rlrDVux97/lf/k3vW2/e70qRPR/W925A4hbseuHx93+XzenJshqJisrXWssScxSdwuzDs/xG1ERERMIXEbAAAAkkPctg0hbsfqTZ+vlcw6rlZKhxy5+8vlaMW5NX4fKvS1YuSuN27HPnj3/+P+4l173OlTx6MvEy6vVMzj+zakuB2rC5Bqyw1rboagxqYxWmOvx3ritp6PWkE+fxzEbUREREwhcRsAAACSQ9y2DSlux+rN35SnlcyK3Nrzen6wCklto6Kw1sjIrYsNNiv0JjFp3I79+6/9X+7Zz9wdrVq2ju/bEON2rFZJK+BaczMEtcp8pdes5aw1bvf19poXpyVuIyIiYgqJ2wAAAJAc4rZtiHE7Vm8CfW3XMTEx4bpLpUXxKhQV1gYHB6MLIlrjz1ptCdMqkTtt3JZvecOeaHsW6/i+TRu3N1XnhM/nhuaCtm5ZuGo5JAuFQvTlhDX+5awlbut1Yam/8CBuIyIiYgqJ2wAAAJAc4rZtyHE7dkP1zaCvkKf719XVZYasEFTkHhoa8rIfuaV+j863AqwVZkMwi7j9v//X/mhOWcf3bRZxO35u6IOSr79y0FzQa0R7LmfOzRDs7OyM5qs1fsuV4vZKF9kkbiMiImIKidsAAACQHOK2bSvE7ViFlmlP23Xo2MVi0QxaIZjL5VylUiFyVyVu/zhux+oDk6+LsuqYmnuag9bcDEF9QaW/PLDGP9+l4rb2165lOxbiNiIiIqaQuA0AAADJIW7btlLcjlVw8bUn9RXV42s1qBW2QlBbRegikI2M3DonIUVu4vbiuB2rD06+Ire2yNH4rb2oQ7FUKkUB2xq/tOL2UvtrWxK3ERERMYXEbQAAAEgOcdu2FeN2rFZq+orc2s+3kM+bgSsEFdlGRkbMsftQYVPnJITITdxeOm7H6gPUpMfIPTgwEF381JqbIdjd3R3tqb5w7Avjtm631P7alsRtRERETCFxGwAAAJJD3LZt5bgdqzH6uvCizk++o8MMXSHYUR3b6OioOXYfxpHbiraNkri9ctyeryKvj8itL5b6+/uDjdyK1r09PdFK9njM8+N2km2IiNuIiIiYQuI2AAAAJIe4bbsa4nasz8itgNyxbuU9eZtlPp9f8bHMUoVN/T4r3vr2sRy3ZzZvdldW/28cHa3nwVL6itzaB79cLte1ArqRalzaekSPt+K29tfWl0LWbVeSuI2IiIgpJG4DAABAcojbtqspbscqYPmK3CPDw25de7sZvkKwUChEK6utsftQkXtsdNSMuL5U4P3wB0fMaF2rrRq3t27Z4k6d3O3OnTvo9u7dG63i1ocl63mwlFPV+20dO606n4rIIUfunu7uVBfGJG4jIiJiConbAAAAkBzitu1qjNuxE55WquqYuqijLu5oBbAQ1EUx9SbaGr8PFTYbFbk1Z48c2uve/545949f/zdmvF7JVo3bO3fscH/wqv3u+/f+nLv1I5vds5910e3bt6+uyG3tRZ2l2gakp6cn2MidRuI2IiIippC4DQAAAMkhbtuu5rgd6zNyVyqVVCtBfat9hRWorPH7UMF4dGTEjLpZqt8xOzPjzp875f7yz3e7v//avzMj9lK2atzevWuXe/MbTz9yP35w35PcbR+bci94/iV34MCB6PVAH56s50Gs77gdq9+jCzZa87JVJW4jIiJiConbAAAAkBzitu1jIW7H+tpzWFugKFq2tbWZQSwES11d0XYt1vh9qNW72sJlYdjN2jhynzl90r37HXvdA1/51UdF7KVs5bj9ljeeWXR/fnj/E93nPnGFe/ELL7qDBw9G+3LrQ9RSzwPr2L7UvCuVSua8bDWJ24iIiJhC4jYAAAAkh7ht+1iK27GTk5PeIvfgwEDQkbu7VGpo3NTvakTk1u9Q0D154rh7x1sPuHvv+i+LAvB8V1vcjv3RA09wt39qxP3OSy+4w4cPu82bN0eB8lHzv8FxO3ZjdRxdxaI5L1tF4jYiIiKmkLgNAAAAySFu2z4W47bUG0ytLvYRuXWRxYH+frd27VozkIWg9kTW/bfG70MFVe1TbsXeLI0id/UxPX7smPuTNx1y3zoh8sIAAOYVSURBVLrzN80IvFrjduxDDz7O3XnbgHvlKy64I0eOPCpyNytux26oPve0J7w1L0OXuI2IiIgpJG4DAABAcojbto/VuB2rN5q+Iq8id7lcDvbCehpXb29vQyO3tqhoVOTW+T969Kh74x8ddd+44/99VPxd7XE79uEHf9Ld9dke9+pXnXfHjh1zs7Oz0f22jt1o14+Pu0KhYM7NUCVuIyIiYgqJ2wAAAJAc4rbtYz1ux+oN55Sn6KeY2NfXF3TkLlfH18joqS0qLq9UzPibpQrp09PT7vChQ+51rznu7v58u3Pfvsy9/jXbohXM1s/4tpFxO/bhBy+r3vdO95rfP+2OHD7s5rZuNY/fDPUalM/nzbkZmsRtRERETCFxGwAAAJJD3LYlbj9avfH0FXm1QlorpUON3NpGpb+/P1rxbI0/a7V9SCMjt87/wQMH3POfs9NdPL8pmvvWbX3bjLj9Yy9z/+f9E+7A/v3m8aVeU6z/7tux0VHX0dFhzs1Q1Pis1+HVKnEbERExU4nbAAAAkBziti1x21b7AvuK3Fox3NPdbcazEFTkHhgYiC6QaY0/axW5db4Vfa0YnKUK6YqoshFR3bK5cfsn3B2fHnEnjh83jy/1JYA+gOn/6iKd1m18OjoyEq2QtuZmM9Xq8t6eHvN1eLVK3EZERMxU4jYAAAAkh7htS9xeXsUdbWthnZu0av/p7lLJDGkh2NbWFsXYRkbuK6rnvBGRu5mGELdPnTxpHl8qasfzXx/Eosjd4NXc+n3Dw8Ouvb3dnJuNtqtYjC4SS9xGRETEFBK3AQAAIDnEbVvidm0q8vjarkNbc3R1dZlRLQRzbW1RkG1U4FztkbuV4nasPpBNNilya4V9Lpcz56Zv9VcMPT09UdgmbiMiImJKidsAAACQHOK2LXG7PhWifUVubc1RLBbNyBaCCoyaM40KnFoxvn58fNVF7laM27H60qFZkVvnTX9NYM1NH2q+60KrcdgmbiMiImJKidsAAACQHOK2LXE7mTovvrbrUEAsFApmcAtBbRWhLSMaHbmtUNyKtnLcnq/2jm905NZcGKyeQ9+RWxeO7C+XHxW2iduIiIiYUuI2AAAAJIe4bUvcTqfPyD0+Ph5dxM6KbyGoi/7p4n/W2H2oFfOar1YwbiVXS9yOnZiYiF6HrGP5UnNBFz3VtiHW3ExjsbNzUdSOJW4jIiJiConbAAAAkBzitm0z47aOPTU1tSoCui4O6Styj42ORitJrRAXghqbxmiN3YcKm/p9VjhuBdPE7V07d7r/9YZTZrSu1azjdmwUuT09B5ZSc6G/vz+TyL1mzRrX3d1tRu1Y4jYiIiKmkLgNAAAAySFu2zYzbm/fvt298uVb3JkzZ9zc3FwUx6zbtZK6D762atAqaa2WtsJcCGqV+UrzKUunp6ZaMnKnidvbt21zL//dI+6hB55ghuta9BW3Y1fak36ThwCuuaD9sRWorbm5ktrmpK+31wza8yVuIyIiYgqJ2wAAAJAc4rZtM+P26dOno9h2712/7t75tqPu/LlzUfAmci+tjjkyPBzte21FuhDUfuHaN9wavw8VNhX+rZAcomni9uzMjNu3b597wfPPus9/cr370f1PXBSvV9J33NbjYR03Vhdl1Qc8/dWG9e9p1Nh7e3vritz6wsjaX9uSuI2IiIgpJG4DAABAcojbts2M25cuXXpUdHvgK//Zvfudh9yFC+dXTeT2ddE9HVOPX3suZwa7ECwWi25D9Y28NX4fKmwq/FtBOSTTxG2p57w8cOCAe+HzL7nPfHzC/fC+Jz3qubScIcTt+Lb6oOcrcvf09Jjzcr6dhYIZsZeSuI2IiIgpJG4DAABAcojbtiHF7dhvf/U/uL96zz53zTUX3M6dO91kytjWbLWKWffBV+SuVCouF3Dk7urqioKmNX4f6guFkCN32ritbT2ieVX9kKT/vX//fvfc51xyt35ks/v+vT9nPqfmG1LcjtV90e/N+jmiudBdKi2ak9H+2tX/bgXs5SRuIyIiYgqJ2wAAAJAc4rZtiHE79h++/m/dB993lbvuugtu165d0QpP6zitot7U+gh4UhfyUzjV3sELQ14olkql6MKb1vh9qLA5XJ3jC+Nys80qbs+fV/pve/fudc94xiX38Vu2uO/d84vmc0qGGLdjdV98fBGkeVfq6ormYa37a1sStxERETGFxG0AAABIDnHbNuS4Hfudb/6yu+UDO92NN16M7rMit94gWsdsBTV2BUTrfKdVkXtwYMCtXbt2UVwOxe7u7ig8W+P3ocJmSJE767g9f15NT09Hz5GnPfWS+8jfbHf/9M1/vej5FHLcjtV98RG59XpX6/7alsRtRERETCFxGwAAAJJD3LZthbgd+91v/Sv30b/b6m5++iW3Z8+eKOTpjaJ17FZQY/ex37DcVD03/f39wUZubQuhUOgr8lsqql5eqZjBuZH6itux8byqvua5G66/6P7u/bvcP37jVx55HrVC3J5vlvvW64sOK1rXKnEbERERU0jcBgAAgOQQt21bKW7Hfv/en3ef/NBmd8P1p9zmzZvNY7eSerO7UhBMqo5b7uuLYrIVmZutxqUtInzd/4UqkjY7cvuO2/NV5Na+9dq//q/fu9f9/df+vbvto/3uyOHD5rG3zM662ZmZVH8dsdxjqePr/2pVdr3H1wVm00Zu4nZ9ErcREREzlbgNAAAAySFu27Zi3I69/yu/5g4dOmQeuxXdUH3T6yvyKlYqIoccucvlcrQa3xp/1iqS6nwrNFsB2qeNjNuxismK3CdOHHNPvWG721X939ax9d9f8sKt7rnPPuIOK4Bv3hwFTuuYS7ncHN6/b5977e9vcjfeeCbaI1z3RR/2rOMsZZrATdyuT+I2IiJiphK3AQAAIDnEbdtWjtsP3v0f3enTp81jt7IKSr4ir7ac6OnpCTZyaxsVbaeibVWs8WetQukV1XPeyMjdjLgdq7mlc6vV2daxDx086G55/5R7+MHHuTs/U3a/9z+vdkePHnUz1dvXGrmXi9tnqs/Xe+76Tff9e3/WffqjT3bPfc4lt3///roiN3G7cRK3ERERM5W4DQAAAMkhbtu2etw+c+aMeezVYBwircclrdrHWBd2tAJzCCpy68KYukCmNf6sbWTkbmbclstdzFPblXzyQ1seeY49/OBl7suf7Xav+f3z7vjx4252dnbF14Tl4vaFq6+O4nZ8/B/e9yT3mY9PuBc+/5I7cOBA9HqmD3/WcWOJ242TuI2IiJipxG0AAABIDnHblrgdvtoj2lfkVuwrlUpmYA7Btra2KAg3KnLr96wfH18UpLM0/Li91Xi+Xebuvj3v/vh1Z93Jkyfdli1blnxtqCdux/7o/ie6z39yvXvZSy5FWw1dWb2tPgRaxyduN07iNiIiYqYStwEAACA5xG1b4nbrqMfCV+RVQO8qFs3AHIK5XM5VKpVUYbMefUbu1ozbP/brd6x1b37DqWhLoLm5uUWvEUniduxDDzzB3fHpinv5715Ycs9v4nbjJG4jIiJmKnEbAAAAkkPctiVut54+I7custjZ2WkG5hBsb293w9V526jIrRXzeo5YkTqprR63Y79152+7t73lRPQcVOSeqB5Xx08Tt2OX2/ObuN04iduIiIiZStwGAACA5BC3bYnbratCna/IrVXLhULBDMwhqMg9Mjxsjt2Hitxjo6NmrK7X1RK3Y++969fdO9921J0/d85t377dPG5srXE71trze2bzZvPYtUjcrk/iNiIiYqYStwEAACA5xG3bZsbtCxcumEGrVh/rcTtWK2Z9rWTW/Mjn82ZgDsF169a50dFRc+w+1KrktJF7tcXt2Ae+8p/du962zx0/dsRt3bLFPH69cfvH/vOe36/+veNu/759iQM3cbs+iduIiIiZStwGAACA5BC3bVeK25OTk2Ygy0JdOO6+L/9XI2TVJnH70fqM3Aq6HR0dZmAOQY1tbIW5nKWK3KMjI2a8XsnVGrdj//RPdrjdu3aZx08et3/sU28652ZnZszjryRxuz6J24iIiJlK3AYAAIDkELdtV4rbUltf+FjBrbGfPHky2rf3W3f+thmylpO4bat46Styj4yMRKulrcAcgoV8PtpSxRq7D6cmJ6PtUayIvZSrPW7/1XsORKurreNnEbef/9zr3JbZWfP4K0ncrk/iNiIiYqYStwEAACA5xG3bWuJ2rI/IrePpYnSnT592b37DKff1O9aaQcuSuL20V1TVqnsfkVvH1EUdte+1FZhDsLNQiM6BNX4fKhjXGrlXe9x+P3F71UjcRkREzFTiNgAAACSHuG1bT9yO1cX1Nm7YYIazpCpyb9myJVrJ/cevO+O+enuH0z67VtyKJW6vrN5Ia3Wxr8h9eaXicrmcGZhDsFgsug3Vc2CN34cKxwr/VtSOJW4Tt1tF4jYiImKmErcBAAAgOcRt2yRxO1aRW/HDCmhJVeSenZ11x48fd6959Tn35c92u4cftCM3cbt29YZakdt6HNOqyK1g29bWZgbmEOzq6oq+kLHG70NF1KUiN3GbuN0qErcREREzlbgNAAAAySFu26aJ27HTHiK3jjczM+OOHj3qfu9/Xu3u/EzZPfzg4x4VuYjb9as31lNTU+bjmFZtWzM4OBh05O4ulaILb1rj96GCula3E7f/WeJ2a0ncRkREzFTiNgAAACSHuG2bRdyOnZ6airaAsIJaUhVXNm/e7A4fPuxe/rsX3B2frriHHnh8FLkUt7VXt/VzuLx6g63Hy3oc06oV/QMDA27t2rVmYA7Bnp6eaE9ya/xZq5Xt8yM3cZu43SoStxERETOVuA0AAADJIW7bZhm3YxVN9QbOCmtJ1fGurB770KFD7mUvveg+94lx9607f80dPHjQvD3Wpr6M8Bm5+/v7g43ca9ascb29vd62a1moIrfOtyK39e+16jNuH6o+nz72dzNmVK7V5eL2ubNnidstJHEbERExU4nbAAAAkBzitq2PuB2r7S/0Rs4KbEnV8XSf9+7d644f2xOt6rZuh/WpiKUYbT2OaVU8L/f1RTHZiszNVuPS+HxF/oWmvbinz7i9e9cu98ev3eO+e88vmmG5FpeL24rnH/rAhPvRA08wf7YWiduNk7iNiIiYqcRtAAAASA5x29Zn3I7Vyli9obNCW1Lnv1G0/h2T6TNyax5opXTIkbu/XPZ2/7PSZ9xWNN5TfV258YYL7kMf3OH+6Zu/ZAbm5Vwubs9t3eoO7N/vXvxC/fXFFe6H9z/RPMZyErcbJ3EbERExU4nbAAAAkBzitm0j4rbUalUfkRv9qD2iFVGtxzKtmgfa89oKzCGobVQUMkON3D7jttQKdv3VRfU101133QX3wb+8yv3D1/+tGZotl4vbUoFZr1sHDhxwz3/eRXfbx6bdD+77GfNYlsTtxkncRkREzFTiNgAAACSHuG3b090dhUwrBPlQkVsX8rOiG4bnRoVIT5F7YmLCdZdKZmAOwba2Njc4OOjt/ifVd9zWlw+P3Lb6v3fu3OmuueaC+6v37HPf/tr/bQbn+a4Ut/V6o2PrQ57uy77qbZ/5zIvuUx+ecd+/9+fNY86XuN04iduIiIiZStwGAACA5BC3bdetWxeFvFKpFIUfKwj5MIrcExOPRDQMW5+RW8fu6upaFJdDUZF7aGgo9V7ZWdnIuB2rLyJ27NjhLlw47/7iXQfdA3f/qhmeZa1xO1Yf9qanp92ePXvczU+/5D76d1uX3fObuN04iduIiIiZStwGAACA5BC3beO4Hdvd3b1i/MpSBUOFs/mxC8M12lLCU+RWSCsWi4+ajyGZy+VcpVJpeuRuRtyO1XN1+/bt7vy5c+5dbz/i7r3r1xfF53rjdqw+9Gk7FL2uPfWmS9Ge398x9vwmbjdO4jYiImKmErcBAAAgOcRt24VxW+rCeoo4ilxWIPKh7geRu3XUY+Ur8l5RPX5nZ+eieRmK7e3tbrj63GlW5G5m3I7V4z83N+fOnDnj3vaWE+5bd/72I/H5L/98X6K4HasPf4/a8/t9j97z+3nPudYRtxsjcRsRETFTidsAAACQHOK2rRW3YxW5+3p7owvMWaHIh1oVrABlRS8MT5+Re/34uCvk8+bcDEE9d0ZGRsyx+zSEuB2rLWUUuU+fPu3e/IZT7qu3/3f3J2+acVft3m0eW64Ut+e7cM/vB+/+9+76a0+42ZkZ89grSdyuT+I2IiJiphK3AQAAIDnEbdvl4nasIne5XI72xbWCkQ8VuRXOrOCF4alg6ityj4+NuXxHhzk3Q7CjOrbR0VFz7D7UeU7z3MgybsdqPFu2bHF79+51+/ftclur/9s6tqwnbsfqSxTt+b1v3x63e9cON7N5s3nslSRu1ydxGxERMVOJ2wAAAJAc4rZtLXE7du3atVHg2UTkRkNtJ6KVtr4itwJyRx3ztdHm8/koxFtj92HS54aPuD3flV4fksTt+aaZX8Tt+iRuIyIiZipxGwAAAJJD3LatJ27HtrW1ucGBAW8XFrRUMEsbxbAx6s27AumVxuOYhSPDw25de7s5N0OwUChEW6pYY/dhvVv5+I7bK21jRNxuHYnbiIiImUrcBgAAgOQQt22TxO1YRe6hwcGGR24FFyt6YVjqTbxCqfU4plWBUxd11MUdrbkZgroops6BNX4fRpF7YuWLshK37XBdi8RtRERETCFxGwAAAJJD3LZNE7djc7mcq1Qq3rajsNT+30Tu1lBv5qc8XZRUc05zT3PQmpshWCwWo7lqjd+HOifLRW7ith2ua5G4jYiIiCkkbgMAAEByiNu2WcTtWK2i1WrahkbuqSm3ofpm0YpgGJZ6U79S+EyqVi3rrwj01wTW3AzBUldXFFet8ftQz0OF7IWPA3HbDte1SNxGRETEFBK3AQAAIDnEbdss43asIrf2Rbbiki8V1PSm0YphGJb6MsJn5NZ+8CFH7u5SacXAnKVR5J6cjC74qfNP3LbDdS0StxERETGFxG0AAABIDnHb1kfcjtWxR0dHzcjkS21/oTePVhTDsFQ40x7q1uOYVh1XMXLt2rXm3AzBnp4eb3uSW8aRW1r/HkvcXlriNiIiIqaQuA0AAADJIW7b+ozbsR0dHW5sbMyMTb5UoNObSCuOYVj6jtzlctmtWbPGnJvNVuPq7e1taOReSeL20hK3ERERMYXEbQAAAEgOcdu2EXE7tpDPu/Xj42Z08qEiGJG7dVT03LRpk/lYplXBta+vL+jIXa6Oz9d2LfVI3F5a4jYiIiKmkLgNAAAAySFu2zYybsd2FgrR/r9WfPJhvB2DFcowPDdu3BjtnW09lmlVuNVK6VAjt7ZR6e/v97aSvRaJ20tL3EZERMQUErcBAAAgOcRt22bE7dhisRjFEytC+TCK3BMTZjDD8PQZuTUPerq7zXkZgorcAwMD3u7/chK3l5a4jYiIiCkkbgMAAEByiNu2zYzbsV1dXVHItGKUDxXHJojcLaOCpK/Iq2N3l0rmvAzBtrY2NzQ42NDITdxeWuI2IiIippC4DQAAAMkhbtuGELdjFRkVna0o5UOdOyJ366jHKk3YXE4FV33JYs3LEMy1tbnK0JC3+z9f4vbSErcRERExhcRtAAAASA5x2zakuB3b09MT7ZFtxSkfalWsopcV0jA8fUbuDdUPHtoux5qXIZjL5aLnrc/ITdxeWuI2IiIippC4DQAAAMkhbtuGGLelLvinC/8ptFmRyoeK3NoexQpqGJ7aN9tX5NUFTwuFgjk3Q7C9vd0NDw97uf/E7aUlbiMiImIKidsAAACQHOK2rQJZua8vislWRGu2GpfGt1Iwy9JNRO6WURFaq/x9Re7x8XGXz+fNuRmC+nJqdGTEHHtSo+16Usx/4vbqkbiNiIiYqcRtAAAASA5x23Z8bCyKPlqtqZXSIUfu/nLZbZqeXhSsfKnflTbEYWPUBwbN4SuNxzELx0ZHXUdHhzk3Q1Bj0xitsSc12q4nwZ70xO3VI3EbERExU4nbAAAAkBzitm0ct2O1ClZ7XlsBLQTXrl0bRaZGR25FHiu0YVjqg4PPrWy0SjrUrXykVpkvfE6nNVrJXUfkJm6vHonbiIiImUrcBgAAgOQQt22XCmGKWd2lkhnQQrCtrc0NDg5Gq0ut8ftwmsjdMuoDxJSnrWwUV0eGh6N9r625GYLaL1znwRp/UnW/tc/5wnO9UOL26pG4jYiImKnEbQAAAEgOcdt2pVWe2nu6q6vLDGghqMg9NDSUKnjVq+LdhuobVCu8YVjqg8RKsTWpmnN6DrXncubcDMFisRjNVWv8SV0pchO3V4/EbURExEwlbgMAAEByiNu2tW5hoMihUGYFtBDM5XLu8kql4ZFbb1StAIdhqcCrlffW45hWzblKde5pDlpzMwT1BZWisjX+pEaRe3Jy0XOAuL16JG4jIiJmKnEbAAAAkkPctq13f94r1q93nZ2dZkALQW0VMVy9X42M3Nr+Qm9YrRCHYalY52u/dm2RMzQ4GP01gTU3Q7BUKkWB1xp/UvVc0z7n8XOAuL16JG4jIiJmKnEbAAAAkkPctk168bn14+OukM+bAS0EddG/kZERc+y+nB/4MGx9R+7BgYHo4qfW3AzB7u7uaGsRa/xJjSP3SueVuN06ErcREREzlbgNAAAAySFu2yaN27H6+XxHhxnQQrCjOrbR0VFz7D5UeLO2asAwVWjd5OmipIq8/f39wUbuNWvWRLFWQdoavy8V/7WXv/V41CJxu3EStxERETOVuA0AAADJIW7bpo3bsQrIHevWmREtBPP5fGb3tRbjyG3FOQxPxVZFV+uxTKu26Sj39UUx2ZqbzVbj6uvtXXE7kaxNGrmJ242TuI2IiJipxG0AAABIDnHbNuvgOzI87Na1t5sRLQQLhUK0pYo1dh9GkXtiwox0GJ4+I7f2ZldEDjlyl8tlbxfeXEqdb0Vn6/GwJG43TuI2IiJiphK3AQAAIDnEbVsfq5kVn3RRR13c0YpoIaiLYupNpjV+H+qcTBC5W0ZFUG+Re3LS9fT0BBu5tY2KtlPxtSf5UkaRu4bnCHG7cRK3ERERM5W4DQAAAMkhbtv63KpDEapSqbhcLmdGtBAsFotRwLHG70M9XkTu1lGPVZqYupxa0a8LO1rzMgQVuXVhTF+Rfyl1vpf7awfiduMkbiMiImYqcRsAAACSQ9y2bcQ+1IpjQ4ODrq2tzYxoIVjq6orClzV+H9a7FQM2V8VWX5Fb86BUKpnzMgT1vNXzN5TITdxunMRtRETETCVuAwAAQHKI27aNvMii4phWgoYcubtLpSioWeP3oc5JkovqYXP0Gbk3btjguopFc16GoP4CQ3+J4ev+L2UUuScnow+FegyI242TuI2IiJipxG0AAABIDnHbtpFxO1Z7+SoUadsDK6KFoPZE1t7I1vh9uInI3TJeUVWx1Vfk3VD98KM94a15GYLaS1976jcrclv/VqvE7fokbiMiImYqcRsAAACSQ9y2bUbcjlXkLpfLwV5YT+Pq6+11U1NT5vh9qHOiFbxWVMWw1IcUfQFypfE4ZuH68XFXKBTMuRmCitwjw8Pm2EOVuF2fxG1ERMRMJW4DAABAcojbts2M27HTU1Our68v6Mhdro5P47TG70NFboUlK6piWOrDis8vQPQczefz5twMwXXr1rnR0VFz7KFJ3K5P4jYiImKmErcBAAAgOcRt2xDidqxWwfb29gYbubWNSn9/fxSerfH7cJrI3TLqQ4vPyD02Ouo6OjrMuRmCGttYQK8nlsTt+iRuIyIiZipxGwAAAJJD3LYNKW7H6qJ9Pd3dZkALQUXugYGB6GKQ1vh9qFXj2ovZiqoYlvrw4nOV/8jISLRa2pqbIVjI56MtVayxN1vidn0StxERETOVuA0AAADJIW7bhhi3YxWiukslM6CFYFtbmxsaHGx45NabYyuqYlgqDGrlvfU4plUXV9RFHbXvtTU3Q7CzUIguvmmNv1kSt+uTuI2IiJipxG0AAABIDnHbNuS4HasLLHZ1dZkBLQRzbW2uMjQUBUdr/D7U9hd6k2xFVQxLBUJfW9lozl1eqbhcLmfOzRAsFovRXx1Y42+0xO36JG4jIiJmKnEbAAAAkkPctm2FuB2rQKZQZgW0EFRg1DltaOSenIzeLFtRFcPSd+TWFyz6awJrboagvqDSF1XW+Bslcbs+iduIiIiZStwGAACA5BC3bVspbsdqq4NCoWAGtBDUVhHDw8MNi9z6PZNE7pZx48aN5uOYhdoiZ3BwMOjIra2GFJmt8fuWuF2fxG1ERMRMJW4DAABAcojbtq0Yt2PHx8ddPp83A1oI6qJ/oyMj5th9GEduK6hiOOrDjfX4ZalWiOuip7r4qTU3Q7Cnpyear9b4fUncrk/iNiIiYqYStwEAACA5xG3bVo7bsWOjo66jo8MMaCGosWmM1th9GEXuiQkzrGLz1Ycb63HzoSJ3f39/sJF7zZo1rre3N9pexxp/1hK365O4jYiImKnEbQAAAEgOcdt2NcTtWK2S1mppK6KFoFaZa7W5NXYfKnJPELmDUx9urMfLp9NTU67c1xfFZGtuNluNS+PTOK3xZ2XauK3V5tbr8GqVuI2IiJipxG0AAABIDnHbdjXFbamgOzI8HO17bUW0ENR+4do33Bq/DzVHiNzhqA831uPUCLVCWiulQ47c/eWytwtvponb2itcf4VhvQ6vVonbiIiImUrcBgAAgOQQt21XW9yOVeTu7Ow0A1ooFotFt6H6Rtcavw91sUHFPSu4YuPUhxvr8WmkitxahWzNyxDUNioKyllH7qRxu/NfLmCrvwyxXodXq8RtRETETCVuAwAAQHKI27arNW7L7u7uRdEsRLu6utzGDRvM++BDRe6NRO6mqQ831uPSDLU3u1YkW/MyBNva2tzg4GA0Z63x12u9cVuryOdvdUTcRkRExBQStwEAACA5xG3bx1rcDnU7BlkqlaL4Zt0XH24icjdFfbixHo9mqnmgL1mseRmCitxDQ0PRX2RY46/VeuJ2X29v9Hvnj4O4jYiIiCkkbgMAAEByiNu2j7W4XS6X3cDAQLTtwcJ/C0WNWytqrfvkQ239oIhlhVjMXn24sR6HWlXgTRt5l1LzQNvlWPMyBHO5nKtUKonvf61xu6f6HLS+CCNuIyIiYgqJ2wAAAJAc4rbtYy1u9/f3R/+moKv/HWrkVljr7emJ9kZeeL98SeRujPpwY53/WtWKex1jsjo3fEVuXfA05D3rdcHY4errV733v5a4vVzcJ24jIiJiConbAAAAkBzitu1jNW7HTk9NuXJfX7DblWhc2h5B45w/bp9OE7m9qg831nmvVcXt+cfTKn9fkXv9+Lgr5PPm3AzBde3tbmR42By75XJxW/trd3R0mL8nlriNiIiIKSRuAwAAQHKI27aP9bgdOzU1FUXkkCO3tlRReLbG70MFdb0Rnx9SMb06p9b5rtWFcTt2wmPk1utEfoXw20wVpUdHR82xz3epuK0vuLTliXXs+RK3ERERMYXEbQAAAEgOcduWuP1otQ1IT09PsJFb26joPmgLEWv8PiRyZ6vOpXWea3WpuB2ryP3k6m2sn02rAnLHunXm3AzBfD6/7GuaFbf1fK91eyLiNiIiIqaQuA0AAADJIW7brua4XSqVFsWpwcFB87YL1VYPVhwPxba2Njc4MOAtYlpqdbvemFtBFWtX59A6v7W6UtyOVcj1NT+0FYi2BLHmZggWCoVoS5WF414Yt7vqvHgmcRsRERFTSNwGAACA5BC3bVdz3O7q6loUp4ZqjNuximFWJA9FRW7dp4ZG7snJ6A26FVRxZXXurPNaq7XG7diNniK3tkDRRR11cUdrboagLoo5/3zPj9ta5W39zHIStxERETGFxG0AAABIDnHblrhdmxs3bKh7lWcj1X7BlUrF257LC9XvmWzRyK1gp7Er+lr/7ludM+uc1mq9cTtW91c/ax0zjZoLmnu17FndLIvV564ed8Vt7a+dNMgTtxERETGFxG0AAABIDnHblrhdnxuqb0y1GnThcUNR0U6raRsdua2YGqqzs7Puec/e4s6ePel27tzZ8PHrw411Lms1adyO1f21jptWzYWhoaHorwmsuRmCity17q9tSdxGRETEFBK3AQAAIDnEbVvidjK1n6/29V14/FBU5Na+yNbYfRhF7okJM6aG5oEDB9zdn29z//D1f+s++L6r3HXXXXC7du2K9hS3bp+1+nBjncNaTR23q4+Tddys1BYo2g8+5MidVOI2IiIippC4DQAAAMkhbtsSt9Op85dk795GqRg3Ojpqjt2HitwTgUfuY8eOua99od25b/9E5He++cvulg/sdDfeeDF6Tvm+cKaObZ27Wg09bsdump6O9rZOs1I6NInbiIiImELiNgAAACSHuG1L3M5GBeSOjo5Fvy8UNbaxBj7WmpehRu6FcTv2u9/6V+6jf7fNPf1pF92ePXvc9PR09EHEOkYadUzrnNVqq8TtWEXucrns1qxZY87NVpK4jYiIiCkkbgMAAEByiNu2qzlua3/dhXGqMjRk3jYrR0ZGogC28PeGYiGfj7ZUscbuQ21RoYv4WZG1WS4Vt2O/f+/Pu099eMY985kX3b59+6KYrA8k1rGSqGNZ56pWWy1ux05PTbm+vr6WjtzEbUREREwhcRsAAACSQ9y2Xc1xu9PYE1v32bptlmprDl3UUfteL/z9oahzc8X69eb4fajIvTGQyL1S3I79wX0/42776Cb33OdcdPv3788scusY1jmq1VaN27FTk5Out7e3JSM3cRsRERFTSNwGAACA5BC3bYnb/lTkvrxScblcbtE4QlGr2zdU32xb4/ehwmyzI3etcTv2h/f/tPvsJza4F73wUnQxSj3n9AHFOnYt6metc1OrrR63YzWOnu5uc16GKnEbERERU0jcBgAAgOQQt22J2/5V5NZ2KG1tbYvGE4ran1zR2Rq/D7UPs8KZFV99W2/cjv3R/T/lbv/UmHvhC864ubm56EOKdfyV1M9Z56RWV0vcjtW2Nd2lkjkvQ5O4jYiIiCkkbgMAAEByiNu2xO3Gqa05BgcHg47cioy6EKQ1fh82I3InjduxDz3wePe0px5JfMFMfbixzkWt+o7bmqf6Qsb6N59urM4D6yKwIZnP583X4dUqcRsRETFTidsAAACQHOK2LXG78SroDgwMuLVr1y4aXyj29PS4yclJc/w+nG5g5E4bt+VLXnwuOj/W8VdSH26sc1CrvuO29sSOb9eMyK1tcqyLwTbbYmen660+L6zX4dUqcRsRETFTidsAAACQHOK2LXG7eSpy9/f3Bxu5dcE/XfhPsdMavw+np6aiN/8Lg2yWZhG3X/qS826qOlbr+Cup+2fd91ptVNyO1Qp1vc5Yt/WpLnhaMJ7DjVbPg+7ubjdQfa4StxERETGFxG0AAABIDnHblrjdfBV0y319UURbON4Q1Lg0Po3TGr8PfUZu4nZ9cTs2itzV3239jE/Hx8ej7UCsuelbbSHU19sbhW3iNiIiIqaUuA0AAADJIW7brua43dHRsShWjY6MmLcNQUVFrZQOOXL3l8vRinNr/D5UQNaHASu2JpW4nSxux+oCkM2I3GOjo+Zz2pe6eKTmexy2iduIiIiYUuI2AAAAJIe4bUvcDk/t5aw9rxeOPRS1jYpCX6Mi95VVFVz1ocCKrfVK3E4Xt2M3Nily6zms8GzNzazUX33Mj9qxxG1ERERMIXEbAAAAkkPctiVuh6u2gegulRbdh1DUlg2Dg4MNC5y6uKHCvz4cWLG1Vonb2cTtWEXuRq7ml5oLI8PDrr293ZybSdVfJ5SqzzkrbEviNiIiIqaQuA0AAADJIW7bErfDV/Gwq6tr0X0JRUXuoaGhKDha48/aOHJbobUWDx8+TNw2jhtbb9yO3bhhQ1Mit17H2nM5c27Wo+axtgWyonYscRsRERFTSNwGAACA5BC3bYnbi927Z487e+aMm9u61fz3ZqnQVCwWF92nUMzlcq5SqTQ2ck9MmKF1OXft2uU+ccuIc9++bFG0rlXi9tJOrxC49e9ZzxEdT3NPc9CamyupFeAL99e2JG4jIiJiConbAAAAkBziti1xe7H79u51z3zGM9zNT3+6O33qVHCR+4r1611nZ+ei+xaKCoXD1bnVyMitLVys0GqpKH3w4EH3B686477yuS738IP1R27i9tJOV8+LddxYrfDWHNbq+6zniLbIGRocjFZhW3PTspDPmyHbkriNiIiIKSRuAwAAQHKI27bE7cUe2L8/ituxitynTp50W7dsMW/fLNePj0dhbuF9DEVd9G+kgdvA6LlQa+RWtJuZmYn2337VK692d36m7B5+8HFmyLYkbi9tLXF7/u01Hh+Re3BgILr4qTU3ZbS/dleXGbGXkriNiIiIKSRuAwAAQHKI27arOW4rri4MWmOjo+Zt53vwwIFHxe35kfvkiRNuy+ys+XPNUo9h3gj5oagvGUZrOO9ZqbA5sXHjowLqUirebd68OdqH++W/e8Hd8emKe+iBx5tBe77E7aWtN27H6osJvZ5ZP5NU7QHe39+/KHLr/1eotgL2chK3ERERMYXEbQAAAEgOcdt2NcdtbY8xP2jJWu7vUnE79ulPe5o7cfy4Cy1yKyB3GEE/FPP5fEPnmyK3LsZphdSF6gPHldWfOXTokHvZSy+62z815n50/0+ZYVsSt5c2adyOjSJ39T5aP5tU7fNdLpej1dq6+GS5r8+M1ytJ3EZERMQUErcBAAAgOcRtW+L2Yo8cPmxG7YU+7alPdceOHnWzMzPmcZrlyPCwW2fc91AsFArRlirW2H2oGFxP5NZz6sCBA+5FL7zkPvvxCffD+55E3K7DtHE7Vqvvs47cG6rnvpYLRy4lcRsRERFTSNwGAACA5BC3bYnbi601bsc+9aab3NEjR4KK3NrDWBd1tM5BKOqimHqjb43fh9qiQrHOCqkL1bgUkffv3++e+5xL7tMffbL7/r0/+0jcfsmLzxG3lzCruB2rLyayitwK5la0rlXiNiIiIqaQuA0AAADJIW7bErcXq1C9MGDfeMMN7uyZM9Fq7YX/FqvIrTA+s3mzedxmqMhdqVRcLpdbdC5CsVgsRhHNGr8Pk0TuvXv3Vh/jS+6TH5p137vnF9zNTztY88UrF6pjWuOqRX2BMjc3F+0TPpkwQjczbs9t3eq0nY/Oqc6D9fNLqcitn7OOW6vE7fokbiMiImYqcRsAAACSQ9y2JW4v9vixY4vC9Q3XX+8O7N8f7cd97uzZaN/thbeJvenGG92hgweDitxa+To0OOja2toWnZNQLHV1RfHRGr8PtQ9zPZFbt9+zZ487eXKf27VzS80/u1AdyxpPLW6bm3PPesZu97Y3P9ldc80Ft3PnzrojdzPjtp4/f/rW9e4lLzrtjhw5EkX6es+jvrCxjl2LxO36JG4jIiJmKnEbAAAAkkPctiVuL9aK29dde20Ut2MV6a4+f37R7ear1d66nfU7mqUi9+DAQNCRu7tUWjHAZqlirD5wWCF1ofM/oFj/Xov6WWsctbhzxw73+tcejbZG+cdv/Ir72/fvdtdff9FVX9+ibVJqGVcz4/bZs2fdPXf9pnv4wce5L32m7F71yvPuWPX5NjMzU3PkJm43TuI2IiJiphK3AQAAIDnEbdvVHLetrThquZDhyRMnFoXqhXFb1ro3d7zq2/pdzVJbcyjWrV27dtE5CsWenp4otFrj92E9kTuN+h3W76/F3bt2ube88cwje3/Lf/rmL7kPfXCHe+pNl6LXBK0wX+5+NDNuX7j66ihux2N/+MHL3Fc+1+X+8NXn3PHjx93s7OyKF/8kbjdO4jYiImKmErcBAAAgOcRt29Uct61wqzeW1m3nm3Xcjr3+uuvcvr17zd/ZLBW5y+WyW7NmzaJzFYIaV19vb7Qq2Rq/D2tdAZ3UWubgUlpxO/a79/yi+/gtW9wznnEp2iN8qX2tQ4rbP/Yy99XbO9wfv+6MO3nypNuyZcuSkZu43TiJ24iIiJlK3AYAAIDkELdtiduLPXXy5KIwbcXtY0ePLrqdfMbNN5v/PVbH2rtnj/m7m6WCZF9fX9CRu1wd33LhNEuvrKrIq/liBdY01jIHl3K5uB37/Xt/zt36kc3u2c+66Pbt27cococZt3/s1+9Y6978xpPu9OnT0cUzF164k7jdOInbiIiImUrcBgAAgOQQt22J24s9c/q0GaRrjdvXXnNN9G/6GevfY695ylPcnupjaI2hWSps9vb2Bhu59Zj29/dHK86t8WetQqou2Kh5Mz+wprGWObiUtcTt2B/c9yR328em3Auef8kdOHAgeq3Q7w49bsfe86Xfcm9/67Fon+5t27Y9ErmJ242TuI2IiJipxG0AAABIDnHblri9WCtuK1jXGrcVrePb6OKU2o7Eul3sUy5dclft3m2OpVkqgPZ0dy86f6Gox3ZgYCC6QKY1/qyNI/fCkJvEWubgUtYTt2N/eP8T3ec+cYV76YsvukOHDrmtW7a4mc2bzePLUOJ27H1f/q/uXW8/7M6fO+e2b9/utszOmseuReJ2fRK3ERERM5W4DQAAAMkhbtsStxd77uzZRQF6frCOrSVux54+dcq87XwvXbzodu3caY6pWSoGdpdKi85jKLa1tbmhwcHGRu4F22TUay1zcCmTxO3Yhx54gvvCrcPuec8+5nbu2GEeX4YWt2MfuPtX3Tv/91Xu8KGDy8b55SRu1ydxGxERMVOJ2wAAAJAc4ratz7itFaKKaNu3bUsco9KYNG5rhejC8Jw2bmsFt3Vby4sXLiwbH5vhxg0bXFdX16LzGYq5tjZXGRpKtWVFPer3LNwLulZrmYNLmSZux37+k5XoYqjW8WWocTv25qdf7WZnZszjryRxuz6J24iIiJlK3AYAAIDkELdtfcbt/fv2uT/atNW95OqL0cXhtCq5kZHbd9xeKlhbtz1x/Lh52+W8+vx5t2P7dnOMzXJD9fwVi8VF5zUUc7lcNK8bFbn1/Ks3ctcyB5cyi7h9x6dHooumWseXocft5z/3Opd0axLidn0StxERETOVuA0AAADJIW7b+ozb2orjtnX97quP/xX3icqE+73rboguDqdAl3TlZT1a8XPjxo3mbeerldMLQ3M9wTqruB0b7TW8bZs51mZ5xfr1rlAomOc4BNvb293w8HDjIvemTVE4tWLvQvXhxjpGLRK3iduNlLiNiIiYqcRtAAAASA5x29Zn3FaUVdz+2k/868ivPu6X3Sf7xt1rnnJd9G+6iKLPyG1FT8Ut67bzTRu3dYHIWm8rr7v22uhnnnHzzea/S/3b2TNn3La5OXPMzXJ8fNzl83nzXIfgunXr3OjIiDl2Hypy6wsUK/rG6sON9bO1SNwmbjdS4jYiImKmErcBAAAgOcRt20bG7Ue87JfcrcWKe93Fa6PYtad6P5LGquW0YmctcVsXdlwYl+sJ1vXG7fj2R48ciSK6dZtYRe4zp0+7ua1bzbE3y7HRUdfR0WGe8xDU2DRGa+w+3KTIvWGDGX/14cb6mVokbhO3GylxGxERMVOJ2wAAAJAc4rZtU+J27GW/FP37G65+SrRaeu+ePYmjlaUVOWuJ21ZgbkTcjlXk1mpu67axNz/96dG2L7pop3UfmqVWSWu1tHXuQ1CrzLXa3Bq7DzdNT0eBcH781Ycb67a1SNwmbjdS4jYiImKmErcBAAAgOcRt26bG7Xl+Zm2Pe8vZi1Ho3bd3b+J4NV8rbjYrbismWreVWilez+3nq8it24YUubXP9cjwcLTvtfUYhKD2C9e+4db4fTg/cuvDjXWbWiRuE7cbKXEbERExU4nbAAAAkBzitm0ocTv2c79ZcG87dd5de801bv++fYkjlrSiZi1x21o1XU+wrjdua9V6Pbe3fPrTnhbF9ixXvqdVkVtzrD2XMx+LECwWi25D9cOGNX4fTv9L5Lb+rRZ37tjh/vh1x8zoW6vLxW19SbJj+3a3detWNzU1ZcbrlVwubmvfeOJ260jcRkREzFTiNgAAACSHuG0bWtyOvf2/5NyfHDzujhw+7GY2bzaPv5JWzKwlbl9/3XWL4nE9wbreWJ1F3I5V5D5+7JjXC3XWqyJ3pVJxuYAjd1dXV7RHtjX+kNRe60+96ai7+/a8c9++bFH4rcXl4rb2v3/LG6bd+/7sye7GGy9GrzGK3PpAZoVsy+Xitub2X7xzq/vut/6VObZaJG43TuI2IiJiphK3AQAAIDnEbdtQ43bsC86cS7TlhoKqFTEnJybM28/Xitv1bB3iM27rtlr9+rSnPtX891j9+7GjR4OK3E/etMkNDQ66trY287EJwVKpVNMXIM1SX/Rs377dHa0+tq9+1Xl312d73MMP/qQZgZdyubh9+NAh95G/uTK6nQL0R/52zj39aZfcnj17olXn+mBmBe35Lhe39Vy+avdud8MNF9wtH9jpvvPNX140vpUkbjdO4jYiImKmErcBAAAgOcRt29Dj9u9ec120WtU6/nIqpFrxUvsJW7ef70033rgoFtcboGu9rbRur4tFLnfbgwcOuHNnz0Yrta3bxT71pptSrX73oR6bwYEBt3btWvMxCsHu7u6avghphpuq5y/a2qT6mB45csS98hUX3J23DbiHHnycGYMXulzc1lz55Ie2Pur237vnF6r/bbY6ny65vXv3Rr9fH9CssC2Xi9tSK+S1GnzXrl3uuusuuA++7yr3D1//vx71O5eTuN04iduIiIiZStwGAACA5BC3bYnbi/URt5eK1dK6/ZnTp83bXn3+/KNup8itLVOs285X90mrckOK3LrIYn9/f7CRe82aNVHMrGXONFLF5Tgkx5H78OHD7n/8zgX3hVuH3UMPPMGMwrH1xu3YH9z3M+62j25yz33ORbe/OveWity1xO34tpPVc7tz587qHL7g/vLd+923v/ofzN89X+J24yRuIyIiZipxGwAAAJJD3LYlbi9Wq50XxuEkq6vnu1SslguD9XK3r+e2ljfecIM7dPBgUJFbMbTc1xfFZOsxa7YaV19v74rRtlHOj9ux+sB0ZfXfDh065F764ovu859c7350/xPNOJw0bsf+8P6fdp/9xAb3ohdecgcOHIheg/T747HUE7djJyYmou1WLlw47979zkPuga/8Z/N3S+J24yRuIyIiZipxGwAAAJJD3LYlbi/W2uqjnmB94eqra76tbGTcjr3h+uujn7Xuf7PUVhWKyCFH7nK5HO09bY2/UVpxO1YfnPSaoOj8wudfcrd9bMr94L4nPSoOp43bsT+6/6fc7Z8acy976cUoqmsFuX5/krgdG0duvXa8821H3b13/fqi30vcbpzEbURExEwlbgMAAEByiNu2xO3Fpo3b9QbotHFbF5i0bluLunjm/n37zPPQLPUY9fT0BBu5tY2KtlPRtirW+H27XNyO1Qco3W5f9bF99rMuuls/stl9/96fi+LwHbcOuxPHj5vHriduxz70wOPdFz895F7x8gvR9ihzc3PL/mXAcnE7VpFbxzlTndtve8sJ9607f/uR3/ecZz3FEbcbI3EbERExU4nbAAAAkBziti1xe7HPuPnmRRHY5+rqtMfWhSWt29bjddde6/bt3Wuej2apCzrqwo7W4xiCbW1t0YUxNdes8fuylrgdqw9Sur0uBPmMZ1xyf/f+KffB914e7dVuHTtJ3I59+MHHuS99ptc98+ajbvu2bebxZS1xO3bjxo1R5D516pR70+tPuy9/9v911zzlmJudmTGPvZLE7fokbiMiImYqcRsAAACSQ9y29Rm3tSd1s+K2VtVaQVJbX1i3n68Vfxsdt5cK1vrCoNbbJvHaa65xe6rzyjovzVJBslQqmY9nCCpyDw0ONixyX1l9ziv8WzF4KfWBStupaMuP3bt2LfmcShO3Y9/zp7uXnUP1xO1YRe4tW7ZEF5/cUb0PSfeMJ27XJ3EbERExU4nbAAAAkBzitq3PuK3w+vbte91dv/ifzHBdi0njtlZoWyGylgBpRV+fq6vrCdb677XeNo3XPOUp7qrdu83z0ywVRbuKRfNxDcFcLucqlUoUn63xZ22SyC31M9bxZBZx+/3vObDsVjdJ4vZ805xf4nZ9ErcREf//7P0JdCRpWpgLnx7awzYGBjAGg40Bs/0wVVKppNqlUpVaS0aX1tq0KyKlqpJq3/eSqlRVbcDYw3LBcDDX4GvzM3T7YuMD/jFwbMDmsNlmMAZ82ewxF8OwmcEDTbs7/nijM7tTkW9GxhdLZmTqec55Ts20PkVlRIZUyidDbyCmKnEbAAAA4kPc1s0ybs9MT7trq6vu16xvuD+5eNb9rc/6EjVgh9nouC2zfLXYqwXrWrOuTeO2SbBuVNwue+/uXf9KX+1YNctj3ouDPXv2qM9vHty1a5c76H1tNTRye+e7vGjSYnBQ4rYerqNI3EZERMQEErcBAAAgPsRt3SzjtijjAyROSzR7ZeOx++PFNfc3P+fL1JCtmee4XSsqm44OMQnWJmvTVG6oubS4qB6zZmkVCm5PT4/6POdBidxDg4PqY8/CqJGbuK2H6ygStxERETGBxG0AAACID3FbN+u4XalEarmS++n6hvtjZy66v/F5X6kG7UobHbflanMt7mY5OsRkvbZWwru2Ngvv3L7tLi4sqMeuWco53N3drT7febCrq8sdHh5WH3sWSvyV819eRGlxmLith+soErcRERExgcRtAAAAiA9xW7eRcbusxOrVc+fcx+vr7g+vXXF/7Qt3qGFbbHTcnpudVaNu0gBda62orZeYHnVtI+N2Wfk75cZ+2jFslhKQd+/erT7veVAe20iDv97kBqryYqoyDhO39XAdReI2IiIiJpC4DQAAAPEhbus2I26XlaukJc4+evTI/cFL193/50s62zZu14rVokmwlptYRl2bta88f+4/djlm2rFslkNDQ/7V0trznwd7urv9kSraY8/KyshN3NbDdRSJ24iIiJhA4jYAAADEh7it28y4XVbmXEsMe/jggfsDV2+5v/oVPe/E7f/j3oOGxm25GlkLuUnjdliAlhtTRl2fp7hdViK37EOeIrcEULmpo8y91s6DPLinp8d92bLUx5+VkxMT/teG9jFRzqef+7fH1WgdVeJ2+0jcRkRETFXiNgAAAMSHuK2bh7hdViL3yvKye//ePff/vn7H/aWv3OM+X7vgX+GtrQ9Trk7VgmK9MCbzpLWAaxKsTeO2SbDOY9wuK5H72tWrsd6MyEp5vl8aGHA7OzvV8yEP7t271z3mveDRHn+jlTd3vv7rzru/9ct97lt//AlqvK4ncbt9JG4jIiKmKnEbAAAA4kPc1s1T3C4rkXu5WPRHJNhLS+6pkyfVdWFKxNJCora20jTitmmAbpe4Xfb5s2fu1StXYr0pkZUSRAeOHnU7OjrU8yIP7tu3zx31zlvt8TdK+VqTNyfWvK+9b/vWO+6v/9KA++YfvahG7FoSt9tH4jYiImKqErcBAAAgPsRt3TzG7TSMG7cd21aDbZYBOum27965o65tthK5r1y+7MqbFdqxboYylubIkSO5jtwH9u93x0LmYmetjC2RF2AnvP+9urrq/h/ffNf9f35xxP3ff/heNWYHJW63j8RtRETEVCVuAwAAQHyI27rE7a3mJW7XCtYy9iPq2rz47OlT9/KlS26eIvfU5KTb39/v7ty5Uz1P8uDBgwfd8ZD52FkpcbsckuWFmHyPOXv2rPsNH7zn/sovHHPf+MNPUqN2WeJ2+0jcRkRETFXiNgAAAMSHuK1L3N5q0TumWqBNGrfv3L6trhVN4raM+4i6Nm8+3dx0L1644J4+dUo99s1QIvfhw4dzG7l37NjhHjp0KPQmkGlbGbfLyguyqakp94x3vv2dr7vr/ud/P+W+/vufStxuc4nbiIiIqUrcBgAAgPgQt3WJ21uVG1pqYdYkWJvEatEkWLdy3C4rkfvC+fO5ityTExNuX2+vH5O186bZyuOSxyePU3v8aarF7bLywkwi97L/dXLP/fDPnnb//KOfRtxuU4nbiIiIqUrcBgAAgPgQt3WJ21s1idu1orLp6JDtFrfLbj554t80NM4NQ7NSwq5cKZ3nyH24r8+/4lx7/GkYFrfLygu0Se8xFItF99nTe+7P/9Ss+2e/934/bv/IDzn+15G2bZG43ToStxEREVOVuA0AAADxIW7rtmvcloCmhUFtbaVyxakWYk2CtWmAThq37929q65tFZ88fuyunjuXq8gts65l5nXwHMqLMkZFYmsWkTtK3C4rL9QmJib870WPH991f/SHJt3v/LYZd2lxUd22SNxuHYnbiIiIqUrcBgAAgPgQt3UlZGkRqNWVHyC1IKitrfTc2bNqgM3y6mqTYK2tvX/vnrq21Xy8seEff+15aZZjY2Pugf37q86lvNjR0eEeOXLEPT41pT7+OEo8lrj/shKWw5TIffr0aXd+bs4Nu3kocbt1JG4jIiKmKnEbAAAA4kPc1m3EDN9mKD9ABkNgK8XtWsH6yuXLkde2qhvr6/5+ac9PsxwdHXX37dtXdU7lRYncR48eTRR+g74Tub2vJS0y17Le9xTidutI3EZERExV4jYAAADEh7itS9ze6trqqhpck8btsABtEqwvX7oUeW2ru/7oUejs5mYosW/v3r1V51Ze7OzsdAcGBlKP3PIbHvI1pcXmoMTt9pG4jYiImKrEbQAAAIgPcVuXuL1VucGhFlpNgrVp3DYJ1tspbpd99PChu1wsqs9Xs5SRHXv27Kk6x/Lirl273EHv6zvVyO0ZJXITt9tH4jYiImKqErcBAAAgPsRtXeL2VtOI26YBmrgdzQf377tF75zXnrdmaRUKbk93d9W5lhe7urrcoaEh9bEnUeZry9eYFp+J2+0jcRsRETFVidsAAAAQH+K2LnF7q5cuXlTDapajQ5LGbYm+2tp2VY6NY9vq89csCyMjbvfu3VXnXF7c7T224eFh9bEnUb5/HPO+1irjM3G7fSRuIyIipipxGwAAAOJD3NYlbm+1VtzO8upqk2BN3H7Xe3fvukuLi+rz2CwlIO/u6qo69/Jid3e3H+K1x55EP3KXojVxu30kbiMiIqYqcRsAAADiQ9zWbde4LQEvGPZkDrG2tlKJx1pITRq3wwK0yfqLFy5EXtsuPt7YcG9cv+4+3dxUPy439lxcWFCfz2Y5NDjodnnnW/AczIs9PT3+SBXtsSdxcnLSnZqaUj9WlrjdOhK3ERERU5W4DQAAAPEhbusSt7cq40e0gGoSoE3jtkmw3o5xe2N93d/Pc2fPujdv3HCfPX2qrrt965a7MD+vPq/NUCKs3NRRzrvguZgX5aaY8mJLe/xZKcdlfGxMDddRJG43TuI2IiJiqhK3AQAAID7EbV3i9lbTiNsy2iTqWpG4He6jhw+37K9EbgnZ2lrx1s2b7vzcnPr8NkOJsQMDA25nZ2fVOZkX9+7d64dM7fFnZdzITdxunMRtRETEVCVuAwAAQHyI27rE7a1ev3ZNDaZZjg5JGrcl/mpr28Vg3BbPr62pa8u+8vy5f5X33Oys+jw3w+NTU+7RI0fcjo6OqnMzL+7ft88PwNrjz0o/co+P+y/6tJgdlLjdOInbiIiIqUrcBgAAgPgQt3WJ21utFbezvLpaW//wwYPIa4nbtZXILc/p7MyM+nw3Q4ncR/r7cx25D+zf719VrT3+rJRoPREhchO3GydxGxERMVWJ2wAAABAf4rYucXurcuNCLZImjdu1YrVoEqwvnD8feW27qMVtOWbaWonZ2n9//uyZe+3q1VxF7qnJST+Y7ty5s+pczYsHDx70g7P2+LOyXuQmbjdO4jYiImKqErcBAAAgPsRtXeL2VmVesxZHk8btsABtEqzliuWoa9tFk7gtbyLIx2odE4ncV69ccWemp9XnvxlK5O7r63N37NhRdc7mQXlchw4dciea8L1C/k55MUjcbo7EbURExFQlbgMAAEB8iNu67Rq3R4aHqyJdV1eXurZSk7hdK6Caxm2TYL0d47YE6+A+14rb8oZDeY3c2HP90SN13bOnT/056tOnT6vnQTOUr8Xe3t5cR+4+7/E143uG/J3yopC43ViJ24iIiKlK3AYAAID4ELd12zVuDw8NVcW53bt3q2srvXP7thpDTYK16eiQpHG7VsBtFyuDddkocbusjCPR1ooSuSWCnz51Sj0fmqGM5JArpfMauWWMyuHDh/0rzrXHn6VJv18Rt80kbiMiIqYqcRsAAADiQ9zWJW5v9e6dO2oEzXJ0SNK4vbG+rq5tF5PGbYnX2tpKn25u+tvMU+SWGzoePHCg6jzOixK5+/v7/Rtkao8/jxK3zSRuIyIipipxGwAAAOJD3NYlbm+1VtxOGqBN43atYE3cfttawVpbK+NHtLWam0+e+G9knDp5Uj0/mqEE2QP791edz3mxo6PDPXrkSEtEbuK2mcRtRETEVCVuAwAAQHyI27rE7a1KPJZRFcHomTRuhwVok/Wr585FXtsumgTrpHG7rETutdXVXEXu0WPH3H379lWd13mxs6PDHTh6NNFM7KwlbptJ3EZERExV4jYAAADEh7itS9yudmZ62r1y+bL7/Nmzd2KnXNEdDMu1Zl2bxm2JqFHXE7fftlawvn/vXuS1orxBIZ/zyvPn6sefPH7sH/M8Re5j3oujvXv3Vp3febGzs9P/3pLHyE3cNpO4jYiImKrEbQAAAIgPcVuXuF1bidxyM8Jy5JY/b9+69U5grhWVTeO2SbDejnHbJFibxu3yehlFIhFdWyM+3thwz509q54nzfJly3J7enqqzvO8uGvXLndwcDBXkZu4bSZxGxERMVWJ2wAAABAf4rZuu8btocHBqtjW3d2trq3n7MyMe/3atXeu7pXIfevmTT94BiOoaBqgk8btWo+jXWxE3C4rkTtsPrpcrX9mZUU9T5ploVDwz+3g+Z4Xu7q6/DebtMfeaInbZhK3ERERU5W4DQAAAPEhbuu2a9yWfQtGtj09PeraqM7Nzro3rl+vOcKibBpx2yScy+gMbW27mDRuX71yRV0r3rt712h9WQngK8vL6nnSLEeGh/3fTgie93lRHps8Ru2xN0ritpnEbURExFQlbgMAAEB8iNu62yluyyzgNPZ3fm7Ov3K7VuQ2vbraJFjLaIyoa9tFk2BtGrdllrrJ+qAPHzxwl4tF9TxplnKVtFwtHTz/86JcZV4YGVEfe9YSt80kbiMiIqYqcRsAAADiQ9zW3U5xW9yxY4fb19fnTk1Oqp9n4sL8vD+DOxg8Ta+uNlkfXBe2tl00CdamsTpp3C4r87od21bPk2Yoc65lNI/Mvda+DvKgzAuXueHa489K4raZxG1ERMRUJW4DAABAfIjbutstbpfduXOnH6vSiNyLCwvundu33wmdMpf50sWLW4JpWICuXFdvvcnadtFkdEiWcVvWyliap5ub6sdFCfH20pJ6njRDidzytbCrs1P9OsiDe/fudY95L/i0x5+2xG0ziduIiIipStwGAACA+BC3dbdr3C7b0dHhHj1yxD0+NaVux8SlxUU/gJZDp8xlvnjhgh9MidvxNQ3QUdeK2vprV6+GrpXRMDdv3HCfPX2qrhNlrZwP2nnSDCVyDwwM+KN5tK+DPLhv3z539Ngx9fGnZdK4feDAAfX7cLtK3EZERExV4jYAAADEh7itu93jdtnOjg534OhRPwJq2zNRrtyVK3jLoVPmModd7RuMq6JJ3A7bdjuYNG7XitWitv76tWvqWhlBU7lOInfl86wpV/TLlf3aedIM5U0ceTNH3tTRvg7y4P79+/0IrT3+pCaJ23KFucwy174Pt6vEbURExFQlbgMAAEB8iNu62yluy7zt4H8LKuMbBr3PTSNyywxmmcWsRc9KK4Np2VrB2mRtu2gSrE1itRgM1mHrTdYGlc+VGe3aedIMJXIf6e/3x/NoXwd5UK6SHh8bUx9/XOPE7cN9fe7u3bv9x0TcRkRExAQStwEAACA+xG3ddo3bR48erYplJiGva9cu/4Z82rZNXS4W/au3tegpBoOpqAXr58+eRV7bTpoEa7lSOupasVFxW3zl+XP31s2b7vzcnHqeNEOZOX/48OHcRm55Q0rmXE+Mj6uP31TTuN3X27tllAtxGxERERNI3AYAAID4ELd12zZuHzmyJZKJcvWlacSTzxkeHlb/DlNXlpf9OdzB4BkMpiJx+12TjA4JWysmjdtyg0ltbZjynMvnzc3OqudJM5TvAxJyo/x2QzOUx9V76FDi71cmcfvgwYNV3y+I24iIiJhA4jYAAADEh7itu53ittywrnylqmnE6+7udgsjI+rfZeqZlRV3Y339ndAp86OD0ZS4/a5ZXl2ddNtyY0ltbRTluZe/a3ZmRj1PmuGE9/1AInKeI3dfX5876X0da4+/nlHjtnyv0I4BcRsRERETSNwGAACA+BC3dbdb3C5/PO6Vqj09Pe7LlrXl74qr3JDw8caGHzrlzyuXL78TTU3i9rOnT6vWtpONjtu1grWMFIm61kR5XmWG+Mz0tHqeNEMZAyJXLuc1cssV1fImlbxZpT3+WkaJ2/JGlvZ3isRtRERETCBxGwAAAOJD3NbdrnG7rEQ8melrGvH27t3rh5/g9kw9dfKku3runPvk8WM/dMoV3ZcvXVKDda24Lf89uLadzPLqapNgLf896to4yvMob3DkKXLLDR3lxo7a10AelMgtN8aUG2Rqjz9oWNyWN7t27dql/j1liduIiIiYQOI2AAAAxIe4rbvd43bZuBFPtinBTNumiRK511ZX3c0nT9TwKRK337XWrGvTuG0SrLOO22XljQ15g2P69Gn1XGmGco7v379f/RrIgx0dHf7XfL3IXStuyxtcUebxE7cRERExgcRtAAAAiA9xW5e4vVU/4nnrgp9bTwnjEsi1bZookfvC+fNq5JZRJcG4Km7HuF0rKpuODjEJ1iZr01Ce70sXL7qnT51Sz5VmOHrsmLtv7171ayAPdnZ2ugMDA+4J7/ui9vi1uC3RPupvbhC3ERERMYHEbQAAAIgPcVu3XeO2jCoIhimJWNpaTYk6MnokuI0wJZDJFaAy6kTbpokSNC9euLBl9vZ2jdtZjg4xWa+tlfCurU1Ted7lDY88Re5j3gu0PXv2qF8HeVDGiwx639+CkTsYt2WGvvb5tSRuIyIiYgKJ2wAAABAf4rZuu8ZtudlcMEzJ1dXa2jDl5pF7DAOYRO7e3t5Ujq0ETbl6V0ZVvPL8uXvn9m1/RndlYG33uJ00QNdaK2rrJaZHXduIuF1WruY/v7bmX92vnSvN0CoUjANxI5XIPTQ4+M7jLcftw319fqjWPidM4jYiIiImkLgNAAAA8SFu6xK3o1koFNzu7u6qbYYpkVsi2tTkpLpNE2X+cvlGkxKzJaqWI7cWQttJk2BtEqtFk2AtN7GMujZL5eajMp89T5G7MDJi/PXRSCVKDw8P+3G799Ahf0a3tq6exG1ERERMIHEbAAAA4kPc1iVumzkyPOzu3r27atthyo3q+vv7697sLooz09Pu1StX/MAthoXbdjFp3A4L0HJjyqjr8xK3yz7e2HDPnT2bq8gd5+ujkUqcjjpfW5O4jYiIiAkkbgMAAEB8iNu6xO14Dg0N+aEr+HeEKVeLyo0u04jcszMz7rWrV9t+JIloEqxN47ZJsM5b3C67sb7uPxbtPGmWcb4+WkHiNiIiIiaQuA0AAADxIW7rErfjKzerk5vWyVzf4N8VZmdnpzswMFB1s7s4SuSW6CrzuLXw2Q6aBGvTAN0Ocbvs+qNH7pmVFfU8aYZxvz7yLHEbERERE0jcBgAAgPgQt3WJ28mViCexWqJ18O8MU6KfxL80Ivfc7KwfgdsxcmcZoJNu++6dO+raZvro4UN3ZXlZPU+aoZzfL8X4+sijxG1ERERMIHEbAAAA4kPc1iVup6eMG5GxI6Y3q5NgJmMctG2aOj8313ZzuBsdt2sFaxkDE3VtHnz44IFb9L5HaOdJM/TfBDp6NPbNHPMgcRsRERETSNwGAACA+BC3dds1bvceOlQVpuS/aWvTdmpy0r+BpNxIMvgYwpQb8ckN+bRtmrowPx8adVvJpHH7zu3b6lrRJG7LjTyjrs2TD+7fdx3bVs+TZihvAh2J8SZQHiRuIyIiYgKJ2wAAABAf4rYucTs7JXIf7utzd+zYUfVYwuzu7nYLhYK6TVMXFxZaIsCGaRKsTWK1aBKsWzVul713965rLy2p50kzjPsmUDMlbiMiImICidsAAAAQH+K2LnE7e+UY9/b2GkfuPT097suWpW7T1KXFRT9uatEz75oEa9PRIdspbpeVxyxvemjnSTP03wQ6fLglIjdxGxERERNI3AYAAID4ELd1idvVLheL7o3r193ZmRn143GdGB93Dx48aBy59+7d60cmbZumyniK+/fuqdEzr5oEa9MAnTRut+obBqJc/S7ja7TzpBnK96K+GG8CNVJ5w0n7PtyuErcRERFTlbgNAAAA8SFu6xK3q11ZXvbj3/Nnz/ywmnbkHh8b829uGXx89dy/b587NjqqbtNUudGgzGIOBs88muXV1SbBWlvbam8UaMoNSOVGpNp50gzlTaBD3tdqniK3PJb9+/e7hw4eVL8Pt6vEbURExFQlbgMAAEB8iNu6xO1qJVpWxj+J3BI2Z6an1fVxlVC9b9++qsdZTwnjEsi1bZoqV6k/evhwy/7mzUbH7VrB+srly5HX5t3HGxv+byc83dz0//8rz5+7N2/ccOdmZ9XzpBmWf9NB+xpopHLjS4nt/YcPE7cRERExicRtAAAAiA9xW5e4Xe25s2erYqAokVsC5/Tp0+rnxfWY98OujB4JPt4w5UpSCW4SALVtmipXq68/eqTud7NNGrfDArRJsL586VLktXl3Y33df/xyrkvUfvb0qf/fJXJnMZIniWPymw7796tfB1m7a9cu/6awEraJ24iIiJhQ4jYAAADEh7it265xW7vis6+vT10btFbcLishUEJn2pFbbh7Z09NT9bjDlMgtc4rTeh4leEr41Pa7WZoEa9O4bRKs2yluy9X6lfsh5/ztW7fe+XhWI3mSOBrzNx3i2tPd/U7UJm4jIiJiChK3AQAAID7Ebd12jdvaTOvDhw+ra4OeX1vbEgJrKSMdLl644J4+dUrdTlwLIyNud3d31eMPc+fOnf7+TU1Oqts0VWKnjK7Q9rvRmgRr0wBN3H5X7bzPaiRPEiW4mv6mg4nyhpFE9GDYJm4jIiJiQonbAAAAEB/iti5xu9qocbvs5pMn7oXz51OP3MPDw+7u3bur9iNMidxH+vvd41NT6jZNPHXypLt67pz75PFjdb8bZZajQ5LG7Va5KWfQqHG7bFYjeZIov+mwZ88e9esgrvL1IwFbC9sicRsRERETSNwGAACA+BC3dYnb1UqoDsa94A34NCVySyCUKKxtN65Dg4Nu165dVfsTptwE7+iRI6lFbtkv2T9tv7M2y6urTYJ1u8dt+S0Eba3M4S7/76xG8iTRKhT8ESLa14GJnZ2d/ogfLWqXJW4jIiJiAonbAAAAEB/iti5xu9pLFy9uiXtirRvwacqVznLFc5qR+4T3PA96z9euzs6q/QpTgt3AwID/+dp2TZQr0yX8NzpyJ43bYQHaZL3E36hr865J3H744IH/Mfmc8n/LaiRPEv1xPoa/6VBWPq/yxpG1JG4jIiJiAonbAAAAEB/iti5xu1otbgdjYPAGfJpytbes0/6OuEqklljd2dFRtX9h7tq1y4/jaUVuCZthV7GnqUmANo3bJsHaZG3elWAd3BfZP22t7GN5jXxtrD969M7HshrJk0R/nE9Xl/p1oCnzu7WQrUncRkRExAQStwEAACA+xG1d4na1Mlu4Mu6JpjOKKy1f9a39XXGVcSMydkTGjwT3M8yuri53eGhI3aapMppCYnLYVexpaBKsJb5GXStu17hdGazLRonbZa9dvbplTVYjeZJYb5zPzh073IPe9wktYteSuI2IiIgJJG4DAABAfIjbulnG7ZnpaXdxYcGdn5trePQ6sH9/VcySOKWtDZp23C4rV7yuLC+rf2dcpyYn/f2SG+EF9zdMuVHlyMiIuk1TJXLLMZObDmr7ndQsR4ckjduVozpayaRxW/vtBjGLkTxJfGecTyByy7ie3jrztTWJ24iIiJhA4jYAAADEh7itm2XcPrOy4i59w1n3wdc9cq9du+YuLS42LHrt27dvS8wS5UpnbW3Qq1euVEU7LW7XioGVN+DTlG0tF4vq3x1Xidx9fX3ujh07qvY7TLkRn9yQT9umqfJmhhy7tCN30gBtGrdlZEfUte0Ut2sFa22tvOGgrS2bxUieJL4zzqez0x9ZEmW+tiZxGxERERNI3AYAAID4ELd1s4zbMrrAem3W/dJXD7jTr51xN7/luXvjxg3XXlrKfEZvkrh9/dq1qlhnEre1G/BpSjQses+h9hjiKs9n76FDxpF7z549/g/d2jZNnZ2Z8Z/7tCK3SbA2idWiSbCW2dJR1+Zdk2AdJ26XzWIkTxJHR0fVaB1V4jYiIiImkLgNAAAA8SFu62YZt2/dvOnH7S9+da/v33p1v3v8Ncd98vef+h9zbDuzyJ123E7rBnya9+/d84+F9ljiOjE+7h48eLDqGNRz39697uixY+o2TZXIfeP69bpXstczadwOC9AmwVrG0ERdm3dNgrWcn1HXinJM5HMqn/csRvLEcYy4bSRxGxERMVWJ2wAAABAf4rZuI+N22S95dZ879tqC+/jbn7p3bt/2r16Wuc3aNuKaJG7fvHFjS6wTtRgYJW6XDd6AT/Pe3bv+6BbtMcV1fGxMnT9ez/3e50gI1LZp6tzsrH9M40Zuk2BtGrdNgnU7xW2TYG0at8vr5Y2D4JsQcrzSHsljInHbTOI2IiJiqhK3AQAAID7Ebd1mxO2yX+IpH1//jk337p07fvRKK3InidvyuCuDnJg0bteaZ6wpx0JuxKk9trjKOAbtmNTz4IEDfiDXtmmq3FhUO7b1NAnWpqNDksbtelfl59VGxO2y8pwEj6l8jaQ9kieKxG0ziduIiIipStwGAACA+BC3dZsZtysdfu20+/D/fOKHMRlfkDRyNyJup3kDPs3bt265C/Pz6mOM6zHvB+u9e/dWHZswZX73oUOH/FEn2jZNlX2SK/a1fdbMcnRI0rgtM6W1tXk3adzWbrpaVn4DIep62bbM4NfOkywkbptJ3EZERExV4jYAAADEh7itm5e4XfbIa1Pu/e9+7M+4PrOy4saN3Enitlw5HYxwJsE6rbhdVo6jXPWsPda4Wpbl9vT0VB2jMCVy9/X2pnbOyNXp2rEOmjRAm8btWsG63eN2WICOulaU59RkvZjFSB5N4raZxG1ERMRUJW4DAABAfIjbunmL22V7Xxt3b3znPT8onjp5Ut1+mHv27KmKsy8NDKhrgyaN2yZXxYoSX+VzwmZSy8fk5owyv1p7zHEtjIy43d3dVccqzJ07d7qHDx92pyYn1W2aKlfuStzU9ltMGrfDArTJ+tVz5yKvzbsmwdo0VseJ22Xliv60R/JUStw2k7iNiIiYqsRtAAAAiA9xWzevcbvsnVfuujPT0+r2w9yjXJUs+6utDaqFVpNgbRq3y+u1G/AFlch9/do1d3ZmRn3scR0eHnZ3d3VVHbMwOzo63CP9/e7xqSl1m6Y6tq3uv8TSYFiuNevaNG6vra5GXt9OcdtkdEiWcVvWyps2Tzc3t/z3LEbyiMRtM4nbiIiIqUrcBgAAgPgQt3XzHrc3PvgkVshNEre1wNqIuF1WuwFf0OfPnrnXrl6NFf7DHBocdHft2lV17MKUyH306FH3hHcuats0VW40KGNpgvsrwbMcmGtFZdO4bRKs2ylumwboqGtFbb2cq2Frz5096968ccN99vTplo+nPZKHuG0mcRsRETFVidsAAAAQH+K2LnG72izidlgMNLmKNqhEX1mbZuSWSC3HqrOzs+oYhinrZfRLWpFbbiwajPyyv3JePd7Y2PLfy5oG6KRxu9bjyLtJ43atWC1q6+W3DbS18oZF5TqJ3PL1U7kmzZE8xG0ziduIiIipStwGAACA+BC3dYnb1WpXTZsEa9O4bRIaaylXvEpsj3sDTk2J1ANHj/pXZgePZZhy5bdcAZ5W5JYbi9YaQxI0jbhtEs6fPH6srs27JsHaJFaLwWAdtt5kbRojeYjbZhK3ERERU5W4DQAAAPEhbusSt6vVQqpJsDaN1WnE7bISuS9dvOiePnVK3bc4ykztI0eOGEfurq4uf5a3ts04ynGpNwbE9Opqk2AtVxVHXZt3TYK13OQx6loxq7hdVq7elzdytHOknsRtM4nbiIiIqUrcBgAAgPgQt3WJ29VqcTvvN+ALKh+/eOFCqpF7anLSD3w7d+6sOrZhdu/e7RZGRtRtmnrq5Ek/Mqd1dbXJ+uC6sLV51yRumwbopHFbzm9tbaXyNaqdH/UkbptJ3EZERExV4jYAAADEh7it265xu7u7uyqyDg4OqmuDasHSNEBHXStq6+PegC/o5pMn/k0WJQpr+xpHidx9fX3ujh07qo5xmD09Pa5VKKjbNFX2Z211teq5kugpV65XHsuwAF25rt56k7V5N8urq5NuW85rbW2lcsNR7byoJ3HbTOI2IiJiqhK3AQAAID7Ebd0s47YE2mbF7d27d1fF1eGhIXVt0CzidiNvwKcp+yQxOM3ILedO76FDxpF7z5497jHvB3xtm6bK/ki8l4hfub8yN12uXJdjRNyuttFxu1awljfAoq6tVG76qp0P9SRum0ncRkRETFXiNgAAAMSHuK2bZdyWULX2ndfcHa8eUcN1FJsRt4OhVIxzdXWlWV7pGrbtoDLOQ0ZxpBm5J8bH3YMHD1Yd73ru27fPHT12TN2mqTJ+5cL581XjWuQK37ARLsFjKZrE7XrjYfJq0nMuLECbBGv571HXVkrcbozEbURExFQlbgMAAEB8iNu6Wcbtmelp/2rhx88fu5e+747b+epLasAOsxlxWxv1YRKs83YDPk25MaN8rrb/cR0bG3MP7N9fddzrKZ8jn6tt01SJ3DKWJGp0Dh5LsdbnmqzNu9p5VGvWtWncNgnWceO2zMDXnv96ErfNJG4jIiKmKnEbAAAA4kPc1s0ybotyhbDEaRkd8fjZE/fqh+65u18dUkO2ZivGbdMAnTRuR7kBXy1lRvWZlRX1OMRVrsaWq7KDx7+ecvW3XAWubdPU6dOn3cuXLtWdSR48lqIWrJ8/exZ5bStoEqxNR4eYBGuTtZXK16P2vNeTuG0mcRsRETFVidsAAAAQH+K2btZxu1KJ1HIl98bmY/fG//eB2/PqiBq0K21G3H7l+fOqmJY0QGcZt6PEwHrKjOqV5WX1eMRV5mrv3bOn6nkIU+Z3yxzviZTOS/ntgSuXL/txOrjP8jwHj6W4HeJ2lqNDTNZra+Uc19ZWStxujMRtRETEVCVuAwAAQHyI27qNjNtlJVbL3Of1jXX31j9+6B547ZgatsVmxG0tpjU6bteKgXFvwBdVmVFd9M4r7bjE1SoU3J6enqrnI0yJ3H19fe7k5KS6TVMlcssNQCsjt8Rt+W/B47kd4nbSAB12zmnr5byNujZK3Jbtac9zPYnbZhK3ERERU5W4DQAAAPEhbus2I26XleAoMevRo0funf9r3e19bbxt43ZYDMzyKtq4yg37HNtWj09cCyMjbrfyvIS5c+dOPypOpRS55VyS563y6ny5yaZc3V0+niZxu97Yk7xqch5pa2vFalFbXytYy3MRdW2lxO3GSNxGRERMVeI2AAAAxIe4rdvMuF1W5iPL3Ge5avj+dz92j7w29U7cfvR3N2LF7V27dlWFUomr2tpK5bFoMU0L1q10A764yo377KUl9VjFdXh42O3q6qp6fsLs6Ohwjxw54h6fmlK3aerc7Kz//FVGbrnJZq053bXiduWV4K1k0nMuLEDLcY26Pm7clsekPa/1JG6bSdxGRERMVeI2AAAAxIe4rSsjI7QI1AwlLMvc5/v37rkP/88n7tHvnXIvP7riX+GtrQ+zEXG7Vgw0uRJb1OJhrfUma9NUZhwvLS6qxyyuQ4OD6vMUpkTugaNH3RPeea9t09T5uTn/+dLmrFe6HeJ2rahsslY0CdZx47Z8nvZ81pO4bSZxGxERMVWJ2wAAABAf4rZulODbaCUwLxeL7vm1Nf+q4VMnT6rrwowbtyWkazEty9EhJuu1tVFiYFreuX3bXVxYUI9dHCVSy3nY2dlZ9XyFKevl89KK3Avz86HHUUaVBI+7uB3itmmAJm63j8RtRETEVCVuAwAAQHyI27p5jNtpGDduy7gKLaYlDdC11ora+lozjbW1UWJg2srfKUFYO4ZxlEgtV2TLldnB5y1MeZ7lCnBtm3GUcC8BP7i/7Ra3swzQSbctvyWgra302tWr6vNXT+K2mcRtRETEVCVuAwAAQHyI27rE7a1mFbdrxWrRJFibhsYslVEe8tjlmGnHMo4yU/tIf79x5N7d1eXP8ta2GUcZwVIZWWVfJXqvnju35dgTt6OtrxWsJVJHXVup3ABUe97qSdw2k7iNiIiYqsRtAAAAiA9xW5e4vVW5GlmLaUnjdlgMbMQN+LJUwq/sQ5qRe2py0j18+LC7c+fOqucxzO7u7lTPaRmLIzPgy/sqMVuOdzlyVx6HVjJp3Naubi9rErevXrkSeW2lxO3GSNxGRERMVeI2AAAAxIe4rUvc3qqMpdBimkmwNo3bSUNj2LYbqURuuRJ3dmZGPbZxnJycdPt6e90dO3ZUPZ9h9vT0uJZlqduMo2Pb7oP799/ZV4ncYVfj512TYG0Sq0WTYB03bl+6eFF9nupJ3DaTuI2IiJiqxG0AAACID3Fbt13jtjbW4uUIsTONuG0aoNslbpeV8CvRUm7OqR3jOE5MTLiHDh0yjtx79+51j3kvJrRtxlFudPrwwQN1v1tJk2BtOjqEuN0+ErcRERFTlbgNAAAA8SFu67Zr3NbGWcgPldraSuUKXS2mZRmgk247SgxshhK5ZXzE9OnT6rGO4/j4uHvw4MGq57ae+/btc0dHR9VtxnFledl99PChut+toEmwNg3QSeP2vbt31bWVXrxwQX1e6kncNpO4jYiImKrEbQAAAIgPcVuXuL3VvMTtWjEw7g34mumzp0/dy5cuuWlGbomUB/bvr3qO6ymfMz42pm4zjmdWVtz1R4/U/c6zWV5dbRKstbWVM85reX5tTX0+6kncNpO4jYiImKrEbQAAAIgPcVuXuL3VondMtZiWNG43+wZ8efDp5qZ/xe3pU6fUYx/H0WPH/Kuyg891PeXq74nxcXWbcZTnYWN9Xd3vPNrouF0rWMuV/VHXVkrcbozEbURExFQlbgMAAEB8iNu6xO2tyrgJLaaZBGuTWC1mGRrzqETuC+fPpxq5Za72nj17qp7zMGV+d++hQ+7kxIS6TVNPnTzprp475z7e2FD3O08mPefCArRJsJYr+qOurVSOs/Yc1JO4bSZxGxERMVWJ2wAAABAf4rYucXurJnG7VgzM4w348ujmkyf+FbgShbXnIo5WoeD2dHdXPfdhSuTu6+tzpyYn1W2aKvuztrrqPnn8WN3vPGgSrE3jtkmwjhu3z509qx77ehK3zSRuIyIipipxGwAAAOJD3NYlbm9VZihrMa3Vb8CXZyUCy5W4aUZuOa93795ddQ6EKedMf39/qpFb4r1EfG2/m6lJsDYN0MTt9pG4jYiImKrEbQAAAIgPcVu3XeO2XI0bjJcyukJbW6lEMy2mJQ3QpnE77RvwtYIyziNutKzl8NCQ29XVVXUuhNnR0eEePXLEPT41pW7TVBm/IrPGZRyLtt/NMMvRIUnj9oP799W1lcqbUNqxridx20ziNiIiYqoStwEAACA+xG3ddo3bWrSUsKWtrTQvcbtWDIx7A75WUm7MKPulPT9xPOF9jQwNDrq7du1Sz4tadnZ0uAMDA/7na9s1VSL3pYsX3WdPn6r73UizvLraJFjHjdsyPkg7xvUkbptJ3EZERExV4jYAAADEh7itS9zeqsxK1mJa0rgdFgMbcQO+VnT90aPYEVNTIvVLAwNuZ2enen7Ucpe3ftD7Wkkrck+fPu0/j82M3CbnkWmANlkvV7RHXVspcbsxErcRERFTlbgNAAAA8SFu6xK3tyozkrWYZhKsTeN20tDYrnG77KOHD93lYlF9vuIokfro0aP++BHtPKll165d/hXg2jbjODM97Z8rz589U/c7S00CtGncNgnWceO2Y9vqMa0ncdtM4jYiImKqErcBAAAgPsRtXeL2VtOI26YBmrgdTYmeRe+c1563OMpM7SP9/erNR8OUG1UODw+r24yjRG65YWkjI7dJsJZRKlHXisTt9pG4jYiImKrEbQAAAIgPcVuXuL1VCXlaTGv1G/C1k3Js4sZNzanJSffw4cPGkbu7uzvVr5/ZmRn3+rVr7ivPn6v7naYm55FpgE4at+VKfW1tpfbSknoM60ncNpO4jYiImKrEbQAAAIgPcVuXuL3VWnE7aYA2jdu1YiBx+13v3b3rLi0uqs9jHCcnJty+3l53x44d6vlTy56eHvdly1K3Gce52Vn3xvXrmUbuLK+u1tY/fPAg8toocXtxYUE9dvUkbptJ3EZERExV4jYAAADEh7itaxUKagRqdbUIGSVuSzzWYlrSuB0WA03Wm4bGdvDxxoYfe59ubqoflxt7xo2dmhPj4+6hQ4eMI/fevXv9GKhtM47zc3PurZs3M4ncSeN2rVgtmgTrC+fPR15bKXG7MRK3ERERU5W4DQAAAPEhbuvK1apaBGplZZayFh8lWmrrK5XxI1pMMwnQpnE7aWhs97i9sb7u7+e5s2fdmzduuM+ePlXX3b51y12Yn1ef1ziOj425Bw8cUM+lMPfv2xfpjZSoyj7Jvmn7HNek51xYgDYJ1jLjPuraSiX8a8eqnsRtM4nbiIiIqUrcBgAAgPgQt3WJ21tNI27n8QZ8razEzsr9lcgdFnvlaue48VNTguj+/fvVcyrMAwcO+IFc22Yc5WrlO7dvq/tsqkmwNo3bJsE6btyW0S3aMaoncdtM4jYiImKqErcBAAAgPsRtXeL2VuWGflpMy3J0SNK4HSUGtrKyf8F9liiqrS0rozzkKu+4EVRz9Ngxd9/eveq5VUsZbSJBNMq5F1WZMy6jWLT9jqrJeWQ6OiRp3F5/9EhdWylxuzEStxEREVOVuA0AAADxIW7rEre3WituJw3QpnE77RvwtbJx4nZZidzynM7OzKjPdxzlxcmePXvUc6yWErl7e3tT/Xqzl5ZCb1QaZpajQ5LGbRlDo62tdGZ6Wj0m9SRum0ncRkRETFXiNgAAAMSHuK1L3N6q3LhQi2lJ43azb8DXysr+BfdZjpm2ttbNF58/e+Zeu3o11cgtN2Pt6e5Wz7VaSuQ+3NfnTk1OqtuMY9H7PhD25olm0gAdds6ZBOu4cXv69Gn1WNSTuG0mcRsRETFVidsAAAAQH+K2LnF7qzKvWYtpSeN2WAxsxA34WlnZv+A+14rb8iaCfKzWMZHIffXKldhX/mqOjIy4u3fvVs+5Wu7cudPt7+/3z1Vtm3FcLhZD30SpNGncDgvQJutXz52LvLZS4nZjJG4jIiKmKnEbAAAA4kPc1iVub9UkbteKgaZxO2loDNt2OyjBNrjPteK2vOFQXiM39qw1v/nZ06f+HPW4kVRzeGjI7erqUs+9WnZ0dLhHjxxJNXKvLC/XnVstM7uDYbnW55jG7bXV1cjr48Ztbb+jSNw2k7iNiIiYqsRtAAAAiA9xW7cd47bskxYSJyOMgrhz+7Ya00yCdR5vwNfKVgbrslHidlkZR6KtFSVySwQ/feqUej6YesL7ehwcHHR37dqlnoO17OzsdAcGBvzP17YbxzMrK6GhWK5iv33r1juBudZa07htEqyJ2/mWuI2IiJiqxG0AAACID3Fbtx3jtlyhrQXEKFfHyhWtWkxr9RvwtbJJ47bEa21tpU83N/1tphm5JVZLtNbOxVpKFB/0vi7TjNznzp51H29sqPstSuSW31iotcY0QCeN22GPVZS56tp+RpG4bSZxGxERMVWJ2wAAABAf4rYucXurteJ20gBtGrdrxUDi9tvWCtbaWhk/oq3V3HzyxH8j49TJk+r5YapEahk7IuNHtHOyljLeZGhoSN1mHGV/JCQ/efxY3e8w04jbJuG83mOUq+21fYwicdtM4jYiImKqErcBAAAgPsRtXeL2ViUeSzwLBrWkcTssBpqsNw2N7aBJsE4at8tK5JbZ0WlFbjn3jvT3+zeS1M7NWsqNKkeGh9VtxlH2R/ZL9k/bb02TWC2aBGu5qjzq2rLE7cZJ3EZERExV4jYAAADEh7itS9yudmZ62r1y+bI/rqEc1Fr9BnytrEmwvn/vXuS1orxBIZ8joy60j0tolWOeVuSempx0Dx8+bBy5u7u7XatQULcZRxm/IleoR4ncJrFaNFkfXBe2tqyMkNH2KYrEbTOJ24iIiKlK3AYAAID4ELd1idu1lcgtNyMsR+5WvgFfK2sSrE3jdnm9hF6J6NoaUa5UlquMtfMkjvJ119fb6+7YsUM9V2u5p6fHfdmy1G3GUSK3zBqXYKzttyhv4sgYmMpjGhagK9fVW2+ytqx8XNuXKBK3zSRuIyIipipxGwAAAOJD3NYlbtd3dmbGvX7t2jtX97baDfha3UbE7bISucPmo0voPbOyop4ncZRz9dChQ8aRe+/evX541LYZR4ncErC1kTxl5bhICJfjRNzeHhK3ERERU5W4DQAAAPEhbuu2Y9werxG3JUwl2d+52Vn3xvXrNUdYlE0jbqd5A75WN2ncvnrlirpWvHf3rtH6shJ6V5aX1fMkjuNjY+6BAwfU8zbM/fv3+8FW22Ycp0+f9o9tWOR++OBB6JXeweMpmsTtsG2L8rWkPfYoErfNJG4jIiKmKnEbAAAA4kPc1m3HuC0BSwuBolwh29fX588+1j43ivNzc/6V27Uit+nV1SbBOs4N+Fpdk2BtGrdllrrJ+qASepeLRfU8iaOcuxKstXM3TAnjEsi1bcZRRvLIcaicOx/V4PEUawVrk7Vl5ep57TFHkbhtJnEbERExVYnbAAAAEB/itu52i9tl5YZ+EquSRO6F+Xl/BncwvpleXW2yPrgubG27aBKsTWN10rhdVuZ1O7atnidxlKgoo0e0c7eW8saNjDiRUSfaNuMoI3kq585HMXg8RS1Yyzajrq2UuN04iduIiIipStwGAACA+BC3dbdr3C7b0dHhHj1yJPY8bnFxYcG9c/v2lviWpxvwtbomo0OyjNuyVsbShMVXCfH20pJ6nsRRbh65Z88e9dytpf/bCb29qX5tB+fO11I+HjyeYppxW95I0B5jFInbZhK3ERERU5W4DQAAAPEhbutup7gtV2tr/13s7OhwB44edU94x1PbZhSXFhf9AFqOcHm5AV+raxqgo64VtfVypXLYWhkNc/PGjdC51LJWzgftPImjVSi4Pd3d6rlbSznfDx9O9tsJQWXuvOx7rcgt/12Od/CYErdbU+I2IiJiqhK3AQAAID7EbV25MlSLQK1srbi9a9cu9b9Xuquz0x30jkuSyC1X7soVvOUY1+wb8LW6SeN2rVgtauvlCmVtrYygqVwnkbvyedaUK/rlyn7tPInjyPCwu3v3bvXcraVE7iP9/Yl+OyFoee68ts+izJi/cvnyO8fKJG6HvWkgyjHXHlMUidtmErcRERFTlbgNAAAA8SFu6xYKBTUCtbK14na3wZWvXbt2uUODg+r2oyozmOUqUy3QVaoFvlrB2mRtu2gSrE1itRgM1mHrTdYGlc+VGe3aeRLH4aEht6urSz13a1kewZPkjZugtebOl91YX3cvX7qkButacVv+e3BtpfIca48lisRtM4nbiIiIqUrcBgAAgPgQt3W3U9weGBgIHU2iKVfJDg8Pq39PVJeLRf/qbS3UiVrgM7nSdTvG7VpRWa6UjrpWbFTcFmVkh1ztLFc9a+eJqRKp5bcMovxGQqWdnZ3+10KakVuuTpfnSdvvWhK38y9xGxERMVWJ2wAAABAf4rZuO8btY94Pj8GgJ1FbPibzh2UOsdx0L7gmTLnquzAyUvV3mbiyvOzP4a4MdY24AV+raxK3TQN00rgtN5jU1oYpz7l8nsyv1s4TUyVSS6yWaK2du7WUKD44OJhq5JY543IDUG2/g8p5GzyeYr24LW9gaH93FInbZhK3ERERU5W4DQAAAPEhbuu2Y9yWHx6DIa8ct8vKjTT7enuNI3dPT0/iOeVnVlb8cQ0S6hpxA75WN8urq5NuW26uqK2Nojz38nfNzsyo54mpMlNbxo7I+BHt3K2ljDeRMSfaNuMqI3nqzSOPG7fl6nft74wicdtM4jYiImKqErcBAAAgPsRt3e0at8tOjI/7wco0cu/du9cPP9o2oyo3JJQb70mwy/IGfK1uo+N2rWAtUTXqWhPleZUZ4jPT0+p5YqpE7v7+/lgjeEYS/nZC0KL3ParW3HmJ+3IV9uq5c1uOKXE7PxK3ERERU5W4DQAAAPEhbutu97hddnxszD1w4EDV59Vz3759fjDTthnFUydP+nHvyePHfrjL4gZ8rW6WV1ebBGv571HXxlGeR3mDI63IHXcET093t2ul/H1B5s4HR/JU7rc8b+XIra2pVEa6aH9HFInbZhK3ERERU5W4DQAAAPEhbusSt7cq8Wv/vn1Vn19PCeMSyLVtRlEi99rqqrv55Ika9ETi9rvWmnVtGrdNgnXWcbusvLEhb3BMnz6tniumxh3Bs2fPHv9rSdtmXGXu/PqjR+p+y3ksbzZoH6tU3tjQth1F4raZxG1ERMRUJW4DAABAfIjbusRtXYk6MnokuJ0wJR5K/JJRJ9o2oyiR+8L582rkjjujuNU1Cdamo0NMgrXJ2jSU5/vSxYvu6VOn1HPF1LgjePZ5XwejCUfwBJVjV547bypxu3EStxEREVOVuA0AAADxIW7rErfDlZtH7unpqdpemBIPe3t7/StmtW1GUYLmxQsXtsze3q5xO8vRISbrtbUS3rW1aSrPu7zhkVbkjjuCZ//+/YlG8GhWzp2Pqoxu0bYVReK2mcRtRETEVCVuAwAAQHyI27rtGLdlXnAwzHV0dKhroyrHqbu7u2q7YUrkPtzX588+1rYZRQmacvWujKqIewO+VjdpgK61VtTW1xqNoa1tRNwuK1fzn19b86/u184VU+OO4DkoI3gS/HZC0ODc+XoStxsncRsRETFVidsAAAAQH+K2bpZxW26Mt7iw4M7OzKQW5KJYGBmpCnK7du1S15o6Mjzs7t69u2r7YcpV4/39/e7xqSl1m1GU+cvlG01KzJaoGvUGfK2uSbA2idWiSbCWcRhR12apRGCZz57W11TsETyHDiUawRNU9kfifdjceZG43TiJ24iIiKlK3AYAAID4ELd1s4zbMnLA/qZz7sazDX/ExvzcXEMid5Zxu+zQ0JDb1dVV9feEKVePHz1yJFHkljcMrl654gduMcoN+FrdpHE7LEDLjSmjrs9L3C4r4zzkayytr6m4I3jkZpVJRvAEld9WqDV3XpTfZNA+L4rEbTOJ24iIiKlK3AYAAID4ELd1s4zbMkKj69VBd8erR9y11266T772aUMidyPitnjCO/aD3jGUbQf/vjA7OzvdgYEB//O17UZRroa/dvVq248kEU2CtWncNgnWeYvbZeXGjPJYtPMkjnFG8MhvJxw+fDjRCJ6g2tx5kbjdOInbiIiIqUrcBgAAgPgQt3WzjNsPHzzw4/YXv7rX96tePeyee+26u/l3nvojNhbm5zOJ3I2K22UlUkuslmgd/HvDlMckcTxp5JboKvO4KwNgO2kSrE0DdDvE7bLrjx65Z1ZW1PMkjnFG8MhvJxxJOIInaOVIHtlPuapbWxdF4raZxG1ERMRUJW4DAABAfIjbuo2M22W/8tVet/jaZXfz7z31R2zIXO40I3ej43ZZCXoydkQCX/DvD1PGm8iYE22bUZ2bnfUjcDtG7iwDdNJt371zR13bTB89fOiuLC+r50kcY4/gOXo00Rs3QSVyy7xtGcWifTyKxG0ziduIiIipStwGAACA+BC3dZsRt8t++asH3YXXzrub3/DMH7GRVuRuVtwuK6MZ5AaSMqoh+DjClKtk5WpZbZtRlZEv7TaHu9Fxu1awlnM06to8KF9/Re97hHaemJpkBM9LCUfwpClx20ziNiIiYqoStwEAACA+xG3dZsbtsl/66gF35rVz7uY3P/Njo7205M/b1bYZxZEmx+2yErkP9/X5N90LPp4wZd5x0udFRr6ERd1WMmncltnv2lrRJG7LbxlEXZsnH9y/7zq2rZ4npiYZwTM0ONj0yE3cNpO4jYiImKrEbQAAAIgPcVs3D3G77N96db976rVld/Nbn/kjNuJG7uGhoaq4JldFa2sb4eTEhNvb22scuff09LgvW5a6zajK1fCtEGDDNAnWJrFaNAnWrRq3y967e9f/mtLOE1OTjOAZTvjbCUkkbptJ3EZERExV4jYAAADEh7itm6e4XfZLXt3nTry25N79xnizg/MWt8tOjI+7Bw8eNI7ce/fu9SOTts2oLi0u+nFTi5551yRYm44O2U5xu6w8ZnnTQztPTI07gqfb+3qU8UHaNrOUuG0mcRsRETFVidsAAAAQH+K2bh7jdtn/z6t9/hW62rbDTBq3l4tF98b16+7szIz68aSOj425Bw4cqHqM9dy/b58f57RtRlXGU9y/d0+NnnnVJFibBuikcbtV3zAQ5WtLxtdo54mpcUfw9PT0uFaG34OCErfNJG4jIiKmKnEbAAAA4kPc1s173N7Y2FC3HWbSuC1Xi0v8e/7s7RtdZhW5JbTt27ev6rHWU8K4BHJtm1GVGw3KLOZg8MyjWV5dbRKstbWt9kaBptyAVG5Eqp0npsYewbNnj3vMe9GnbTNNidtmErcRERFTlbgNAAAA8SFu6xK3q5VoWRn/JHJL2JyZnlbXJ1WinoweCT7mMCUeHjp0yB91om0zqnKV+qOHD7fsb95sdNyuFayvXL4ceW3efex9XclvJzzd3PT//yvPn/tz7udmZ9XzxNS4I3jkzZ7RhCN4wiRum0ncRkRETFXiNgAAAMSHuK1L3K723NmzVTFQlMgtgXP69Gn185IqN4+UMQ3Bxx6mxMO+3l7/illtm1GVq9XXHz1S97vZJo3bYQHaJFhfvnQp8tq8u7G+7j9+Odclaj97+tT/7xK50xzJE3cEz4H9+92xhL+doEncNpO4jYiImKrEbQAAAIgPcVuXuF1trbhdVkKghM6sIrfcaK+7u7tqH8KUG/odPnzYn32sbTOqEjwlfGr73SxNgrVp3DYJ1u0Ut+Vq/cr9kHP+9q1b73w87ZE8cUfwyNXfSX87oVLitpnEbURExFQlbgMAAEB8iNu67Ri3B739+kAgkvV0d6trNc+vrW0JgbWUkQ4XL1xwT586pW4nqcPDw36UD+5LmBK5j/T3u8enptRtRlVip4yu0Pa70ZoEa9MATdx+V+28T3skj8TSOCN4emUET8LfThCJ22YStxEREVOVuA0AAADxIW7rtmPclv36QCCQ7enpUddqapEvOKO40s0nT9wL589nFrmHBgfdrl27qvYpzI6ODvfokSOJIvepkyfd1XPn3CePH1ftcyPNcnRI0rjdKjflDBo1bpdNeyRP3BE8/f396vaiStw2k7iNiIiYqsRtAAAAiA9xWzfLuH3v7t2WjNsSqoNxr9aM4kolcksglCisbTeJJ7znWa5I39XZWbVvYXZ66wcGBvzP17YbRdkf2S/Zv+A+N8Isr642CdbtHrfltxC0tTKHu/y/0x7JYzqCR85nbTtRJW6bSdxGRERMVeI2AAAAxIe4rZtl3JZYNvu9Z90vffWAGq/r2ay4fenixS1xT6w3o7hSudJZrnjOKnJLrO7s6KjaxzB37drlx/EkkVuuTJfw3+jInTRuhwVok/VyPkddm3dN4rb8BoZ8TD6n/N/SHskTdQSPXL2tfX5Uk8ZtGY+ifR9uV4nbiIiIqUrcBgAAgPgQt3WzjNvzc3P+KIMn3/jUXXjtvPvlrx5UI3Yt8xy3xbAxDqKMMpEIrv0dSZVxIzJ2RMaPBPc1zK6uLv+Gm9o2oypBU8KmNqIlC00CtGncNgnWJmvzrgTr4L7I/mlrZR/La+RrY/3Ro3c+lvZInigjeJKM2kkatw/39anfh9tV4jYiImKqErcBAAAgPsRt3SzjtihXLy8uLPg3pdv8e09d57VL7le+2qvG7KDNitsS5CvjnhgnbpctjzTR/q6kTk1O+tFNbiQZ3Ocw5SrZkZERdZtRldEUEpO1ES1pahKsJb5GXStu17hdGazLRonbZa9dvbplTZojeeqN4BkfH1c/L4rEbTOJ24iIiKlK3AYAAID4ELd1s47bZSV6LczP+6Fy8+ufumdfu+bHay1ql8173K4VAytnFFcqV7yuLC+rf2dSJXL39fX5YxuC+x5mT3e3ayU8ByRyyzGTmw5q+51Uk7htGqCTxu3KUR2tZNK4rf12g5jmSJ5aI3gkuGrro0jcNpO4jYiImKrEbQAAAIgPcVu3UXG7rEQvGVfiR+6v3XTXXrvpfuDV/lTjtgQxiWCV7tmzR12rKVeZB6OdSdzWZhRXKv99uVhU/+6kTk5M+HOBTSO3HB/5oVvbZlRnpqf9Y5d25E4aoE3jtjx/Ude2U9yuFay1tfL1q60tm+ZInuAIHrkJpbYuisRtM4nbiIiIqUrcBgAAgPgQt3UbHbfLliO3BMPNr9l0L37fbbfj1YFU4raEsHK0Lbtv3z51reb1a9eqYl1aM4qD64rec6g9hqROjI+7Bw8erDoO9dy3d687muDKWHF2ZsYfW5FW5DYJ1iaxWjQJ1jJbOuravGsSrOPE7bJpjuTxR/D097sjw8Pqx6NI3DaTuI2IiJiqxG0AAACID3Fbt1lxu6xE7rnZWX9e75NnT9wrH7rrdr06+E7cfvTokfp5YWYRt7XAFyVulw3OKK70/r17rmPb6mNJ6vjYmHtg//6q41HP/d7nSAjUthlVidw3rl+vOaYlqknjdliANgnWco5GXZt3TYK1nJ9R14pyTORzKp/3LEfymEjcNpO4jYiImKrEbQAAAIgPcVu32XG7Uomha6ur7uPNDffa99xzD3zomHvt2jV1bZhJ4/bNGze2xDoxadyuNfKh0nt377pLi4vqY0rq6OiofwyCx6WeBw8c8AO5ts2oypsXckzjRm6TYG0at02CdTvFbZNgbRq3y+vljYPgmxByvLIayRNF4raZxG1ERMRUJW4DAABAfIjbunmK22Ulcsu83gsXL7iLCwvqmjCTxu1bN29uCXKiSbA2uSpW8+6dO7H2O4rHvB+s9+7dW3V8wpT53YcOHfJHnWjbjKqModGObT1NgrXp6JCkcbvWyJm824i4XVaek+Axla+RrEbyhEncNpO4jYiImKrEbQAAAIgPcVs3j3E7qY2K27UCX9K4Xfb2rVvuwvy8+hiTalmW29PTU3WcwpTI3dfb69+0UttmVGWf7ty+re6zZpajQ5LGbZkpra3Nu0njtnbT1bLyGwhR18u27aUl9TzJQuK2mcRtRETEVCVuAwAAQHyI27rE7WrlyulghDMJ1qZXukpMlc+pNbZDYrtc9aw91qQWRkbc7u7uquMV5s6dO93Dhw/7N/jTthlVuTpdO9ZBkwZo07hdK1i3e9wOC9BR14rynJqsF7McyVMpcdtM4jYiImKqErcBAAAgPsRtXeJ2tVpwNQnWpnG7vF6bUVxWwrfcnFHmV2uPOanDw8Pu7q6uquMWZkdHh3ukv989PjWlbjOqcuWuxE1tv8WkcTssQJusXz13LvLavGsSrE1jdZy4XVau6M9qJI9I3DaTuI2IiJiqxG0AAACID3Fbtx3jtlxVHAyxBw4cUNdqaqG1EXG7rDajuKxE7uvXrvlzybXHntShwUF3165dVccvTIncR48edU9456K2zag6tq3GfYmlwbBca9a1adyWG5hGXd9OcdtkdEiWcVvWyps2Tzc3t/z3rEbyyM1RtWgdVeI2IiIiJpC4DQAAAPEhbusSt6vVAmvSuB0WA01CY9nnz565165edWemp9V9SKJEajk3Ojs7q45jmLL+pYGBxJFbbjT48MGDqv2V4FkOzLWismncNgnW7RS3TQN01LWitl7O1bC1cgPZmzduuM+ePt3y8bRH8sgoHS1aR5W4jYiIiAkkbgMAAEB8iNu6xO1qo8btWoHPNG6bxsNKJfrK2qwi98DRo/6V2cHjGaZc+S1XgCeN3CvLy1VXsMv+SvB8vLGx5b+XNQ3QSeN2rceRd5PG7VqxWtTWy28baGvlDYvKdRK55eunck2aI3mI22YStxEREVOVuA0AAADxIW7rErer1UaCmARr01idJG6XlSte5Ury6dOn1X1KoszUPnLkiHHk7urq8md5a9s08czKSs0xJEHTiNsm4fzJ48fq2rxrEqxNYrUYDNZh603WpjGSh7htJnEbERExVYnbAAAAEB/iti5xu1otpOZ9RnFZidyXLl50T586pe5bEsthcOfOnVXHN8zu3bvdwsiIuk0T5bjUGwNienW1SbCWq4qjrs27JsFabvIYda2YVdwuK1fvyxs52jlST+K2mcRtRETEVCVuAwAAQHyI27rE7Wq1uG0aoKOuFbX1cWcUl5X4ffHChcwid19fn7tjx46q4xxmT0+PayU8306dPOnve1pXV5usD64LW5t3TeK2aYBOGrflzRttbaXyNaqdH/UkbptJ3EZERExV4jYAAADEh7itS9yuVguWSeN2I2cUV7r55Il/k0WJwtq+JnFyYsLtPXTIOHLv2bPHPeb9gK9tM6qyP2urq1XPlURPuXK98hiFBejKdfXWm6zNu0kDdJZxW9600dZWKjcc1c6LehK3zSRuIyIipipxGwAAAOJD3NZtx7jd19tbFVQPHTyortWMGrfzPqO4UtknicFZRO6J8XH3oHd8g8e8nvv27XNHjx1TtxlV2R+J9xLxK/dX5qbLletyfIjb1WZ5zpkEa7k5aNS1lcpNX7XzoZ7EbTOJ24iIiKlK3AYAAID4ELd12zFuy9XEwZAq/01bqxkMpaJJsM7bjOJKZZyHjOLIInKPjY25B/bvrzr29ZTPkc/VthlVGb9y4fz5qlnkcoVvrfnkYvBYiiZxO2zbeTbpORcWoE2Ctfz3qGsrJW43RuI2IiJiqhK3AQAAID7EbV3idrXaHOsko0PC1opJQ2OUGcVB5caM8rna/idVrsaWq7KDz0E95epvuQpc22ZUJXLLWJKo0Tl4LMVan2uyNu+anEemcdskWMeN23KDV+35rydx20ziNiIiYqoStwEAACA+xG1d4na1WtxOGqCzjNtRYmAtZUb1mZUV9TgkVeZq792zp+q5CFPmd8tzNTExoW4zqtOnT7uXL12qecPNssFjKWrB+vmzZ5HXtoIm55Hp6BCTYG2ytlJ5s0l73utJ3DaTuI2IiJiqxG0AAACID3Fbl7hd7SvPn1fFtEbH7VqBL+6M4nrKjOqV5WX1eCTV8s6xnp6equckTIncfX197uTkpLrNqM5MT7tXLl/243Rwn+V5Dh5LcTvE7SxHh5is19bK14O2tlLidmMkbiMiIqYqcRsAAADiQ9zWJW5Xq8W0pHE7LAY2YkZxVGVGddE7r7TjktTCyIjbvXt31XMT5s6dO/2oKFFS22ZUJXJfvXJlS+SWuC3/LXg8t0PcNjmPTM85bb2c41HXRonbsj3tea4ncdtM4jYiImKqErcBAAAgPsRtXeJ2tVpM04J1K80oNlVu2OfYtnp8kjo8POx2dXVVPUdhdnR0uEeOHHGPT02p24zq7MyM/6ZE5dX5cpNNubq7fDxN4na9sSd5Nek5VytWi9r6WsFanouoayslbjdG4jYiImKqErcBAAAgPsRt3XaM24e0uN3bq64NKrOatZhmEqxNrsQWtRhYa73J2jSUG/fZS0vqsUrq0OCgu2vXrqrnKkyJ3ANHj7onvPNe22ZU52Zn/TcnKiO33GSz1pzuWnG78krwVjLpORcWoOW4Rl0fN27LY9Ke13oSt80kbiMiIqYqcRsAAADiQ9zWbce4feDAgaooevjwYXVt0Fpx2yRYm4RD0WS9tjZKDEyqzDheWlxUj1kSJVLLedjZ2Vn1nIUp6+Xzkkbu+bk5/7nV5qxXuh3idq3zyPScMwnWceO2fJ72fNaTuG0mcRsRETFVidsAAAAQH+K2LnF7qzKbWYtpSQN0rbWitr7W2AdtbSPidtk7t2+7iwsL6rFLokRquSJbrswOPndhypXfcgW4tk0TF+bnQ4+jjCoJHndxO8Rt0wBN3G4fiduIiIipStwGAACA+BC3dYnbW5VxFVpMMwnWJrFazDI0ZqX8nRKEtWOYRJmpfaS/3zhy7+7q8md5a9s0UcK9BPzg/rZb3M4yQCfdtvyWgLa20mtXr6rPXz2J22YStxEREVOVuA0AAADxIW7rEre3mlXcDouBjZhRnIUyykP2VY6ZdiyTKBFSnrOdO3dWPZdhdnd3u4WREXWbJsoIlsrIKvsq0Xv13Lktx564HW19rWAtkTrq2krlBqDa81ZP4raZxG1ERMRUJW4DAABAfIjbusTtrcrVyFpMMwnWpnE7y9DYCCX8SqDPInJPTk66fb297o4dO6qe0zB7enpcy7LUbZooN9O8f+/eO/sqMVuOdzlyVx6HVjLpOadd3V7WJG5fvXIl8tpKiduNkbiNiIiYqsRtAAAAiA9xW5e4vVUZS6HFNJNgbRqgk4bGsG03UoncciXu7MyMemyTODEx4R46dMg4cu/du9c95r2Y0LZpomPb7oP799/ZV4ncYaNm8q5JsDaJ1aJJsI4bty9dvKg+T/UkbptJ3EZERExV4jYAAADEh7itS9zeaq24nWWATrrtKDGwkUr4lWgpN+fUjnESx8fH3YMHD1Y9v/Xct2+fOzo6qm7TxOVi0X344IG6362kyXlkOjqEuN0+ErcRERFTlbgNAAAA8SFu66YxnzhvSsgMxk25SaG2NqhcoavFtEbH7bRCYzOVyC3jI6ZPn1aPdRLHRkfdA/v3Vz3P9ZTPGR8bU7dp4srysvvo4UN1v1tBk/PINEAnjdv37t5V11Z68cIF9XmpJ3HbTOI2IiJiqhK3AQAAID7Ebd2BgQF3cHDQnZyYUGNQK6rF7aNHjqhrg2YVt5s9o7iZPnv61L186ZKbReQePXZMfb7rKVd/T4yPq9s08czKirv+6JG633k2aYA2jdu1grW2tnLGeS3Pr62pz0c9idtmErcRERFTlbgNAAAA8SFu13docNCPP1oUaiWTxO2id0y1mGYSrE1itZhlaMyTTzc3/StuT586pR77JMpc7T179lQ972HK/O7eQ4dSeWNHnoeN9XV1v/NoluecSbCWK/ujrq2UuN0YiduIiIipStwGAACA+BC3ozs0NNTSkTtJ3JZxE1pMMwnWeZxRnCclcl84fz6TyG0VCm5Pd3fV8x+mRO6+vr7E5/ypkyfd1XPn3McbG+p+58mk51xYgDYJ1nJFf9S1lcpx1p6DehK3zSRuIyIipipxGwAAAOJD3DZ3eHjYPT41pUaiPJtF3G71GcV5dPPJE/8KXInC2nORRJklv3v37qrzIMydO3e6/f39qUTutdVV98njx+p+50GTYG0at02Cddy4fe7sWfXY15O4bSZxGxERMVWJ2wAAABAf4nZ8Wy1yJ4nbMkNZi2lJA7Rp3E57RnGelQgsV+JmEbmHh4bcrq6uqvMhzI6ODv98SXrOy/5IvJeIr+13MzU5j0wDNHG7fSRuIyIipipxGwAAAOJD3E7uyMiIe8L7+7RolCeTxG2JZlpMa3TcrhX44s4obgVlnEfcaBmmnLMyT37Xrl1V50WYnR0d/g1Xk57zMn5FZo3LOBZtv5thlqNDksbtB/fvq2srlTehtGNdT+K2mcRtRETEVCVuAwAAQHyI2+kpIx/yHLn37t1bFSqPHj2qrg2aVdwOi4GNmFHcSsqNGWW/tOcniXLOvjQw4HZ2dladH2Hu8tYPeud9GpH70sWL7rOnT9X9bqRJA3TYOWcSrOPGbRkfpB3jehK3zSRuIyIipipxGwAAAOJD3E7fQqGQy8i9p6enKlDK49XWBpVZyVpMMwnWpnE7y9DYyq4/ehQ7YoYp56y82SHjR4LnSZhdu3b5V4Br2zRx+vRp/3lsZuROes6FBWiT9XJFe9S1lRK3GyNxGxERMVWJ2wAAABAf4nZ2WpalhqRmmSRuy4xkLaaZBGvTAJ00NLZr3C776OFDd7lYVJ+vJMpM7SP9/f6NJIPnS5hyo0qZQ69t08SZ6Wn/vHr+7Jm631lqEqBN1oomwTpu3HZsWz2m9SRum0ncRkRETFXiNgAAAMSHuJ2tMrZBfmjTglKjzSJut/qM4nZQ9rPonfPa85ZECZ6HDx82jtzd3d3+iB5tmyZK5L529WpDI7fJeSSjVKKuFYnb7SNxGxERMVWJ2wAAABAf4nZjHBwcdI95P7xpYalRJonbEvK0mJY0QJvG7VqBbzvH7bJyLOPGzTAnJybcvt5ed8eOHVXnT5g93vn2cgq/vTA7M+Nev3bNfeX5c3W/09TkPDIN0Enjtlypr62t1F5aUo9hPYnbZhK3ERERU5W4DQAAAPEhbjdWidyjx46pgSlr8xi3w2JglqGxHXy8seHeuH7dfbq5ueW/37t7111aXFSfxyROjI+7hw4dMo7cciNTiYHaNk2cm5319zfLyJ00QIedc9r6hw8eRF4bJW4vLiyox66exG0ziduIiIipStwGAACA+BC3m6PcgG9sdFQNTVmZJG5LaNZimkmANo3bWYbGdnBjfd3fz3Nnz7o3b9youhHj3Tt3YsfOMMfHxtyDBw5UnUv13L9vXyrn/PzcnHvr5s1MInfSc65WrBZNgvWF8+cjr62UuN0YiduIiIipStwGAACA+BC3m6sfucfG1OCUtjImIhgc5TFoa4PKbG0tppkE6zzOKG5lJXZW7q9E7tu3blWtk/+2MD+vPq9JlFC9f//+qnOqngcOHPADubZNE2WftP1NYtJzLixAmwRrmXEfdW2lEv61Y1VP4raZxG1ERMRUJW4DAABAfIjb+XBoaCiV4Bfm7t27q0Kj/L3a2qBpxG3TAJ1laGwHg3FbrHXjT1Gudo4bP8OUMTv79u6tOrfClNEmhw4e9EedaNs0Ua5WvnP7trrPppqcR6bnnEmwjhu3ZXSLdozqSdw2k7iNiIiYqsRtAAAAiA9xO19KbE4j+GlqcXs4YtyWG/ppMS1pgDaN22nPKG5lZf+C+xwWt0UZ5SEjTOJG0DDlxcmePXuqzrEwJXL39vb6N63UtmmizBmXUSzafkfV5DwyHR2SNG6vP3qkrq2UuN0YiduIiIipStwGAACA+BC38+nw8HAqwa/SPMbtZs8obmVl/4L7LMdMWxucTy3/X57T2ZkZ9flOolUouD3d3VXnWpgSuSWQSmTVtmmivbRU86am9cxydEjSuC0z1rW1lc5MT6vHpJ7EbTOJ24iIiKlK3AYAAID4ELfzbZqRO0ncvnH9uhrTksbtsBjYiBnFrazsX3Cfa8VteRNBPhY8Js+fPXOvXb2aSeQeGRlRz7kwd+7c6fb397vHp6bUbZpY9L4PhP1mgGbSAB12zpkE67hxe/r0afVY1JO4bSZxGxERMVWJ2wAAABAf4nb+HRwc9CN30qtak8RtmdesxTSTYG0at7MMje2gBOvgPteK2xJ5y2vkxp7BERcSua9euRL7yt8w5Rzr6uqqOvfC7OjocI8eOZJK5F4uFkN/Q6DSpOdcWIA2Wb967lzktZUStxsjcRsRETFVidsAAAAQH+J26yiRW66GjRv8mh238zijuJWtDNZlo8TtsnLFdnDds6dP/ZuExo2ktTzhfT3K+btr166qczDMzs5Od2BgwP98bbsmriwv1z0nZGZ3MCzX+hzTuL22uhp5fdy4re13FInbZhK3ERERU5W4DQAAAPEhbreecSN3krh95/ZtNaa1+oziVjZp3JYruLW1okRu+fjpU6fU8yGuEqklVku0Dp6LYUoUH/TO/TQi95mVldBzQ65iv33r1juBudZa03POJFgTt/MtcRsRETFVidsAAAAQH+J26yqRu1AoRA5+2lWzI8PD6tqgckWrFtOSBmjTuJ1WaGwHTYK1tlau0NbWVvp0c9MP5llEbhk7IuNHgudkmDLeZCjiGzL1PHf2rPt4Y0Pdb1Eit/zGQq01pgE6adwOe6yi3CRU288oErfNJG4jIiKmKnEbAAAA4kPcbn2jRm4tbhdGRtS1QbOK22Ex0GR93CtdW1mTYB03bpfdfPLEv0r/1MmT6vkRV/ntgyP9/f6NJIPnZpjyWwhR35gJU/ZHzp0njx+r+x1mGnHbJJzXe4xytb22j1EkbptJ3EZERExV4jYAAADEh7jdPkrktiyrZuROErclNEs8Cwa1Vp9R3MqaBOv79+5FXivKGxTyOXI1cOV/l8gtz0vakVvi6uHDh40jd3d3t2sVCuo2TZT9kf2S/avc3zBNYrVoEqzlqvKoa8sStxsncRsRETFVidsAAAAQH+J2+ymR+2XLqgpYSeK2ODM97V65fNkf11AZ1Vp5RnEraxKsTeN2eb1crS0RPfhxCa1yzNOO3JMTE25fb6+7Y8eOqnM1zD09Peo5b6qMX5F9jhK5TWK1aLI+uC5sbVkZIaPtUxSJ22YStxEREVOVuA0AAADxIW63rzKbWH5gLAespHG7rETua1evqpG7lWYUt7qNiNtlJfhq42bkGMtVxtp5ksSJ8XH30KFDxpF77969fnjUtmmiRG6ZNS7BOLjPZeU3FGTGeeVxCgvQlevqrTdZW1Y+ru1LFInbZhK3ERERU5W4DQAAAPEhbre/ErklxsgIh2AMjBO3y87OzLjXr12rGl1RyzTidpozilvdpHH76pUr6lrx3t27Rusl9J5ZWVHPkySOj425Bw4cqDpv67l//353bHRU3aaJErklYGsjecpK9JcQLseIuL09JG4jIiKmKnEbAAAA4kPc3j7KuBKJUJ2dne9EwCRxu+zc7Kx74/r1upHb9Opqk2AdZ0Zxq2sSrE3jtsxSN1lfVkLvyvKyep4kUUK1BOvKgB1FCeMSyLVtmjh9+rT/xkFY5H744EHold7B4ymaxO2wbYvyRpH22KNI3DaTuI2IiJiqxG0AAACID3F7+zkkkfvwYT9yF1K4GV/Z+bk5fyxJrchtenW1yfrgurC17aJJsDaN1XHjdlkJvcvFonqeJFGioowe0UJ2LWW0iYw4kVEn2jZNlJE8chyCI3miGDyeYq1gbbK2rFw9rz3mKBK3zSRuIyIipipxGwAAAOLTrnF7fn7eDxBa3MW3lXElo94x0mJXEhe8Yy83mNTiW55mFLe6JqNDsozbslau3Nfiq9yM0rFt9TxJotw8cs+ePWrMrqVEbrlZpdy0UtumiTKSR5s7H2bweIraMZNtRl1bKXG7cRK3ERERU5W4DQAAAPFp17hddm5ujshdx+HhYXc8hatagy4uLLh3bt+uinB5mVHc6poG6KhrRW29xNywtTIa5uaNG+roDrnK3F5aUs+TJFqFgtujzJIPc+fOnf5vLkjQ1bZpYtS58/Lx4PEU04zb8kaC9hijSNw2k7iNiIiYqsRtAAAAiE+7x+2yRO76jgwPpzK6IejS4qIfQIMxrtkzilvdpHG7VqwWtfUScbW1cpV+5TqJ3BKztbWyXTkftPMkiXLu7t69W43ZtZTIfaS/3z0+NaVu00SZOy9hv1bklv8uz03lcRKJ260pcRsRETFVidsAAAAQn+0St8sSuesroTCN0Q1B5crdWtFT0yTwmaxtF02CtUmsFoPBOmy9ydqyckW/XNmvnSdJHB4acru6utSYXcuOjg736JEj7onjx9VtmlieO6/tsyg3UL1y+fI7x8kkbofdzFKUry3tMUWRuG0mcRsRETFVidsAAAAQn+0Wt8tK5B4dHVXjLr7tyMhIJpFbZjDLVaZaoKtUC3xpXuna6poEa4nJUdeKWcftsvK5MqNdO0/iKpF60Dt/d+3apcbsWsoNVgcGBlKJ3LXmzpfdWF93L1+6pAbrWuez/Pfg2krlfNAeSxSJ22YStxEREVOVuA0AAADx2a5xuyyRu76FQiGV+cRBl4tFfzSJFuoaMaO41TWJ26YBOmnclhtMams15bmWq53lqmftPImrRGqJ1RKttZhdS4nig4ODqURuuTpdnidtv2tJ3M6/xG1ERMRUJW4DAABAfLZ73C5L5A5XYl9WkXtledm/yWRlqGvEjOJWN2mAzjJuy/xpbW2Y8pxLFJf51dp5EleZqS1jR2T8iBazaynjTWTMibZNU2XO+L27d9X9DirnbfB4ivXitlydr/3dUSRum0ncRkRETFXiNgAAAMSHuL1VIne4ErmtQiGVm/AFPbOy4o9rqAx2Wc4obnUbHbdrBWu56jrq2ihK5JbHNjszo54ncZVztr+/37+RpBazayk3qpQRPdo2TZWRPPXmzseN2/I8aH9nFInbZhK3ERERU5W4DQAAAPEhbusSucPNMnKfO3vWj9qV4S6LGcWtbpZXV5sEa/nvUdeaKM+f3CBzZnpaPU/iKiH38OHD7o4dO9SYXcue7m7/nNe2aWrR+x5Ta+68xH25Cnv13Lktx5S4nR+J24iIiKlK3AYAAID4ELfDnZ+fJ3KHKJH7ZctKZT5xpadOnvTj3pPHj9WQVylx+11rzbo2jdsmwTqruF1Wnke5ej/tyC03S+3r7TWO3Hv27PFfiGnbNFXmzgdH8lTutzxv5citralUnnvt74gicdtM4jYiImKqErcBAAAgPsTtaBK5wx0aGvJ/OM0icq+trrqbT56oQU+MO8ah1TUJ1qajQ0yCtcnaJMpV+3L1/vTp0+q5EteJ8XH30MGDxpF739697uixY+o2TZW58+uPHqn7LeexPH/axyqVq/a1bUeRuG0mcRsRETFVidsAAAAQH+K2mUTucLOM3BfOn1cj93aN21mODjFZr62V8K6tTUN5vi9dvOiePnVKPVfiOj425h44cEAN2WHu37/fHfO+J2jbNFWOXXDufFSJ242TuI2IiJiqxG0AAACID3E7nhK5x8bG1MCLL7nDQ0N+ANJCWhIlaF68cGHLjSXjzihudZMG6FprRW19rauHtbVZxu2ycg7IGx5pR24J1fv37VNDdpgHDxxwx8fH1W2aqs2dr6eMbtG2FUXitpnEbURExFQlbgMAAEB8iNvJJHKHOzw8nNrohkolaMrVu5U3mDSdUdzqmgRrk1gtmgRruWI46toslKv5z6+t+Vf3a+dKXCVg7t27Vw3ZtZTRJocOHfJHnWjbNNFk7rxI3G6cxG1ERMRUJW4DAABAfIjb6UjkDteP3CmNbqhU5i/LHOZg5I4yo7jVTRq3wwK03Jww6vpmx+2yEoFlPnvakVtumLqnp0eN2bWUyC03q5SbVmrbNFH2R+J92Nx5kbjdOInbiIiIqUrcBgAAgPgQt9OVyB2uRO605hNXOjM97V69cqXtR5FUahKsTeO2SbDOS9wuK+M8ZKxH2pG7UCi43d3dasyu5c6dO93Dhw/78Vjbpony2wq15s6L8psM2udFkbhtJnEbERExVYnbAAAAEB/idjYSucMdGR72b+CnhbYkzs7MuNeuXt0WkdskWJsG6FaO22XlxozyWLTzJIly7u7evVuN2bXs6Ohwj/T3u8enptRtmqjNnReJ242TuI2IiJiqxG0AAACID3E7W4nc4Y6MjGQWuSW6ys0mKwNgO5llgE667bt37qhrm+H6o0fumZUV9TxJ4tDQkNvV1aXG7FpK5D569Kh74vhxdZsmBkfyyFXd2rooErfNJG4jIiKmKnEbAAAA4kPcbowLCwtE7hALIyOp3IQv6NzsrH+FcztG7kbH7VrBWq6Uj7q2mT56+NBdWV5Wz5O4SqQe9M7fXbt2qTG7lp2dne5LAwOpRW6Zty2jWLSPRzFp3Jb54tr3vXaVuI2IiJiqxG0AAACID3G7sUrkHh8fVwMvvuTPNU7jJnxB5+fm2u4mk0nj9p3bt9W1okncllnnUdfmwYcPHrhF72tRO0/iKpF6YGDAj9ZazK6lRPGhwcFUIncSk8btQwcPqt/v2lXiNiIiYqoStwEAACA+xO3mSOQON6vIvTA/H3rFcitpEqxNYrVoEqxbLW6XfXD/vuvYtnqexFVmah89csQfP6LF7FrKeBO52aq2zUZI3DaTuI2IiJiqxG0AAACID3G7uRK5w7UKBT+8aUEuiYvecW+FABumSbA2HR2yHeJ22Xt377r20pJ6nsTVj8X9/e7OnTvVmF3L7t27/RE92jazlLhtJnEbERExVYnbAAAAEB/idj4kctd2cHAws8i9tLjox00teuZdk2BtGqCTxu1WPKayf/Kmh3aexFXOWbnZ4o4dO9SYXcuenh7/nNe2mYXEbTOJ24iIiKlK3AYAAID4ELfzJZG7tn7ktix/9IMW6JIo4ynu37unRs+8muXV1SbBWlvbaseyUhntIuNrtPMkrjJip7e31zhy79mzxz3mvejTtpmmxG0ziduIiIipStwGAACA+BC38ymRu7YSueUH4Swit9xoUGYxa9EzbzY6btcK1lcuX468Nu8+3thwb1y/7j7d3PRvQCo3ItXOk7hOeF/TBw8eNI7c+/btc0ePHVO3mYbEbTOJ24iIiKlK3AYAAID4ELfzbTlyS9DVQu92thy5Txw/rga7JC4Xi+6jhw/VAJoXk8btsABtEqwvX7oUeW3e3Vhf9x//ubNn3Zs3bviRW/6cm51Vz5O4jo+NuQcOHFBDdpgH9u93x7zP1baZROK2mcRtRETEVCVuAwAAQHyI260hkbu2Q94xkdENWUTuleVld/3RIzWENluTYG0at02CdTvFbXlDo3I/JHLfvnXLfeX5c/+K7tmZGfU8ievY6Kh/VbYWssOUq7/lKnBtm3EkbptJ3EZERExV4jYAAADEh7jdWhK5azs0NORHpywit4ROuapXC6LN0iRYmwZo4va7nl9be+fjz58982/kmXbklvN27969asiupYw26T10yJ2YmFC3aSJx20ziNiIiYqoStwEAACA+xO3WVCK3RC0id7USuWU+cRaRW67klbnMlUG0WWY5OiRp3G6VueVB68XtshK55c2Fmelp9TyJ68uW5fb09Kgxu5YSufv7+9XtRZW4bSZxGxERMVWJ2wAAABAf4nZru7i4SOSu4XApcmsxL4mnTp50V8+dc588flwVPRtplldXmwTrdo/bFy9cUNfKqBKJ3PImw/Tp0+q5EtfCyIjb3d2txmzNzs5OdTtRJW6bSdxGRERMVeI2AAAAxIe43R4SuWs7PDzszzbWol4SJXLLVb2bT56o8TNrk8btsABtsl7ib9S1edckbj988MD/mHzOs6dP/WOWduSWc3f37t1q0K5Urt7WPj+qk973Di1aR5W4jYiIiAkkbgMAAEB8iNvtJZG7tiMSucfG1LiXxNOnTrkXzp9veOQ2CdCmcdskWLdT3JZgHdyXWnFb9rG85tLFi/6NR59ubvrr5ZzQzpW4yk1Tu3btUsN22eNTU+rnRlHe/NGidVSJ24iIiJhA4jYAAADEh7jdnhK5azsyMuKOZxS5JWxK4NRiaNqaBGuJr1HXits1blcG67JR4nZZudmkfEze6JA3PNKM3DJDftA7f3d1dqpxW240q31eFInbZhK3ERERU5W4DQAAAPEhbre3RO7aylzjiQRBsJYymkLCs4yqCAbRNDWJ26YBOmncllEd2tq8mzRuy5sIlWskcsvoGhlho50rcZTIPTAw4HZ2dGyJ2xJctfVRJG6bSdxGRERMVeI2AAAAxIe4vT2UyD05OUnkViwUCplFbrnZoNx0sDJ4pmXSAG0at2VkR9S17RS3g8E6bK284aCtlZuPyk1I04zcMobk6JEjbkcpcsubNdq6KBK3zSRuIyIipipxGwAAAOJD3N5eErlraxUK/o31tPiXxJnpaffqlSupR+6kcbtWrBZNgrWM34i6Nu+aBGuTtWUfb2y4586eVc+TuE55X8/9/f3+THnt41EkbptJ3EZERExV4jYAAADEh7i9PSVy19ayrEwi9+zMjD+TOa3InTRuhwVok2AtYzeirs27JsH6/r17kdeKckzkc155/tzdWF/312vnSTMkbptJ3EZERExV4jYAAADEh7i9vSVy11Yit1wVq8XAJErkvnH9uh85tQgaVZNgbRq3TYJ1O8Vtk2BtGrfL6+WNg/KbEOuPHrkry8vqedJIidtmErcRERFTlbgNAAAA8SFuo0jkru3LGUXuudlZ9+aNG7Ejd5ajQ5LGbYm22tq824i4XVaek/IxlT+Xi0X1PGmExG0ziduIiIipStwGAACA+BC3sVIit64cD/nhW27ip8XBJM7Pzbm3bt6siqH1zHJ0SNK4LWM3tLV5N2ncltnq2lrx3t27ddfLFd1F7+tQO0+yNGnc7uvtVb+ftKvEbURExFQlbgMAAEB8iNuoSeTWleNxzPshPIvIvTA/7965fXtL7AwzaYA2jdu1gnW7x+1awdo0bt+9cyfyetm2vbSknidZmDRuH+7rU7+PtKvEbURExFQlbgMAAEB8iNsY5tLSEpFb0Y/cx465J44fV2NhEhcXFvwQqkXPSpPG7bAAbbJ+9dy5yGvzrkmwNonVoul6Ua72XlpcVM+TNCVum0ncRkRETFXiNgAAAMSHuI1RlMg9NTVF5A6YZeSWK3clbmrRU5RYGgzLtWZdm8bttdXVyOvbKW5HGR1SNsu4LWvlpqNPNzf9/y9X9MubHtp5kobEbTOJ24iIiKlK3AYAAID4ELfRRCK37tDQkDuaUeR2bNufxRwMoOLzZ8/c27duvROYa0Vl07htEqzbKW6bBuioa0Vt/bWrV0PXnjt71r/p6LOnT/3/Ls+1jK/RzpMkErfNJG4jIiKmKnEbAAAA4kPcxjgSuXXLkVsLiEmVGw0+fPCgKoSKErnlppSPNzbUj5sG6KRxu9bjyLtJ43atWC1q669fu6aulYhduU4it4xMKX9cnmu5Eal2nsSRuG0mcRsRETFVidsAAAAQH+I2JpHIrSuRW4KhFhKTurK8HHozSM004rZJOH/y+LG6Nu/Gubq60lqxWgwG67D1Uda+8vy5P7pkbnZWPU9MJG6bSdxGRERMVeI2AAAAxIe4jWlYjtwSdbXYu10dHh52x8bG1KCY1DMrKzVnbAc1vbraJFjLVcVR1+Zdk2Atc7CjrhXTjttlJXLLx2ZnZtTzJIrEbTOJ24iIiKlK3AYAAID4ELcxTYncuhK5xzOK3BI+6824Nr262mR9cF3Y2rybZHRI2FoxadyWq7S1tWVlNM3lS5fUc6SexG0ziduIiIipStwGAACA+BC3MQuJ3LojErnHx9XAmMRTJ0/6V1DXuhpbrvC+dPHillgaFqAr19Vbb7I272Z1dbWYdNtyY0ltbaXyPGvnRz2J22YStxEREVOVuA0AAADxIW5jlhK5dUdGRtyJjCL32upqzbgss7ovXrjgx1LidrWNjtu1grXcMDLq2krlhqPaeVFP4raZxG1ERMRUJW4DAABAfIjb2Aglch8/fpzIHbAgkXtiQg2OSZTIfX5tzd188qRmBH26ual+TAyGVdEkbodtO89meXW1SbCW/x51baUP7t9Xz4d6ErfNJG4jIiKmKnEbAAAA4kPcxkZK5NYtFAruZAaR+/SpU+6F8+eNY3MwrIq1tmGyNu9qwbrWrGvTuG0SrBsdt+W3CLRoHVXiNiIiIsbVsqzvL700BQAAADCHuI3NkMita0nknpxUA2QSJXLLzO2o0TkYVkXtc+UmhlHXtoJZjg4xCdYmayu9d/eu+vzXc8o757RoHVXiNiIiIppqWdaPev+mHii9LAUAAACIB3EbmymRW9f7Yd8PjlqITOL06dPu5UuX3GdPn6pxVHzl+fOqsCpuh7id5egQk/XaWgnv2tpK7965oz7v9SRum0ncRkREjK/3c+5PFAqF/tLLUQAAAIBkeC/Uvz/4wh2x0dq2TeRWfDmjyD0zPe1euXzZj9PBQCpx++qVK1VxdTvE7aQButZaUVsvMT3qWuJ2fiRuIyIixvKnPQdLL0MBAAAA0qNYLB7wXrD/aPAFPGKjJXLryguC41NTaphMokRuCdla5H68seEH8HJcNYnbYVeG51mTYG0Sq0WTYC03sYy6tlL5+7XnuZ7EbTOJ24iIiNG1LOvfe/92vlx66QkAAACQHcVi8bD3wv0ngi/kERstkbvawcFB95j3AiGLyD07M+MHVblqOxhMN9bXa44yqRW3tVjeCiaN22EBWm5MGXU9cTvfErcREREj+eFCoTDpvcx84e1XmwAAAAANwnvxPmjb9k8HX9AjNlqJ3CdOnCByV+hH7mPHMoncc7OzfoTVIrfmdojbtaKyadw2CdZx47Y8Ju15rSdx20ziNiIiYm0ty/plz9Pr6+vvKb28BAAAAGgOtm2/7L2Q//ngC3vERkvkrrYcuU8cP64GyyTOz835VwHXi9wyqiQYYcXtELdNA3Qj4rZ8nvZ81pO4bSZxGxERUfXXPOe9n9k/ofRyEgAAACAXvFAsFie9F/QfDr7AR2y05cg9PDysBt/tqETu0Ywi98L8fGhUbbe4nWWATrptuVmktrZS4nZjJG4jIiJu8be8fxuLfX19L5ZePwIAAADkD/m1sqWlpVPeC/tfDr7QR2y0RO5q5ar20dHRTCL34sKCe+f27aqYKld2y39fPXduS4glbkdbXytYX7t6NfLaSuXztOevnsRtM4nbiIiIvh+xLGvV+5n8vaWXjAAAAAD5R37NzHtxP+/5a5Uv9hGbIZG7WoncY2NjasRM6tLiohpZJWZL2C1H7uDHW8WkcVt7A6CsSdy+euVK5LWVXrl8WX3e6kncNpO4jYiI29zfsSzrcl9f3yeVXiICAAAAtB7r6+sv2rZd9F7o/2bwhT9ioyVyVzs8NOSOZxS57aUl9/69e1VxVSK3zOoO/vdW0SRYm8Rq0SRYE7fzLXEbERG3o5ZlfdT786bnp5ReEgIAAAC0PvJraLZtr3p+RIsAiI2UyF2tHIvx8XE1aibV8Y73g/v31dDaipoEa9PRIY2I25cuXlSfp3oSt80kbiMi4jbzDy3Luuf9jP2+0ktAAAAAgPZjcXHxk7wX/Zc9f6cyAiA2QyJ3tVlG7uVi0X344IEaXFtJk2BtGqCTxu17d++qayslbjdG4jYiIm4T/9iyrI2BgYFPL73kAwAAAGh/zpw58ynei/8btm1/NBgEEBstkbvakZERdyKjyL2yvOw+evhQDa+tYJZXV5sEa22tNgYm6MULF9TnpZ7EbTOJ24iI2M5alvUx78/ng4ODn1l6iQcAAACw/VhbW3uf4zj3bNv+g2AYQGy0ErlPnjxJ5K7Qj9wTE2rsTOqZlRV3/dEjNcDm2UbH7VrBWmZnR11b6fm1NfX5qCdx20ziNiIitqOWZX3c+/PveD8v/5XSSzoAAAAAOHPmzKfbtr3h+cdaJEBspETuaguFgjuZUeSWKLuxvq6G2DyaNG6HBWiTYH350qXIayslbjdG4jYiIraZf25Z1jd4PxN+buklHAAAAAAEKRaLn2nb9nPPj2mxALGRErmr9SP35KQaP5N4yjvOq+fOuY83NtQgmydNgrVp3DYJ1nHjthxn7TmoJ3HbTOI2IiK2g5Zlve75rd7Pw19QeskGAAAAAPWwbfuveH6d4zgfDwYDxEZL5K7We5Hjx04tgiZRIvfa6qr75PFjNczmQZNgbRqgGxG3z509qx77ehK3zSRuIyJii/uG5z8YGxv7m6WXaAAAAABgyuLi4uc6jvMNtm3/eTAcIDbacuSWOdRa8N2OZhm5ZXzG5pMnaqBtplmODkkatx/cv6+urZS43RiJ24iI2Ip6P9u96fndnl9aekkGAAAAAElZXl7+Atu2v9VxnNeDAQGx0RK5q5UXQ8enptQomsTTp065Fy9ccJ9ubqqhthlmeXW1SbCOG7flRp7asa7n+NiYGq2jStxGRETMr6Wo/b3e//6K0kswAAAAAEibxcXFv2nb9j/wfEOLCYiNVCL3qVOniNwlBwcH/RdHWUXuSxcvus+ePlWDbSNNGrfDArTJeon+UddWurK8rB7jeo4Rt40kbiMiYov4lmVZ/7f38+wHSi+5AAAAACBrisXi37Jt+7s939SiAmIjJXJvVSK3hL0sIvf06dN+AG5m5DYJ0KZx2yRYE7fzLXEbERHzrmVZP+DZVXqJBQAAAACNZnFx8Sscx/leIjfmQSL3ViVyjx475p44flyNpUmcmZ72b+z4/NkzNeBmqUmwlqvNo64VGxG3HRmroxzTehK3zSRuIyJiXrUs64e9f6f2ll5SAQAAAECzWVpa+oDjOP/U863KuIDYLInc7+pH7tHRzCL3tatXGxq5sxwdkjRuP3r4UF1bKXG7MRK3ERExb1qW9a+9Pw+WXkIBAAAAQN5YXl7uchznB4KRAbFZErnfdWhw0B3LKHLPzsy4169dc195/lwNumma5dXV2vqHDx5EXhslbttLS+oxrCdx20ziNiIi5sh/63m09JIJAAAAAPLO8vLyXtu2f1gLDojNkMj9rkNDQ34ozSJyz83OujeuX880cieN27VitWgSrC+cPx95baWLCwvqsasncdtM4jYiIjZby7J+xvtzpPQSCQAAAABaDdu2DzqO86+D0QGxWRK531Ui9/jYmBpSkzo/N+feunkzk8idNG6HBWiTYH1+bS3y2kqJ242RuI2IiE30P1qWNeq9HHrh7VdFAAAAANDSOI5z1LbtnwzGB8RmSeR+1+EMI/fC/Lx7+9YtNfLG1SRYm8Ztk2AdN25L+NeOVT2J22YStxERsdFalvWfPE94L3+I2gAAAADtiG3bI47j/EwwQiA2y9OnTxO5Sw4PD7vj4+NqWE2qXK185/ZtNfaamuXokKRxe/3RI3VtpTK6RTtG9SRum0ncRkTEBvqrnjPr6+vvKb3sAQAAAIA25gXHcUY9/2NliEBsphK5C4WCGn23myPDw+5ERpF7aXHRvXvnjhp9o5rl6JCkcXtjfV1dWylxuzEStxERsQH+umVZi319fS+WXucAAAAAwDbiBdu2j3v+Jy1MIDZDIve7yhXtkxMTamhNqr205N6/d0+Nv/VMGqBN43atYB03bs9MT6vHpJ7EbTOJ24iImJWWZf1XzzNdXV1/qfS6BgAAAAC2K/Lre8Vicca27V/RAgViMyRyv2shw8hd9I51rZtB1jJp3A4L0CbrV8+di7y20mnv3NKORT2J22YStxERMW0ty/ptzwsnTpx4b+mlDAAAAADA26yvr79YLBYXHcf59WCkQGyWRO53leMwNTmphtekLheL7sMHD9QYHFTGmgTDcq1Z16Zxe211NfJ64na+JW4jImJaWpb1u55Xjh8//smlly4AAAAAADpnzpz5S7Ztn/H8r1qwQGyGRO53tTKM3CvLy5Fuyvj82TP39q1b7wTmWlHZNG6bBOu4cVvb7ygSt80kbiMiYlIty/p97+e/297PP59aeqkCAAAAABAN+XU/27bPe/62Fi4QmyGR+129F3yZRe4zKyuRQrFE7ls3b7qPNzbUj5sG6KRxu9bjqFTb3ygSt80kbiMiYly9n3H+yPPh6OjoXy69NAEAAAAAiIf8+p9t21ccx/ndYLxAbJbT09NE7pIvW5Z7fGpKDbJJPXf2bKRgXMs04rZJOH/y+LG6tuwrz5+r+xlF4raZxG1ERDTVsqw/8f584v2b+xmllyIAAAAAAOkwNzf3qY7j3LZt+6PBiIHYLInc7yovCrOI3KdOnvRDcr1wrGl6dbVJsJbwHnVt2WdPn6r7GEXitpnEbURENPBPPf/2+Pj4Z5VeegAAAAAAZIPjOH/Ztu2H3p9/VBkyEJspkfttBwcH3WPei8SsIrfc8HHzyRM1HGuaXl1tsj64LmxtWeJ24yRuIyJiPS3L+rj359+bmJj4nNJLDQAAAACAxrC4uPgZjuM8tm37T4JRA7FZErnf1o/cx465J44fV0NtEk+fOuVeOH8+UuSWm1NeungxcoCuXFdvvcnask83N9V9iiJx20ziNiIi1tKyrNe9P79pdHT0r5VeWgAAAAAANIf5+fnPsm37bzuO86fBuIHYLCVyey+c1PC7nZTIPZph5L544YIfjLWQXOmjhw/9tfUCdDBWh603WVtWPq7tSxSJ22YStxERUfEvPL/N82+UXkoAAAAAAOSDubm5z3Ec5+96frwycCA2UyL32/qRe3Q0s8gtV2fLyA8tKFf68MGD0BhuEqy1tfVCO3G7cRK3ERGxwjc8/6H3b8MXlV46AAAAAADkE8dx/ppt29/k/fl6ZehAbKZE7rcdGhpyxyRyK/E2qdOnT7uXL12KFLlraRKsTdaW3VhfVx97FInbZhK3ERHR+9nrTc9/PDIy8mWllwoAAAAAAK3BmTNn/objON9m2/ZfBKMHYrMkcr+tH7nHxtSIm9QZ7xhfvXLFff7smRqYw4warGXbUddWKjPAtcccReK2mcRtRMRt7VueH/L+Lfiq0ksDAAAAAIDWZHl5+Yts2/6Hnm9oAQSxGRK531Yi93hGkXt2Zsa9dvVq5Mj9yvPnkYM1cTv/ErcREbelErX/mfcz1s7SSwEAAAAAgPZgeXn5y2zb/r8839RCCGIznJmZIXJ7Dg8Pu+Pj42rUTapE7uvXrvnxWgvOZeXjcsV3lGAdN24/uH9ffYxRJG6bSdxGRNxeej9P/aD3Z3fpR38AAAAAgPZkeXn5q2zb/pDjOG8FYwhisyRyv61E7omMIvfc7Kx788aNupH78caGe+Xy5dBgXStu15v3TdxunMRtRMTtoffz048UCoX9pR/1AQAAAAC2B7Zt7/T8Zw6RG3MkkfttRyRyT0yokTep83Nz7q2bN9X4XKnc/LHWDSprxe16I1Du37unPqYoErfNJG4jIra9P+7ZV/rRHgAAAABge+I4zm7PH6yMIojNViK3vHDTwu92cmRkxJ3MKHIvzM+7t2/dUiN0PePG7bt37qiPJYrEbTOJ24iI7allWT/lfY9/qfSjPAAAAAAACEtLS/tt2/4RLZIgNksi99sWJHJPTqrRN6mLCwt+dNZidC1lVAlxO98StxER286f8763v1z60R0AAAAAADRs2+5zHOfHg6EEsZkSud+2UCi4UxlF7qXFRffe3btqlA4aN27fuX1b/bujSNw2k7iNiNg2fthz3Psx/YW3f1oHAAAAAIC6FIvFl2zb/iktmiA2SyL321oZRm7Htv3Z2FqcLis3pZRQvXrunFHcllnf2t8ZReK2mcRtRMTW1rKsX/a+l59cX19/T+nHcwAAAAAAMMVxHMu27Z8LhhPEZjo7O+u/8NPC73ZSbr55fGpKjcFJLXrH+cH9+2qkLisxW+Z2lyO3tqZS4nbjJG4jIras/8VznqgNAAAAAJAeLziOM+754cp4gthsidxv+3KGkXu5WHQfPXyoxuqyErklXGsfq/TG9evq3xFF4raZxG1ExNbSsqzf9HT6+vpeLP38DQAAAAAAaSJXkNi2fdLzP2sxBbFZErnfVo5BVpF7ZXnZXX/0SI3WUb1+7Zq67SgSt80kbiMitowf8Tx74sSJ95Z+5AYAAAAAgCyRyO04zrznf6mMKYjNViK3RD0t/G4XBwcH3WPei+UTx4+rkTipMn5kY31djdf1JG43TuI2ImLu/R3PS8PDw59Y+hEbAAAAAAAayfr6+ovO2/ympxpYEJshkbsUub1jkFXkPnf2rPt4Y0ON2LW8cvmyuq0oErfNJG4jIubW37Ms6/rx48c/ufQjNQAAAAAANBP5NcpisXjWtu2PaJEFsVkSud+O3KMZRe5TJ0/6N5N88vixGrODErcbJ3EbETF3/oFlWXe9n5vfV/oRGgAAAAAA8sTFixc/0bbtS57/rxZbEJslkbsUuUdHM4vc59fW3M0nT9SoXZa43TiJ24iIufGPPdcHBgY+vfQjMwAAAAAA5Bn5NUvbtq87jvN7weCC2Ezn5ua2feQeGhpyx0ZH1YCc1NOnTrkXzp+vGbkvXbyofl4Uk8btvt5e9ZxoV4nbiIjN1bKsj3l/PvP+fH/pR2QAAAAAAGgl1tbW3lcsFu/atv0HWnxBbJZE7rcj9/jYmBqSkyqR++KFC+7Tzc3cxO1DBw+q50K7StxGRGyOlmX9L8+v9f73Z5d+JAYAAAAAgFZmdnb20xzHWbdt+4+DAQaxmRK5X3KHM4zc06dPu5cvXXKfPX3qx225qltbF0XitpnEbUTEhvtnnh8sFAqfW/oRGAAAAAAA2onV1dX327b9zPNjWoxBbJZE7pfc4eFhd2J8XA3LSZXILfO2z509q348isRtM4nbiIiN0bKs170/v8X7d/QLSj/yAgAAAABAO3PmzJnPtm37az3/lxZlEJulRG656aIWf7eLWUbuJBK3zSRuIyJm7huWZX1HoVD4wtKPuAAAAAAAsJ1YXFz8XNu2P+g4zp8FwwxiMyVyv+SOjIy4kxMTamhuhsRtM4nbiIjZaFnW//b+/K7h4eEvKf1ICwAAAAAA25mFhYXPdxznWzxfr4wziM2WyJ2fyE3cNpO4jYiYrpZlven9+T2eX1H6ERYAAAAAAOBdHMf5Qs/vsG37jcpIg9hsidwvuYVCwZ2anFTDcyMkbptJ3EZETM23PF8bGRn5QOlHVgAAAAAAgNosLCx8ieM43+X5vytjDWKzJXI3L3ITt80kbiMiJteyrB/w/t3vLP2ICgAAAAAAEJ3FxcWvsG37ezzf1OINYrOcn5/f9pHbe8HvTk1NqSE6C4nbZhK3ERHj6/0b9//z7Cn9SAoAAAAAABAfx3G+2rbt17w/36qMN4jNlsj9duQ+3oDITdw2k7iNiBjLH/M8WPoRFAAAAAAAID0cx+n0/IHKgIOYB4ncL/lRIMvInSRuH+7rc48cOaI+d+0qcRsRMbqWZf2k933zSOlHTgAAAAAAgOwoFos9juP8y2DMQWy2Erklwmrxdzs4ODjoR4ITx4+rgTqJceN2X2+v29fX57/5oD1n7SpxGxGxvpZl/YznUOlHTAAAAAAAgMZh2/ZBzx/Twg5iMyVyD/pxNc3IPTY6qsbrMGUUiVyxLY+JuI2IiBX+B89jpR8pAQAAAAAAmsfS0tIR27Z/Ugs8iM2UyD3ojqYUuU3j9sEDB9yBgYF3HgtxGxERPX/Rc8r78fGFt3+KBAAAAAAAyAlLS0tDjuP8TDDyIDZbIvegH5eTRG6TuC1hO/gYiNuIiNtXy7J+xfu+OL2+vv6e0o+NAAAAAAAA+aRYLB6zbfvfa8EHsZlu98g9NDjoR+o4kTtK3Jb52ocOHVL/buI2IuK29Ncty1ro6+t7sfRjIgAAAAAAQEvwguM4U7Zt/2Iw+iA2220fuYeG/P3XInYt68VtidqHvT+1v08kbiMibit/y7KsFaI2AAAAAAC0NPLrp7ZtT3v+ihaAEJvpwsLCto/c4xEjd1jcljEk5RtH1pK4jYi4LfzvnmsnTpx4b+lHQQAAAAAAgNbHe5HzCbZtLziO8+vBCITYbCVyj4+Pq1F2OzgcIXLXitsH9u/fcuPIWhK3ERHbV8uy/ofn5ePHj39y6Uc/AAAAAACA9mN9ff1Fx3FWbNv+rWAMQmy22z5yDw+7E97+R4nbh/v63APKjSNrSdxGRGw/Lcv6qOct7/v8p5Z+1AMAAAAAAGh/5NdVHcdZ8/zvlUEIMQ8SuYfdiYmJmnG799AhX+1za0ncRkRsK//Q84H389z7Sj/aAQAAAAAAbD/k11cdx7ls2/b/CMYhxGa73SP3yMiIO1mK3DK2RMK2zNcOu3FkLYnbiIht4f+0LOvx2NjYZ5R+lAMAAAAAAIAzZ858im3btzw/qoUixGa63SN3YWTEj9P9/f3u0aNH1TX1JG4jIraulmV9zPMV79/Czyr96AYAAAAAAABB1tbW3uc4zgPbtv8wGIsQm205cg8ODqoBF2tL3EZEbD0ty/q459dPTEx8TulHNQAAAAAAAKjH4uLiZ9i2veE4zv8MRiPEZkvkNpe4jYjYUv655zcODQ19XulHMwAAAAAAADBlfn7+sxzHecW27Y8F4xFisyVyR5e4jYiYfy3Let3789vGxsb+eulHMQAAAAAAAEjK3Nzc59i2/fWO43w8GJEQm61E7omJCSJ3iMRtRMRc+4ZlWd/pfe/6otKPXgAAAAAAAJA2Kysrn2fb9jd6/rkWlBCbKZG7tsRtRMT8aVnWm96f/2hkZOTLSj9qAQAAAAAAQNYsLS39ddu2/77jOK8HoxJis11cXCRyByRuIyLmx1LU/lChUPjK0o9WAAAAAAAA0GiWl5e/yHGc77Rt+41gXEJstkTudyVuIyLmwrcsy/p+73vUjtKPUgAAAAAAANBslpeXv8xxnH9k2/abwciE2GyJ3MRtRMQc+C9GRkZ2l350AgAAAAAAgLxRLBa/0rbtDxG5MY9u58hN3EZEbJr/ynNf6UclAAAAAAAAyDvFYnGH4zjf7/lWZXBCzIPbMXITtxERG+6/KRQKvaUfjQAAAAAAAKDVcBxnt23b/yIYnhDzoETuycnJbRG5iduIiI3Rsqx/5zlQ+lEIAAAAAAAAWh3HcfZ5/qvK+ISYF7dD5CZuIyJm7s9allUo/egDAAAAAAAA7cbS0tIh27b/jRajEJttO0du4jYiYjZalvUL3vecMe/HnBfe/mkHAAAAAAAA2hrbtgc8/50WpRCbbTtGbuI2ImK6Wpb1S54n1tfX31P68QYAAAAAAAC2E0tLSwXbtn9Wi1OIzbadIjdxGxExNX+1UCjMEbUBAAAAAABAeGFpaWnMtu1f0CIVYrNth8hN3EZETKZlWb/h/Wn39fW9WPr5BQAAAAAAAOBt5AqoYrF4wnGcXwqGKsQ82MqRm7iNiBhPy7L+m+eZEydOvLf0IwsAAAAAAACAjkRu27bnPH9Vi1aIzXZpaanlIjdxGxHRTMuyfrtQKFwcHh7+xNKPKAAAAAAAAADRWF9ff9FxnCXbtn8jGK4Q86BE7qmpqZaI3MRtRMRoWpb1u96f144fP/7JpR9JAAAAAAAAAOIhvwZs2/YZx3H+WzBgIebBVojcxG1ExHAty/p978873s8d7yv9CAIAAAAAAACQDhcvXvxEx3Eu2rb928GQhZgH8xy5iduIiLqWZf2R9+ej4eHhTyv9yAEAAAAAAACQDfJrwo7jXPP83cqYhZgXy5F7aGhIDc3NkLiNiLhVy7I+5rnp+f7SjxgAAAAAAAAAjWFtbe19juPc9vz9yqiFmBfzFLmJ24iI7/innl/j+dmlHykAAAAAAAAAmsPs7Oyn2bb9yHGcPwoGLsQ8mIfITdxGxO2uZVkf9/78oPf94a+WfoQAAAAAAAAAyAerq6vvt2170/NPtNiF2GybGbmJ24i4XbUs63XPb/b8/NKPDAAAAAAAAAD55MyZM5/tOM7XeP5pZexCzIsSuY8fP97QyE3cRsRt6Bue314oFL6w9CMCAAAAAAAAQGtQLBb/qm3bH3Qc5+PB8IWYBxsZuYnbiLiNlKj9XZZlfXHpRwIAAAAAAACA1mRhYeHzHcf5Zs/XK+MXYl5sROQmbiNiu2tZ1pue/8T7fvflpR8BAAAAAAAAANoDx3G+0Lbtb/f8i2AIQ8yDWUZu4jYitrFveX6fZVlfXfonHwAAAAAAAKA9sW37ix3H+S7vzzeCQQwxD2YRuYnbiNiOWpb1zwuFQkfpn3gAAAAAAACA7YHjOF/u+U9s236zMooh5kXv3EwtchO3EbHN/CHP7tI/6QAAAAAAAADbE8dxvtrz+zzfKocxxDyZRuQmbiNiO2hZ1o96X98HSv+EAwAAAAAAAICwuLjYYdv2P9dCGWIeTBK5iduI2MpalvUThUKhv/RPNgAAAAAAAABoLC0tddu2/UNaMEPMgxK5T5w4YRS5iduI2KL+tOdg6Z9oAAAAAAAAAIhCsVg84DjOjwajGWJeLEfu4eFhNWhXStxGxFbSsqyf976OXy79kwwAAAAAAAAAcSgWi4cdx/mJYDxDzItRIjdxGxFbxA8XCoVJ75/fF97+VxgAAAAAAAAAEuM4zqBt2z8djGiIeTEschO3ETHPWpb1y56n19fX31P6ZxcAAAAAAAAA0sa27Zcdx/n5YExDzIta5CZuI2JO/TXPee971ieU/pkFAAAAAAAAgIx5oVgsTjqO8+FgVEPMi5WRm7iNiDnzt7yv02JfX9+LpX9XAQAAAAAAAKCRyK9PO45z2vOXK8MaYp6UyD07O6t+rF0lbiPm1o9YlrV64sSJ95b+KQUAAAAAAACAZiK/Tu04zrznr1UGNkRsjsRtxNz5O5ZlXe7r6/uk0j+dAAAAAAAAAJAn1tfXX7Rtu+g4zm8GYxsiNk7iNmI+tCzro96fNzw/pfRPJQAAAAAAAADkGfl1a9u2Vz0/ooU3RMxW4jZi0/1Dy7Luef8evq/0TyMAAAAAAAAAtBKLi4uf5DjOZc/fqQxviJitxG3EpvnHlmVtDAwMfHrpn0IAAAAAAAAAaGXOnDnzKY7j3LBt+6PBCIeI6UvcRmyslmV9zPvz+eDg4GeW/ukDAAAAAAAAgHZibW3tfY7j3LNt+w+DMQ4R05O4jdgYLcv6uPfn3xkeHv4rpX/qAAAAAAAAAKCdOXPmzKfbtr3h+cdamEPEZBK3ETP3zy3L+oZCofC5pX/aAAAAAAAAAGA7USwWP9O27eeeH9MCHSLGk7iNmI2WZb3u+a3Dw8NfUPqnDAAAAAAAAAC2M7Zt/xXPr3Mc5+PBSIeI5hK3EVP3Dc9/MDY29jdL/3QBAAAAAAAAALzL4uLi5zqO8w22bf95MNYhYnSJ24jpaFnWm57f7fmlpX+qAAAAAAAAAABqs7y8/AW2bX+r4zivB6MdItaXuI2YzFLU/l7vf39F6Z8mAAAAAAAAAIDoLC4u/k3btv+B5xtawENEXeI2Ymzf8vynIyMjHyj9UwQAAAAAAAAAEJ9isfi3bNv+bs83tZCHiFslbiOaa1nWD3h2lf7pAQAAAAAAAABIj8XFxa9wHOd7idyI4RK3EaNrWdYPe18ze0v/1AAAAAAAAAAAZMfS0tIHHMf5p55vVQY9RHxb4jZifS3L+tfenwdL/7QAAAAAAAAAADSO5eXlLsdxfiAY9hC3u8RtxFD/refR0j8lAAAAAAAAAADNY3l5ea9t2z+sRT7E7ShxG7Fay7J+xvtzpPRPBwAAAAAAAABAfrBt+6DjOP86GPoQt5vEbcQt/kfLska9fyZeePtfCwAAAAAAAACAnOI4zlHbtn8yGPwQt4vEbUT/Su3/5Hnc+2eBqA0AAAAAAAAArYVt2yOO4/xMMPwhtrvEbdzm/qrnzPr6+ntK/xwAAAAAAAAAALQkLziOM+r5HyvjH2I7S9zGbeqvW5a12NfX92Lp+z8AAAAAAAAAQFvwgm3bxz3/kxYDEdtJ4jZuJy3L+q+eZ7q6uv5S6fs9AAAAAAAAAED7Ib+mXiwWZ2zb/lUtCiK2g8Rt3A5alvXbnhdOnDjx3tK3eAAAAAAAAACA9md9ff3FYrG46DjOrwfDIGKrS9zGdtayrN/1vHL8+PFPLn1LBwAAAAAAAADYfpw5c+Yv2bZ9xvO/apEQsRUlbmM7alnWRwuFwu2XXnrpU0vfwgEAAAAAAAAAQH6t3bbt856/rcVCxFaSuI3tpGVZf+T5cHR09C+XvmUDAAAAAAAAAEAQ+TV327avOI7zu8FgiNgqErexHbQs60+8P5+MjY19RulbNAAAAAAAAAAA1GNubu5THce5bdv2R4PhEDHvErexxf1Tz789Pj7+WaVvyQAAAAAAAAAAYIrjOH/Ztu2H3p9/VBkPEfMscRtbUcuyPu75dycmJj6n9C0YAAAAAAAAAACSsri4+BmO4zyxbftPgiERMW8St7GVtCzrde/PbxodHf1rpW+5AAAAAAAAAACQNvPz859l2/bfdhznT4NBETEvErexRfwLz2/z/Bulb7EAAAAAAAAAAJA1c3Nzn+M4zt/1/HhlVETMg8RtzLlveP5D7zz9otK3VAAAAAAAAAAAaDSO4/w127a/yfvz9cq4iNhMiduYRy3LetPzH4+MjHxZ6VsoAAAAAAAAAAA0mzNnzvwNx3G+zbbtvwiGRsRGS9zGnPmW54e88/KrSt8yAQAAAAAAAAAgbywvL3+Rbdv/0PMNLToiNkLiNuZEidr/zLKsnaVvkQAAAAAAAAAAkHeWl5e/zLbtf+z5phYfEbOUuI3N1rKsHxwZGdld+pYIAAAAAAAAAACtxvLy8lfZtv0hx3HeCgZIxKwkbmOztCzrRwqFwv7St0AAAAAAAAAAAGh1bNve6fnPHCI3NkDiNjbBH/fsK33LAwAAAAAAAACAdsNxnN2eP1gZIhHTlriNjdKyrJ/yzreXSt/iAAAAAAAAAACg3VlaWtpv2/aPaGESManEbWyAP+edZy+XvqUBAAAAAAAAAMB2w7btPsdxfjwYJxGTSNzGDP2w57j37euFt7+LAQAAAAAAAADAtqZYLL5k2/ZPaaES0VTiNmbgf/bOq5Pr6+vvKX3bAgAAAAAAAAAAeBfbtl/2/DktWCJGlbiNKfpfPOeJ2gAAAAAAAAAAEIUXHMcZ9/xwZbBEjCpxG5NqWdZvejp9fX0vlr4vAQAAAAAAAAAAREOulLRt+6Tnf9YCJmItiduYwI94nj1x4sR7S9+KAAAAAAAAAAAA4iGR23Gcec//UhkwEWtJ3MYY/o7npeHh4U8sfesBAAAAAAAAAABIh/X19Redt/lNTzVqIorEbTTw9yzLun78+PFPLn2rAQAAAAAAAAAAyAYZF1AsFs/atv0RLWwiErcxgn9gWdZd7/vJ+0rfWgAAAAAAAAAAABrDxYsXP9G27Uue/68WOHH7StzGEP/Yc314ePjTSt9KAAAAAAAAAAAAmoOME7Bt+7rjOL8XjJy4PSVuY1DLsj7m/fnM+/P9pW8dAAAAAAAAAAAA+WBtbe19xWLxrm3bf6AFT9w+ErexrGVZ/8vza73//dmlbxUAAAAAAAAAAAD5ZHZ29tMcx1m3bfuPg9ETt4fEbfT8M88PFgqFzy19awAAAAAAAAAAAGgNVldX32/b9jPPj2kBFNtX4vb21bKs170/v8X78/NL3woAAAAAAAAAAABakzNnzny2bdtf6/m/tBCK7Sdxe1v6hmVZ31EoFL6w9KUPAAAAAAAAAADQHiwuLn6ubdsfdBznz4IxFNtL4vb20bKs/+39+V3Dw8NfUvpSBwAAAAAAAAAAaE8WFhY+33Gcb/F8vTKIYvtI3G5/Lct60/vzezy/ovSlDQAAAAAAAAAAsD1wHOcLPb/Dtu03KsMotr7E7bb2Lc/XRkZGPlD6UgYAAAAAAAAAANieLCwsfInjON/l+b8rAym2rsTt9tSyrB8YHR3tLH3pAgAAAAAAAAAAgLC4uPgVtm1/j+ebWjDF1pG43Xb+S8uyekpfqgAAAAAAAAAAAKCxtLT0Adu2X3Mc561gNMXWkLjdNv6Y58HSlyYAAAAAAAAAAABEwXGcTs8fqIym2BoSt1tby7J+0nsOj5S+FAEAAAAAAAAAACAOxWKxx3GcfxkMqJhfidutqWVZP+M5VPrSAwAAAAAAAAAAgDSwbfug549pMRXzJXG75fwPnsdKX2oAAAAAAAAAAACQBUtLS0ds2/5JLapiPiRut4y/6DnlfVm98PZXFwAAAAAAAAAAAGTO0tLSkOM4PxMMq9h8idv51rKsX/Geo+n19fX3lL6cAAAAAAAAAAAAoNEUi8VjjuP8h2BgxeZJ3M6tv25Z1sKJEyc+ofTlAwAAAAAAAAAAAE3mBcdxpmzb/sVgaMXGS9zOnb9lWdZKX1/fi6WvFwAAAAAAAAAAAMgTMmbBtu1pz1/Rois2RuJ2bvzvnmsnTpx4b+lLBAAAAAAAAAAAAPKMjF2wbXvBcZxfD4ZXzF7idnO1LOt/eF4+fvz4J5e+JAAAAAAAAAAAAKCVWF9ff9FxnBXbtn8rGGAxO4nbzdGyrI963nrppZc+tfQlAAAAAAAAAAAAAK2MjGVwHGfN879XRljMRuJ2w/1Dzwfeef6+0ikPAAAAAAAAAAAA7YSMaXAc57Jt2/8jGGQxPYnbDfN/Wpa1MTY29hmlUxwAAAAAAAAAAADambm5uU+1bfuW50e1OIvJJG5nq2VZH/N8ZXx8/LNKpzQAAAAAAAAAAABsJ9bW1t7nOM4D27b/MBhoMb7E7Wy0LOvjnl8/MTHxOaVTGAAAAAAAAAAAALYzi4uLn2Hb9objOP8zGGrRXOJ26v655zcODQ19XumUBQAAAAAAAAAAAHiX+fn5z3Ic5xXbtj8WDLYYXeJ2OlqW9brn3x8bG/vrpVMUAAAAAAAAAAAAoDZzc3OfY9v21zuO8/FguMX6ErcT+4ZlWd/pHccvKp2SAAAAAAAAAAAAANFZWVn5PNu2v9Hzz7WIi7rE7XhalvWm9+c/GhkZ+bLSKQgAAAAAAAAAAAAQn6Wlpb/uOM63eb5eGXFRl7htZilqf6hQKHxl6ZQDAAAAAAAAAAAASI/l5eUvchznO23bfiMYdPFdiduRfcuyrO/3jteO0ikGAAAAAAAAAAAAkB3Ly8tf5jjOP7Jt+81g2EXidkT/xcjIyO7SKQUAAAAAAAAAAADQOIrF4lfatv0hIvdWiduh/ivPfaVTCAAAAAAAAAAAAKB5FIvFHY7jfL/nW5WRd7tK3Fb9N5ZlHSqdMgAAAAAAAAAAAAD5wXGc3bZt/4tg7N1uErff1bKsf+c5UDpFAAAAAAAAAAAAAPKL4zj7PP9VZfDdThK3fX/WsqxC6ZQAAAAAAAAAAAAAaB2WlpYO2bb9b7QA3M5u57htWdYvePs/5j39L7x9FgAAAAAAAAAAAAC0KLZtD3j+Oy0Et6PbMW5blvVLnifW19ffU3raAQAAAAAAAAAAANqDpaWlgm3bP6sF4XZym8XtXy0UCnNEbQAAAAAAAAAAAGh3XlhaWhqzbfsXtDDcDm6HuG1Z1m94+7nU19f3Yul5BQAAAAAAAAAAAGh/5ErfYrF4wnGcXwrG4Va3neO2ZVn/zfPMiRMn3lt6KgEAAAAAAAAAAAC2HxK5bdue8/xVLRS3ou0Yty3L+u1CoXBxeHj4E0tPHQAAAAAAAAAAAACsr6+/6DjOkm3bvxGMxa1mO8Vty7J+1/vz2vHjxz+59FQBAAAAAAAAAAAAQBAZd2Hb9hnHcf5bMBq3iu0Qty3L+n3vzzve8/G+0lMDAAAAAAAAAAAAAPW4ePHiJzqOc9G27d8OxuO828px27KsP/L+fDQ8PPxppacCAAAAAAAAAAAAAEyRcRiO41zz/N3KgJxnWzFuW5b1J56bnu8vHXoAAAAAAAAAAAAASMra2tr7bNu+4zjO7wdjct5ssbj9p55f4/nZpUMNAAAAAAAAAAAAAGkzOzv7abZtP3Ic54+CUTkvtkLctizr496fH/Qe618tHVoAAAAAAAAAAAAAyJrV1dX327a96fknWmBupnmO25Zlve75zZ6fXzqUAAAAAAAAAAAAANBozpw589mO43yN559WBuZmmtO4/Ree314oFL6wdOgAAAAAAAAAAAAAoNkUi8W/atv2Bx3H+XgwNjfanMXtNzy/y7KsLy4dKgAAAAAAAAAAAADIGwsLC5/vOM43e75eGZwbaR7itmVZb3r+k9HR0S8vHRoAAAAAAAAAAAAAyDuO43yhbdvf7vlGMD5nbZPj9lue32dZ1leXDgUAAAAAAAAAAAAAtBq2bX+x4zjf1cjI3ay4bVnWPy8UCh2lXQcAAAAAAAAAAACAVsdxnC/3/Ce2bb9ZGaKzsAlx+4c8u0u7CgAAAAAAAAAAAADthuM4X+35fZ5vlWN02jYqbluW9aPe33WgtGsAAAAAAAAAAAAA0O4sLi522Lb9z7U4ndSs47ZlWT/hebi0KwAAAAAAAAAAAACw3VhaWuq2bfuHtEgd1wzj9k97DpYeOgAAAAAAAAAAAABsd4rF4gHHcX40GKrjmHbctizr571tvlx6qAAAAAAAAAAAAAAAW3Ecp9/zJypjtakpxu0PFwqFSe9hvfD2owMAAAAAAAAAAAAACMFxnEHbtn86GK6jmDRuW5b1y56n19fX31N6OAAAAAAAAAAAAAAA0bFt+2XHcX4+GLDDTBC3f81z/sSJE59Q+usBAAAAAAAAAAAAAGLzQrFYnHQc58PBkK1pGrcty/pN73OKfX19L5b+PgAAAAAAAAAAAACAdJAxIY7jnPb85cqYHdQgbn/EsqzVEydOvLf0VwAAAAAAAAAAAAAAZIOMDXEcZ97z1yqjdtkIcft3LMu63NfX90mlTQIAAAAAAAAAAAAANIb19fUXbdsuev5WlLhtWdZHvT9veH5KaRMAAAAAAAAAAAAAAM1BxorYtr3q+ZEacfsPLcu65617X+lTAAAAAAAAAAAAAADyweLi4ic5jnP52LFjb5Wi9h9blrUxMDDw6aUlAAAAAAAAAAAAAAD5xLKs33755ZefDw4OfmbpPwEAAAAAAAAAAAAA5BvLst5f+p8AAAAAAAAAAAAAAAAAAAAAAAAAAAAAAAAAAAAAAAAAAAAAAAAAAAAAAAAAAAAAAAAAAAAAAAAAAAAAAAAAAAAAAAAAAAAAAAAAAAAAAAAAAAAAAAAAAAAAAAAAAAAAAAAAAAAAAAAAAAAAAAAAAAAAAAAAAAAAAAAAAAAAAAAAAAAAAAAAAAAAAAAAAAAAAAAAAAAAAAAAAAAAAAAAAAAAAAAAAAAAAAAAAAAAAAAAAAAAAAAAAAAAAAAAAAAAAAAAAAAAAAAAAAAAAAAAAAAAAAAAAAAAAAAAAAAAAAAAAAAAAAAAAAAAAAAAAAAAAAAAAAAAAAAAAAAAAAAAAAAAAAAAAAAAAAAAAAAAAAAAAAAAAAAAAAAAAAAAAAAAAAAAAAAAAAAAAAAAAAAAAAAAAAAAAAAAAAAAAAAAAAAAAAAAAAAAAAAAAAAAAAAAAAAAAAAAAAAAAAAAAAAAAAAAAAAAAAAAAAAAAAAAAAAAAAAAAAAAAAAAAAAAAAAAAAAAAAAAAAAAAAAAAAAAAAAAAAAAAAAAAAAAAAAAAAAAAAAAAAAAAAAAAAAAAAAAAAAAAAAAAAAAAAAAAAAAAAAAAAAAAAAAAAAAAAAAAAAAAAAAAAAAAAAAAAAAAAAAAAAAAAAAAAAAAAAAAAAAAAAAAAAAAAAAAAAAAAAAAAAAAAAAAAAAAAAAAAAAAAAAAAAAAAAAAAAAAAAAAAAAAAAAAAAAAAAAAAAAAAAAAAAAAAAAAAAAAAAAAAAAAAAAAAAAAAAAAAAAAAAAAAAAAAAAAAAAAAAAAAAAAAD///bgmAAAAABh0PqntoM3AAAAAAAAAAAAAAAAAAAAAAAAAAAAAAAAAAAAAAAAAAAAAAAAAAAAAAAAAAAAAAAAAAAAAAAAAAAAAAAAAAAAAAAAAAAAAAAAAAAAAAAAAAAAAAAAAAAAAAAAAAAAAAAAAAAAAAAAAAAAAAAAAAAAAAAAAAAAAAAAAAAAAAAAAAAAAAAAAAAAAAAAAAAAAAAAAAAAAAAAAAAAAAAAAAAAAAAAAAAAAAAAAAAAAAAAAAAAAAAAAAAAAAAAAAAAAAAAAAAAAAAAAAAAAAAAAAAAAAAAAAAAAAAAAAAAAAAAAAAAAAAAAAAAAAAAAAAAAAAAAAAAAAAAAAAAAAAAAAAAAAAAAAAAAAAAAAAAAAAAAAAAAAAAAAAAAAAAAAAAAAAAAAAAAAAAAAAAAAAAAAAAAAAAAAAAAAAAAAAAAAAAAAAAAAAAAAAAAAAAAAAAAAAAAAAAAAAAAAAAAAAAAAAAAAAAAAAAAAAAAAAAAAAAAAAAAAAAAAAAAAAAAAAAAAAAAAAAAAAAAAAAAAAAAAAAAAAAAAAAAAAAAAAAAAAAAAAAAAAAAAAAAAAAAAAAAAAAAAAAAAAAAAAAAAAAAAAAAAAAAAAAAAAAAAAAAAAAAAAAAAAAAAAAAAAAAAAAAAAAAAAAAAAAAAAAAAAAAAAAAAAAAAAAAAAAAAAAAAAAAAAAAAAAAAAAAAAAAAAAAAAAAAAAAAAAAAAAAAAAAAAAAAAAAAAAAAAAAAAAAAAAAAAAAAAAAAAAAAAAAAAAAAAAAAAAAAAAAAAAAAAAAAAAAAAAAAAAAAAAAAAAAAAAAAAAAAAAAAAAAAAAAAAAAAAAAAAAAAAAAAAAAAAAAAAAAAAAAAAAAAAAAAAAAAAAAAAAAAAAAAAAAAAAAAAAAAAAAAAAAAAAAAAAAAAAAAAAAAAAAAAAAAAAAAAAAAAAAAAAAAAAAAAAAAAAAAAAAAAAAAAAAAAAAAAAAAAAAAAAAAAAAAAAAAAAAAAAAAAAAAAAAAAAAAAAAAAAAAAAAAAAAAAAAAAAAAAAAAAAAAAAAAAAAAAAAAAAAAAAAAAAAAAAAAAAAAAAAAAAAAAAAAAAAAAAAAAAAAAAAAAAAAAAAAAAAAAAAAAAAAAAAAAAAAAAAAAAAAAAAADApQYBh9yfAHTKigAAAABJRU5ErkJggg==;" parent="1" vertex="1">
          <mxGeometry x="1295" y="290" width="95.11" height="130" as="geometry" />
        </mxCell>
        <mxCell id="JeFQ-GH76ggwbm4yUNz4-3" style="edgeStyle=orthogonalEdgeStyle;rounded=0;orthogonalLoop=1;jettySize=auto;html=1;exitX=0;exitY=0.75;exitDx=0;exitDy=0;dashed=1;" parent="1" edge="1">
          <mxGeometry relative="1" as="geometry">
            <mxPoint x="920" y="380" as="sourcePoint" />
            <mxPoint x="640" y="380" as="targetPoint" />
          </mxGeometry>
        </mxCell>
        <mxCell id="JeFQ-GH76ggwbm4yUNz4-18" value="" style="edgeStyle=orthogonalEdgeStyle;rounded=0;orthogonalLoop=1;jettySize=auto;html=1;dashed=1;endArrow=none;endFill=0;" parent="1" source="JeFQ-GH76ggwbm4yUNz4-4" target="JeFQ-GH76ggwbm4yUNz4-14" edge="1">
          <mxGeometry relative="1" as="geometry" />
        </mxCell>
        <mxCell id="JeFQ-GH76ggwbm4yUNz4-4" value="&lt;font style=&quot;font-size: 14px;&quot;&gt;GitHub&lt;/font&gt;" style="dashed=0;outlineConnect=0;html=1;align=center;labelPosition=center;verticalLabelPosition=bottom;verticalAlign=top;shape=mxgraph.weblogos.github;aspect=fixed;" parent="1" vertex="1">
          <mxGeometry x="920" y="320" width="80" height="80" as="geometry" />
        </mxCell>
        <mxCell id="JeFQ-GH76ggwbm4yUNz4-5" style="edgeStyle=orthogonalEdgeStyle;rounded=0;orthogonalLoop=1;jettySize=auto;html=1;exitX=0;exitY=0.25;exitDx=0;exitDy=0;entryX=0;entryY=0.25;entryDx=0;entryDy=0;dashed=1;" parent="1" edge="1">
          <mxGeometry relative="1" as="geometry">
            <mxPoint x="920" y="340" as="targetPoint" />
            <mxPoint x="720" y="340.41176470588243" as="sourcePoint" />
          </mxGeometry>
        </mxCell>
        <mxCell id="JeFQ-GH76ggwbm4yUNz4-6" value="" style="ellipse;whiteSpace=wrap;html=1;aspect=fixed;fillColor=#fff2cc;strokeColor=#d6b656;strokeWidth=2;" parent="1" vertex="1">
          <mxGeometry x="520" y="380" width="40" height="40" as="geometry" />
        </mxCell>
        <mxCell id="JeFQ-GH76ggwbm4yUNz4-7" style="edgeStyle=orthogonalEdgeStyle;curved=1;rounded=0;orthogonalLoop=1;jettySize=auto;html=1;exitX=0;exitY=0.5;exitDx=0;exitDy=0;entryX=0;entryY=0;entryDx=0;entryDy=0;endArrow=none;endFill=0;strokeWidth=3;fillColor=#fff2cc;strokeColor=#d6b656;startArrow=classic;startFill=1;" parent="1" edge="1">
          <mxGeometry relative="1" as="geometry">
            <mxPoint x="600" y="360" as="targetPoint" />
            <mxPoint x="640" y="320" as="sourcePoint" />
          </mxGeometry>
        </mxCell>
        <mxCell id="JeFQ-GH76ggwbm4yUNz4-8" style="edgeStyle=orthogonalEdgeStyle;curved=1;rounded=0;orthogonalLoop=1;jettySize=auto;html=1;exitX=1;exitY=0.5;exitDx=0;exitDy=0;entryX=1;entryY=1;entryDx=0;entryDy=0;endArrow=none;endFill=0;strokeWidth=3;fillColor=#fff2cc;strokeColor=#d6b656;" parent="1" edge="1">
          <mxGeometry relative="1" as="geometry">
            <mxPoint x="560" y="400" as="sourcePoint" />
            <mxPoint x="600" y="360" as="targetPoint" />
          </mxGeometry>
        </mxCell>
        <mxCell id="JeFQ-GH76ggwbm4yUNz4-9" value="" style="ellipse;whiteSpace=wrap;html=1;aspect=fixed;fillColor=#ffe6cc;strokeColor=#d79b00;strokeWidth=2;" parent="1" vertex="1">
          <mxGeometry x="640" y="300" width="40" height="40" as="geometry" />
        </mxCell>
        <mxCell id="JeFQ-GH76ggwbm4yUNz4-10" value="Merge Branch" style="rounded=0;whiteSpace=wrap;html=1;fillColor=#d5e8d4;strokeColor=#82b366;" parent="1" vertex="1">
          <mxGeometry x="680" y="365" width="120" height="30" as="geometry" />
        </mxCell>
        <mxCell id="JeFQ-GH76ggwbm4yUNz4-11" value="Trigger Webhook" style="rounded=0;whiteSpace=wrap;html=1;fillColor=#dae8fc;strokeColor=#6c8ebf;" parent="1" vertex="1">
          <mxGeometry x="760" y="325" width="120" height="30" as="geometry" />
        </mxCell>
        <mxCell id="JeFQ-GH76ggwbm4yUNz4-13" style="edgeStyle=orthogonalEdgeStyle;rounded=0;orthogonalLoop=1;jettySize=auto;html=1;exitX=1;exitY=0.5;exitDx=0;exitDy=0;dashed=1;" parent="1" source="JeFQ-GH76ggwbm4yUNz4-14" edge="1">
          <mxGeometry relative="1" as="geometry">
            <mxPoint x="1320" y="360" as="targetPoint" />
            <mxPoint x="1240" y="360" as="sourcePoint" />
          </mxGeometry>
        </mxCell>
        <mxCell id="JeFQ-GH76ggwbm4yUNz4-14" value="Event" style="rounded=0;whiteSpace=wrap;html=1;fillColor=#fff2cc;strokeColor=#d6b656;" parent="1" vertex="1">
          <mxGeometry x="1110" y="345" width="80" height="30" as="geometry" />
        </mxCell>
        <mxCell id="JeFQ-GH76ggwbm4yUNz4-15" value="&lt;span style=&quot;color: rgb(35, 47, 62); font-family: Helvetica; font-size: 14px; font-style: normal; font-variant-ligatures: normal; font-variant-caps: normal; font-weight: 400; letter-spacing: normal; orphans: 2; text-indent: 0px; text-transform: none; widows: 2; word-spacing: 0px; -webkit-text-stroke-width: 0px; white-space: nowrap; background-color: rgb(255, 255, 255); text-decoration-thickness: initial; text-decoration-style: initial; text-decoration-color: initial; float: none; display: inline !important;&quot;&gt;Server&lt;/span&gt;" style="text;whiteSpace=wrap;html=1;align=center;" parent="1" vertex="1">
          <mxGeometry x="1329" y="403" width="60" height="20" as="geometry" />
        </mxCell>
        <mxCell id="JeFQ-GH76ggwbm4yUNz4-16" value="Perform Automation Job" style="rounded=0;whiteSpace=wrap;html=1;fillColor=#e1d5e7;strokeColor=#9673a6;" parent="1" vertex="1">
          <mxGeometry x="1150" y="300" width="170" height="30" as="geometry" />
        </mxCell>
      </root>
    </mxGraphModel>
  </diagram>
</mxfile>
